<svg id="Layer_1" data-name="Layer 1" xmlns="http://www.w3.org/2000/svg" viewBox="0 0 1000 1000"><defs><style>.cls-1{fill:#40bee1;}.cls-2{fill:#4459a5;}</style></defs><title>sid logo</title><path class="cls-1" d="M981.65,498.7l2.22,2.3C979.21,496.12,981.77,498.83,981.65,498.7Z"/><polygon class="cls-1" points="935.06 451.14 935.95 451.93 928.92 445.07 935.06 451.14"/><path class="cls-1" d="M891.46,406.71c3.69,4.63,15.88,16,23.51,24.08l1.2,1.38,3.78,3.3C910.49,425.86,898,413.6,891.46,406.71Z"/><path class="cls-1" d="M869.37,381.85c1.21,1.69-5.17-5,5.32,5.63l-.92-1.06Z"/><path class="cls-1" d="M873.77,386.42c4.57,4.71-2.81-3.25,0,0Z"/><path class="cls-1" d="M852.59,364.79l6.21,6c-1.12-1.43-6.42-7-4.34-5.05C848.2,359.47,849.31,360.94,852.59,364.79Z"/><path class="cls-1" d="M846.42,359.37l3.22,3.12A21.17,21.17,0,0,0,846.42,359.37Z"/><path class="cls-1" d="M856.44,369.1l-6.8-6.61a9.27,9.27,0,0,0,3.1,3.05C852,365.17,853.51,366.33,856.44,369.1Z"/><path class="cls-1" d="M860.09,373.05c3.25,3.6,7.55,8.15,1.3,2.15C873,386.94,871.68,384.83,860.09,373.05Z"/><path class="cls-1" d="M888.76,404.92l4.43,4.73,4.09,3.83C895.23,411.56,888.62,404.49,888.76,404.92Z"/><path class="cls-1" d="M815.51,325.78c-.54-.22,1.59,2.52,1.84,3.18l4.63,4.39C819.8,330.9,815.57,326.34,815.51,325.78Z"/><path class="cls-1" d="M817.35,329l-6.94-6.55C816.33,328.54,817.55,329.52,817.35,329Z"/><polygon class="cls-1" points="844.63 358.98 856.08 369.71 842.51 356.84 844.63 358.98"/><polygon class="cls-1" points="790.17 299.58 794.35 303.05 787.01 296.76 790.17 299.58"/><path class="cls-1" d="M773.26,282.3c3.15,2.51-3.19-4.58,0-1.76-4.63-4.66-8.85-8.37-12.67-11.69A174.9,174.9,0,0,1,773.26,282.3Z"/><path class="cls-1" d="M754.22,263.21c2,1.82,4.07,3.65,6.35,5.64C758.5,266.89,756.42,265,754.22,263.21Z"/><path class="cls-1" d="M799.14,310.69a38.12,38.12,0,0,0-4.75-5.88l2.13,3.18Z"/><path class="cls-1" d="M796.59,308.1l-.07-.11c-2.84-2.92-4.8-5-5.64-5.83Z"/><path class="cls-1" d="M799.79,311.37l-.65-.68A1.93,1.93,0,0,0,799.79,311.37Z"/><path class="cls-1" d="M827.47,340.76c-4.15-3.77-12.64-11.82-5.06-3.4C825.53,339.93,821.2,335.1,827.47,340.76Z"/><path class="cls-1" d="M802.45,315.31l7,7.34c0-.27-1.11-1.75,1,.1Z"/><polygon class="cls-1" points="798.82 311.92 802.45 315.31 799.86 312.58 798.82 311.92"/><path class="cls-1" d="M765.82,276.17c-3.31-2.89-6.68-6.29-10.51-10.12,4,4.26,8.09,8.6,12.07,12.67C768.12,279.12,770.18,280.6,765.82,276.17Z"/><path class="cls-1" d="M780.72,291.74l-.71-.67C780.39,291.55,780.71,291.9,780.72,291.74Z"/><path class="cls-1" d="M718,228l.48.73a1.13,1.13,0,0,1,.25,0Z"/><path class="cls-1" d="M768,279.52a68.52,68.52,0,0,0,6.81,6.55c-2.34-2.28-4.79-4.71-7.39-7.35C767.05,278.54,767,278.54,768,279.52Z"/><path class="cls-1" d="M743.58,252.84c1.46,1.75,3.15,3.7,4.94,5.73C747.16,256.79,744.29,253.26,743.58,252.84Z"/><path class="cls-1" d="M779.13,289.88l.48.44C778.73,289.18,778.79,289.37,779.13,289.88Z"/><path class="cls-1" d="M779.13,289.88c-1.64-1.53-3-2.66-4.36-3.81,1.9,1.85,3.67,3.56,5.24,5C779.67,290.65,779.35,290.21,779.13,289.88Z"/><path class="cls-1" d="M702.47,220.75c1.17-.09,9.81,7.48,16.17,15.11,7.33,6.44,4.72,0-.12-7.13-.47,0-.71.28-8.1-6.5,2.12,2.84,14.86,16.58,8.38,11.1-9.66-9.1-7.45-7.92-11.66-12.83,3.1,4.65-13-10.86-12.14-7.65l8.63,7.82C703.61,221,700.34,218.3,702.47,220.75Z"/><path class="cls-1" d="M731.83,242.41l3,2.87c-3.19-3.45-5.32-6.08-9.19-11-5.08-4.62-6.3-5.41-6.83-5.55l14.13,14.57Z"/><path class="cls-1" d="M747.74,258.5c-2.84-1.71-10-8.5-6.45-3.52,8.55,8.56,6.46,5.53,11.78,10.42-13.83-13.77,4.26,3.68-5.29-6.72,2.79,2.64,5.23,5.07,7.53,7.37-2.38-2.58-4.67-5.09-6.79-7.48l.28.35.06.07h0c.52.68.67.92,0,.2a3.62,3.62,0,0,1-.29-.28,2.74,2.74,0,0,1-.84-.4c-3.84-4.17-.47-.79.84.4.07,0,.21.1.25.08l0-.06-14-13.64C737.6,248.32,741.25,252,747.74,258.5Z"/><path class="cls-1" d="M814.1,330.92c-.39-.47-.34-.48-.34-.55C812.81,329.53,812.44,329.23,814.1,330.92Z"/><path class="cls-1" d="M808.7,325a54.36,54.36,0,0,1,5.29,4.92c2.7,3-.23.21-.23.5,2.09,1.85,7.2,6.59,1.26.18l-1-.92c-5.4-5.74-11.91-13.53-10.88-12.62A55.46,55.46,0,0,0,808.7,325Z"/><path class="cls-1" d="M777.55,291.6l-11.72-11.31,5.37,6.36,0-.58C777.6,292.75,776.53,291,777.55,291.6Z"/><polygon class="cls-1" points="717.06 226.34 719.26 227.2 711.7 221.45 717.06 226.34"/><polygon class="cls-1" points="702.17 211.31 703.34 211.24 699.06 207.63 702.17 211.31"/><path class="cls-1" d="M189,658.79l3.69,3.08C191,660.36,189.89,659.43,189,658.79Z"/><path class="cls-1" d="M164.65,634.18l-1.14-.06C164.94,635,165.63,635.2,164.65,634.18Z"/><path class="cls-1" d="M324.24,182c-5.9,4-12.93,7.94-11.17,8.51l2.65-.38A69.94,69.94,0,0,1,324.24,182Z"/><path class="cls-1" d="M79.28,440.41l1.81-1.07c.78-1.61,1.51-3.14,2.16-4.49Z"/><path class="cls-1" d="M80.87,449l-7.29,5.7C75.32,453.48,77.67,451.65,80.87,449Z"/><path class="cls-1" d="M323.63,791.75l5.07,2.82C322.55,788.36,324.68,791.68,323.63,791.75Z"/><path class="cls-1" d="M549.92,57.05c-3.87-4.64-7.07-8.2-10-11.24C544.49,51.51,547.82,56.45,549.92,57.05Z"/><path class="cls-1" d="M166.67,661.87c2.29,1.85,3.42,2.49,3.63,2.16C168,662.11,166.52,661.14,166.67,661.87Z"/><path class="cls-1" d="M527.75,33.44c.65.84,1.33,1.63,2,2.48,3.24,3,6.47,6,10.18,9.89A67.77,67.77,0,0,0,527.75,33.44Z"/><path class="cls-1" d="M798.68,680.7l1.17-1C799.89,679.5,799.39,680,798.68,680.7Z"/><path class="cls-1" d="M943.34,542.66l-5.72,5.89Z"/><path class="cls-1" d="M642.89,150.18c3.19,3.15.58.42,0,0Z"/><path class="cls-1" d="M655.16,168.77c-.75-.59-1.37-1-1.63-.9A4,4,0,0,1,655.16,168.77Z"/><path class="cls-1" d="M490.56,28.86l-.28.27C491.42,28.38,491.22,28.51,490.56,28.86Z"/><path class="cls-1" d="M647.26,155.35c-1.08-1.29-2.36-2.76-3.79-4.32C644.06,151.75,645.21,153.07,647.26,155.35Z"/><path class="cls-1" d="M647,154.34c1.06,1.13,1.88,2,2.67,2.88C650.19,157.49,649.92,157.05,647,154.34Z"/><path class="cls-1" d="M638.47,145.76c1.81,1.82,3.45,3.56,5,5.27-.56-.69-.78-1-.58-.85C642,149.25,640.64,147.94,638.47,145.76Z"/><path class="cls-1" d="M538.7,940.63c.24-.18.5-.4.77-.59C542.3,936.47,541,937.93,538.7,940.63Z"/><path class="cls-1" d="M253.52,276.49c.14-.16.19-.27.31-.42-.16.13-.37.3-.51.43Z"/><path class="cls-1" d="M243,288.79c3.38-6.33,6.31-8.91,10.29-12.29l-7.15.39Z"/><path class="cls-1" d="M247.88,717.24,241,708.15c11.37,8,17.72,15.59,11.72,6.55-4.79,2.53-31.38-30.84-36.19-28.26L212,680.37c1.47,1.55,1.93,1.58,3.38,3.11-8.45-12.07-10.29-5-23-18.73-4.31-4.9-7-8.66-3.4-6l-11.18-9.36c-2.91-3.06-1.53-3,1.37.07l-15.94-15.39h.23c-2.82-1.65-8.79-5.8-11.65-7.89-3.44-4.52,2.39,1.6,1.84.11l-9.57-7.76c-2.55-4.52,5.58,1.72,11.42,7.86-4.31-11.89-8.13-6.25-23.38-26l8.66,7.72c-3.11-7.44-10.28-13.06-18.17-23.68,1.48,2.91,15.11,22,4.77,13.48a59.47,59.47,0,0,0-11.56-10.89c1.31-1.41-4-6-10.25-12.17l2.22-1.37c-7.22-6.2-7.61-4.75-12.36-7.89-7.29-7.66-7.44-10.61-8-13.55-11.67-12.27,6,10.52-8.48-3.32-9.26-10.65-17-16.91-30-27.74-6.34-7.59,2.32.11.34-2.9l-7.61-4.74c-1.48-1.55-.55-1.5-.08-1.48-2.88-2.32-3.44-2-4.36-2a4,4,0,0,1-2-.72,19.42,19.42,0,0,1-1.83-1.29l-.29-.23-.2-.14-.43-.31c-.3-.23-.63-.49-1-.79-.94.06-2-.85-3-2.15a25,25,0,0,1-1.45-2.14L26.44,501c.48-.38,1.08-.76,1.61-1.13,2.18-1.5,4.19-2.81,5.78-4.15.25-.19,1.13-1.05,1.8-1.73s1.37-1.42,2-2.15a36.64,36.64,0,0,0,3.44-4.51c3-2-.1,2.31,1.36,2.25,12.41-15.38,10.83-13,20.24-26.4l10.9-8.54c-8.49,5.79-1-4.94,5.7-14.25-3.19,1.88-5.92,3.47-7.65,4.65l11.79-13.72c1.84-1.24,1.17.66-.17,3.51.72-1,1.4-2,1.91-2.77,5.22-3.9,3.9-.49,1.64,3.78-1.91,1.2-3.83,2.36-5.71,3.48-2,4.25-3.78,8.41-2.07,8.81a38.42,38.42,0,0,1,3.69-4.67c-.52,1.12-.78,1.92-.22,1.71s1.55-2,3.18-4.52l4.9-.89-.09-1.5,17.92-15.44c9.91-14,17.33-27.32,35.46-47.09-3.24,6.17,1.37,3.4,2.84,5.38-7,3.35-13.88,15.47-24.06,24.93,5.31-4.94,5-3,4-1.39l15.83-19.2c1,1.81,4.77-2.66,9.93-6.66-6.25.67,11.18-14.93,17.44-22.91,1.38.49.62,3.15-8.28,11.63,11.67-7.51,9.11-15.67,20.3-23.32-2.1,2.15-3.39,3.15-3.75,4.46,4.12-5.79,16.89-17.26,14.85-13.6l-2.1,2.14c14.4-13.79,42.85-43,42.65-47.37.43.16.94,4.64.55,6l17.39-32.91c-.24,4.19,12.93.35,2.38,13.18a102.16,102.16,0,0,0,14.46-14.71c-2.56,2-8.53,2.88-5.59-.43,10.76-6.42,7.12-4.8,19.53-13.56-3.84,3-3.09-3.85,2.43-9.17-.39,1.3,3.46,2.55,1.79,4.85l10.5-16.5c-2.83,3.91,1.92,3.12,5.77.92-2,.83,11.69-11.65,15-15.55L311.31,217c15.64-14.85,10.9-19.21,26.17-34.18-1.23,2.43-.82,8.22,7.21.87,2-5,8.47-22.72,20.78-37.16l3.4-1.73,9.35-11.18c-4.26,8.52-17.58,31.06-25.51,42.72,6.35-5.06,2.57-.6,11-9.25,3.79-2.25-3.44,5.86-5.89,8.44L378.1,156c-2.58-.8,13.44-17,11.3-17.59l-19.77,23.42c-2.58-.83,7.64-17.34,22-31.13,4.24-2.93.29,5.66,1.15,5.92,1.24-2.41,12.22-14.51,13.92-15.41l-5.07,6.89c8.42-7.27,10.57-15,21.52-22.93,3.35-3.16,11.76-7.67,11.36-9.19-7.12,3.49-13.9-1.22-11.74-6.13,1.27-1,18.88-15.28,23.48-18.1,6.77-4-4.64,11.44,1.14,8.09-.24-.63,2.17-4.13,3.23-5.54,3.78-3.06-.07,2.76,7.13-4.89-.36-2.84,15.18-15,2.15-4.87,6.79-7.73,8-7.41,16.46-16-3.73,1.7,4.2-11.11,11.05-18.81,0,.82,2.11-.3,3.13-.86,3.78-3.71,7-6.78,9.95-9.58l.28-.26.14-.13c0-.05.09-.1.13,0l.55.57,1.06,1.13,2.06,2.19,3.87,4.17c5.34,5.71,10.69,11.39,17.62,18.31.92,1.64,7.21,8.75,3.72,6.53a67.54,67.54,0,0,1,8.92,7.31c7.06,9.51-9.77-9.32-4.94-1.52,1.38-.31,12.27,9.87,18.89,15.44-.6-3.15-13.86-14.32-20.51-19.87,1.78-1.84,14.29,6.91,29.54,20.67,11.91,11.15,3.86,6.13,6.11,7.9,21.32,22,21.31,15.58,38,34.86,6.07,8.2-1.74,2.38-.91,4.71-9.78-9-13.74-15.09-20.13-21.43l7.32,8.35a114,114,0,0,1-13-12.37c5,6.94,36.39,36.78,52.29,54.3,3.3,2.64,8.76,7.42,6.73,4.61l-5.42-5.15c-4.06-5.66,11,8.87,4.71,1.8,7.63,6.56,16.37,13.72,25.87,24.18l.81,2.94c.09-.52-5.87-7.18-9-9.67,4.6,3.72,13.85,16.77,19.75,20l-6.25-7.74c7.62,6.62,17.41,14.43,25.86,23.67-3-5-2.14-1.93-7.21-9.44,4,6.95-22.34-22.92-15.23-12.53-5-7.9-10.49-11.84-17.6-21.59-.1.62,2.27,3.7-4.91-4-.43-.24-1.35-.9-1.93-1.33l-.47-.54.36.46c-.37-.27-.41-.29.14.17a31.47,31.47,0,0,1,3.21,4.36c-4.48-2.89-16.2-14.8-20.62-18.37-4.2-4.61,2.26,1.43.27-1.39l-6.6-5.34c.24-1.42-10.22-13.19.57-3.22l-9.22-9.46a177.26,177.26,0,0,0-17.27-18.21c-4.17-4.64-12-10.25-7.52-7.07L575.49,83.07l.09-.37C561.37,68,544.44,54.31,529.76,35.92c-2.54-2.33-5.14-4.68-8.07-7.51-1.47-1.42-3-2.95-4.7-4.66l-7.58-7.87c-.69-1.28-1.43-2.6-2.23-3.92-1.37-1.25-2.89-2.68-4.53-4.26l-1.24-1.21-.32-.31L500.93,6s-.05-.07-.08,0l-.08.08-.64.62-2.66,2.55L486.09,20c-4.45,4.1-8.33,7.78-9.23,9.58-9.18,4.3-31.08,29.59-42.58,40.07l.79,1.62c-7.69,7.45-14.64,15-23.58,24.85l1.66.51c-7.23,9-21.68,20-34.44,32.82.45-1.3,3.82-4.42,6.39-6.45-17.91,12.69-30.56,34-46.35,46a47.2,47.2,0,0,1-8.43,8.35,9.83,9.83,0,0,0,.8-.92c-.37.34-.9.86-1.44,1.4-1.73,1.33-3.54,2.66-5.44,4.17,1.74-1.16,3.36-2.31,4.68-3.4-2.65,2.68-6.57,6.85-10.26,11.1l-2.94.43-.89,1c-4.37,3.41-2.54,3.71.48,2.58-1.79,2.2-3.38,4.27-4.5,6-5.2,1.12-9.74,11.06-16.25,13.19-1.62,3.72-19.19,20.68-19,25.05-.43-.16-1.74.87.39-1.29-4.69,4.16-9.37,8.31-12.7,12.91l-3.52.23-7.46,11.84c-6.87,4.86-9.9,6.69-5.33-.39-12.14,16-10.7,12.12-20.72,26l-.5-1.66c-4.24,4.31-9.63,12.58-13.1,14.26-11.65,7.48-47.65,47-74.16,69.54,8-1.5-12.89,9.93-11.33,13.43-2.2.66-6.06,3.64-2.76-1-11.77,13.28-20.06,17.58-26.57,28.35-2.22.66,1.54-3.81-.19-3-.84,1.18-3.31,4.65-5.08,5.49s1.18-2.48,2.83-4.8c-12.68,12.91-11.58,16.6-10.27,19.77-7.55,5.42-10.63,8.8-13.84,15-3,1.52-7.53,4.51.16-3.7C66.79,443.2,43,465.07,44.31,467.33c-1.86.95-6.38,6.12-7.35,7.51L26.35,485.13,24,487.49l-3.06,3.07-8,8.12,4.17-3.56a11.72,11.72,0,0,1-2.16,4.15c-.26.34-.54.67-.84,1l-.47.52-.12.13-.06.07s0,0,.06.06l.27.27c.74.7,1.45,1.44,2.18,2.22l4.83,5.36q1.38,1.51,3,3.2l1.7,1.72.88.86.76.72h-.45c16.64,19.78,8.61,7.11,24.8,26.87l.37-2.34c4.59-1.23,14.21,17.64,25.76,26.95l-3-4.53c6.69,4.7,12,19.86,17.35,25.94,1,1.49-2.38-1.57-4.31-3.12,13.29,16.67,3.71.17,15.29,10.91,1.11,3-5.07-.23,2.27,7.45,3,4.51,24.89,18.69,33.34,30.74-1.54-3-3-5.95,2.68-1.32,8.21,7.68,18.77,24.19,28.24,29.07.81,1.21,1,1.78.87,2,6.67,5.48,20.74,18.73,25.63,21.16,1.09,10.14,40,35.52,35.71,39.54l18.94,18.42-.9-.07c11.7,12.18,16.91,15.42,22.09,18.63,2.49,3,.09,1.4-.35,1.39,16.66,18.23,18.6,19.76,35.24,32.38l.23,2.81c4.72,3.21,23.29,27.17,41.95,42.73-.31,0-.91-.13-2.45-1.31,10.39,8.86,21.09,21.22,30.65,31.64s18,18.94,23.75,20.26l13.83,11.58c-16.14-16.74,4.35.55-1.7-6.93,6.72,6.22,15.41,18,7.24,10.3l-1-1.45c-5.19-.65,19.67,21.18,17.71,22.26,16.29,16,32,32.25,47.53,48.17l6.69,6.85,8.73,8.85,1.1,1.11c.36-.28.73-.68,1.1-1l2.21-2.1c1.48-1.41,3-2.76,4.44-4.24q3.86-3.81,7.7-7.58,11.7-11.46,23-22.86l-5,2L545,946c3.12-2.43,4.91-2.54-2.65,5,4.81-3.12,11.84-13.45,11.73-14,15.3-14.22-4,7.57.58,3.06l6-6.3L559.06,935c4.34-5.64,4.13-6.73,13.22-15.76,6-5.47,3.83-2.05,6.13-4.27.09.12.9-.6,3.48-3.44l13.35-13.28-6.42,4.22c5.31-6.49,12.52-12.52,5.12-7.63,5.49-3.53,18-15.85,29.93-27.89s23.25-23.8,26.28-26.31c7.48-9.06,15.63-17.23,25.77-27.3-2.7,2.32-5.3,2.74,3.54-5.86-1,5.4,16.85-15.07,25.36-20.66-7.25,5.35,24.34-25.22,13.17-16.63,7.4-7.15,1.19.3,7.14-4.79,8.21-9.1,17.81-18.58,27.94-28.54s20.82-20.41,31.3-31.33c.12-.55-3.76,2.74.48-2.2l12.23-10.37c4.08-4.37,2.72-5.06,11-12.18-1.24.94-3.11,2.34-.35-.58,21.27-20.66,42.26-42.49,63.52-64.23q15.94-16.32,32-32.54l32-32.19c-5.81,5.73-2,1.81,2.31-2.65-2.86,2.87-.09-.21-.72.28q9-8.88,17.82-17.83c3.08-3.42,18.85-19.37,20.63-21.32l-5.58,5.72c3.68-3.83,1.05-1.21-2.43,2.16s-7.81,7.5-7.35,6.87c-4.16,4.25-9.79,9.7-16.14,15.77S930.42,553,923.72,560.06c-3.16,2.93,2.49-2.7.75-1.18-3.37,3.62-7.57,7.86-15.56,15.52l.85-.93c-22.14,21.82-31.88,30.93-57.1,55.09l2.24-1.42c-5.41,5.21-6.67,6.18-9.28,8.54-5.53,6.65,15.09-14.72,10.14-8.57-3.94,3.1-13.4,12.35-22.56,21.32s-18.06,17.64-21,19.42c-8.26,8.07,3-1.79-5.25,6.28L804.4,676l-1.67,2.46c-5.46,5.23-8.6,7.49-9.09,7.4,1.34-1.25,3.65-3.73,5-5.12-7.43,6.45-19.67,19.46-22.21,21.69l8.15-7.54c-11.09,11.19-23.61,23.4-36,35.57s-24.6,24.31-35,35.44l2-1.29c-15.91,17-13.63,12.7-31.5,30.92l.58-.74a188,188,0,0,1-13,13.8c4.16-5-9.48,7.66-3.94,1.24-17.2,18.45-8.31,9.33-18.69,22.49l-3.38,2.05c-3.43,4.58-3.46,5.23-12.32,14.39,6.85-7.93-6.8,4.7.76-4.29a223.9,223.9,0,0,0-22.43,22c-5.48,6-9.74,10.66-15.25,13.83-6.75,10.61,17.54-15.19,13.07-9.93,4.72-3.43-5.73,8.59-11.87,14.32-6.09,6-12.86,7.69-28.12,22.82,1.53-1.5,1.47-1.75,3-3.24-6.25,5.11-10.49,11.79-18.38,17.85-2.65,5.17-9.18,8.93-8.66,11.7l13.61-14.26c-7.52,8.28-13,17.62-27,29.67.67-1.36,4.11-5.66,6.54-8.56-4.32,3.3-7,7.63-11.5,11-.56-2.81,16.64-17.23,23.9-26.91-4.81,3.36-14.91,17.12-12.43,11.09-3.85,8.39-15.37,14.57-23.93,26.6l-.35-1.71a101.88,101.88,0,0,1-7.42,8.58l4.12-6.73a58.24,58.24,0,0,1-5.85,6.44l-.78.74-.41.37-.59.49a7.15,7.15,0,0,1-1.14.77c-.37.2-.7.36-1,.51l-.12.05-.06,0-.05-.09-.21-.33-.41-.6a4.82,4.82,0,0,0-1.72-1.65,12.52,12.52,0,0,1,2.2,2.64l.13.24c0,.09.07.15.1.13a.26.26,0,0,1,.14.11.88.88,0,0,1,.06.52c0,.44-.22,1.08-.2,1.51s.24.66,1.22.07c-1.33,2.74-2.55.26-3.55-.43a23,23,0,0,1-2.39-2.63,42.4,42.4,0,0,1-4.64-6.64c-2.45-4.1-5.06-8.66-16.8-20,3.26,3,11,12.47,5.66,8-4.15-4.64-9.51-10.9-11.61-14.2-15.44-15.17,1.2,3.5-6-2.38-3.83-6.58-8-7-15.14-13.3l1.09-1.19c-16.62-18.26-7-2.26-21.75-18.9l8.21,5.05-8.57-7.8,3,.37c-9.84-8-12.36-11-20.67-20.15,1.19,2.87-3.27,1-11-6.72-4.55-6,4.07,1.84-7-9,3.21,1.73,6.84,3.52,10.49,9.41.87.1,3.17,1.7,4.05,1.83-4.83-6.52-14-14.53-17.95-18.5a53.33,53.33,0,0,1,4,4.59l-17.48-14.27c-2-3,.31-1.34,2.62.27-3.33-3.1-6.11-4.77-10.92-9.41,2.21.24,2.94-1.08,10.06,5.18L360,829.66c-.57-1.45-6.53-9-4.21-7.39-7.74-9-22.43-18.72-32.71-30.66a25.88,25.88,0,0,1-4.62-3.59c-10.19-10.71-18.12-21.29-31.89-32.29l-5.13-8.92c-10.09-9.31,7.12,11.9-9.69-3.59-12-10.87-2.65-5.89-6.12-10.44C259,728,247.17,720.06,238.24,708,242.07,711.11,244.5,714.12,247.88,717.24Zm-120.25-119c2.6,2,8.09,5.79,9,8.28C132.43,605.43,131.13,602.64,127.63,598.24ZM99.5,425.41c-1.27,2.17-4.16,4.62-7.68,7.11A59.55,59.55,0,0,1,99.5,425.41ZM607.67,115.82l-.29-.2C602.61,110.05,604.29,112,607.67,115.82ZM617.93,127c1.19,1,1.25.76.92.17-1-.52-3.38-2.93-6-5.76C613.32,122.46,614.54,124,617.93,127ZM579.24,913.38l-2.33,1.85C581.32,910.2,580.26,911.78,579.24,913.38Z"/><path class="cls-1" d="M80.75,447.9a2.2,2.2,0,0,1-1.73.25C78.34,449.29,78.58,449.57,80.75,447.9Z"/><path class="cls-1" d="M322.69,791.23l.35.38a1.24,1.24,0,0,0,.59.14Z"/><path class="cls-1" d="M452.24,76.17a33,33,0,0,1-4.83,3.69C447.57,80.26,448.81,79.49,452.24,76.17Z"/><path class="cls-1" d="M675.77,183l-7-6.74a72.17,72.17,0,0,1,5.87,6.53C674.65,182.43,673.63,180.83,675.77,183Z"/><path class="cls-1" d="M730.45,247.7c1.09.92,2.14,2.13,3.22,3l0-.59C729.42,245.87,726.16,243.14,730.45,247.7Z"/><path class="cls-1" d="M679.41,192.09c-.14,1.22,4.39,5.32,9.31,10-.29-.29-.57-.56-.85-.85C690.2,201.78,684.8,196.92,679.41,192.09Z"/><path class="cls-1" d="M689.85,203.23c1.51,1.46,3,3,4.45,4.46C695.23,207.89,692.58,205.8,689.85,203.23Z"/><path class="cls-1" d="M631.94,140.26c2.08,2.5,2.38.5,3.35,2.11C638.78,144,619,128.15,631.94,140.26Z"/><polygon class="cls-1" points="681.09 198.21 680.19 195.66 676.82 193.62 681.09 198.21"/><path class="cls-1" d="M643.7,159.51l7.45,8c0-.27,1.09.62,2.36,1.76C648.8,164.45,643.79,159.07,643.7,159.51Z"/><path class="cls-1" d="M653.51,169.23c2.45,2.49,4.81,4.83,6.33,6.06C658.49,174,655.59,171.11,653.51,169.23Z"/><polygon class="cls-1" points="670.31 187.94 668.21 185.49 662.84 179.99 670.31 187.94"/><path class="cls-1" d="M561.25,76.46l-8.68-8.11c-1.22-.5.85,2,4.12,5C559,75.11,562.2,78.1,561.25,76.46Z"/><path class="cls-1" d="M583.91,104.63a20.09,20.09,0,0,1-3-4.46l-1.49,1Z"/><path class="cls-1" d="M559,80.49c-1.19-.48-13.27-11.12-2.49-.59C557.76,80.39,566.5,88.48,559,80.49Z"/><polygon class="cls-1" points="435.24 85.15 437.36 83 434.63 80.87 435.24 85.15"/><path class="cls-1" d="M330.05,203.11c10.55-9.37.73-4,10.48-12.24,1.71-3-8,6.73-6.12,3.79C329.08,201.34,325.57,204.14,330.05,203.11Z"/><path class="cls-1" d="M334.41,194.66c.86-1.07,1.75-2.22,2.66-3.48A39.93,39.93,0,0,0,334.41,194.66Z"/><polygon class="cls-1" points="966.55 518.97 972.86 512.47 968.77 516.65 966.55 518.97"/><path class="cls-1" d="M978.59,506.42l1.5-1.5,3.78-3.92Z"/><path class="cls-1" d="M113.53,576.77l-.92,0c.51,1.47,2,3,4.9,6.08Z"/><polygon class="cls-1" points="198.83 665.12 197.37 663.59 198.54 668 198.83 665.12"/><path class="cls-1" d="M273.46,736.23c-2.89-3.06-6.72-6.22-9.63-9.29C270.57,733.17,272.31,739,273.46,736.23Z"/><path class="cls-2" d="M605.28,264.84c0,3.17,3.16,6.33,3.16,8.7a2.9,2.9,0,0,0-.79,2.37c0,.79,4,4.75,4,7.12q0,7.11-4.74,9.48a6.69,6.69,0,0,0-1.58,4.75q0,2.37-2.37,7.11l-8.7,8.7c-2.37.79-15,5.53-18.18,8.69-15,10.28-19.76,5.54-22.14,15.81-7.11,2.37-10.27,4-11.06,4-2.37,0-4.75-1.59-7.91-4.75v-3.16l-.79-2.37c0-1.58,9.49-5.53,12.65-14.23a6.68,6.68,0,0,0,1.58-4.74c0-2.38-.79-5.54-.79-7.91l-.79-2.37a2.9,2.9,0,0,1,.79-2.37c.79-.79.79-2.37.79-4.75S546,287.77,546,285.4c0-5.54-15.81,0-20.55-8.7-3.17,0-8.7,3.16-11.07,3.16l-19.76,9.49a108.28,108.28,0,0,1-18.19,7.12l-7.11,4.74c-5.54,2.37-15,11.07-21.35,14.23l-5.53,3.95c-2.37.79-3.95,3.95-4.74,4.74a8.61,8.61,0,0,1-4,.79h-3.16c-2.37.8-3.95,5.54-4.74,6.33h-1.58a2.9,2.9,0,0,1-2.37.79c-.79,2.37-7.12,3.16-9.49,8.7-3.95.79-11.07,4.74-19.76,11.85-.79.79-2.37.79-4.75.79a6.06,6.06,0,0,1-1.58,4l-3.16.79c-1.58.79-3.16.79-3.95,1.58-8.7,8.69-14.23,14.23-15,16.6,0,4.74,4.74,5.53,7.11,7.9l10.28,7.12c.79,0,3.95-.79,6.32-.79s4,0,4.75.79c3.16,0,8.69,2.37,12.65,2.37,2.37,0,7.11-2.37,9.48-2.37a6,6,0,0,1,3.95,1.58l2.38,3.16c.79,0,7.9-2.37,10.27-2.37h6.33c11.85,0,38.73,2.37,79.05,7.12a188.5,188.5,0,0,1,26.09,1.58c2.37,0,12.65,4.74,18.18,5.53l4.74-3.16A33.42,33.42,0,0,0,576,410.3c.79,0,4,.79,11.07,2.37,5.53.79,12.65,3.17,22.13,6.33,3.95,2.37,15.81,7.11,19,7.9l1.59,2.37,2.37,2.38c.79.79,2.37,1.58,5.53,1.58l2.37,4.74c.79.79,2.37.79,4.74.79l1.59,3.16.79,1.58c0,.79.79.79,2.37,1.58l2.37.8c1.58,1.58,3.16,7.9,4.74,11.85l4,4.75c5.53,7.9,8.69,18.18,8.69,31.62,0,7.11-.79,12.65-3.16,17.39l-6.32,7.11V521l.79.79c0,.79-1.58,1.58-4,2.37-3.95,7.11-7.11,11.07-7.9,11.86a41.26,41.26,0,0,0-6.33,8.69l-3.16,2.37c-3.95,3.16-7.11,6.33-7.11,10.28-5.54,1.58-12.65,9.49-16.6,13.44l-4,.79q0,1.18-2.37,4.74c-1.58,1.58-7.9,4.75-9.48,6.33l-33.21,26.87c-3.16-2.37,1.58,15.82,2.37,21.35l-3.16-1.58c-4,0-8.69,6.32-11.06,11.86l-1.59,4-2.37-.79c-4-1.58-5.53,2.37-7.9,5.53l-6.33,3.95-4,1.59c-3.95,2.37-7.91,4.74-13.44,5.53-.79,0-2.37-1.58-4.74-1.58-.79,0-6.33,2.37-9.49,2.37-7.11.79-14.23,4.74-19.76,10.28-4.74,3.16-7.12,6.32-7.12,10.27,0,.79,0,2.38-.79,3.17-5.53,0-4.74,6.32-5.53,7.11-1.58.79-8.7,2.37-4.74,6.32-6.33,0-10.28,1.59-12.65,5.54-4,0-8.7-2.37-11.86-2.37-.79.79-6.32,2.37-6.32,4.74H425.83c-2.37.79-12.65,10.28-18.18,11.07H387.88c-2.37,0-8.69,1.58-9.48,1.58a2.9,2.9,0,0,1-2.37-.79c-6.33-.79-16.61-8.7-19-9.49-.79-.79-2.37-5.53-4.74-7.9-1.58-1.59-3.16-6.33-4.74-13.44-.79-2.37-7.12-15.81-7.12-22.14-.79-3.95-.79-11.07-.79-19.76a127,127,0,0,1,1.58-22.14l2.37-3.16,2.38-4L348.36,604c.79-.79,2.37-5.53,2.37-6.32l.79-.79c.79-.79,1.58-.79,1.58-1.58.79,0,.79-7.12,1.58-9.49,0-2.37,6.33-5.53,7.91-7.12,0-1.58,0-2.37.79-2.37s1.58-.79,1.58-3.16a1.7,1.7,0,0,1,1.58-1.58,2.09,2.09,0,0,0,2.37-2.37,2.9,2.9,0,0,1,.79-2.37l2.37-1.58c4-3.17,7.12-6.33,7.12-10.28,5.53,0,12.65-7.91,16.6-10.28,4.74-5.53,9.49-7.9,14.23-11.86,10.27-4,15.81-6.32,16.6-8.69,10.28-3.95,15.81-6.33,16.6-7.91q15.42-2.37,26.09-7.11a2.9,2.9,0,0,0,2.37.79c.79,0,3.16-.79,3.95-.79h15a20.64,20.64,0,0,1,8.7-2.37,10.14,10.14,0,0,1,7.9,3.16c-.79,3.95-4.74,6.32-12.64,7.11-2.38,5.54-15.82,11.86-19,15.81L448,548.64l-26.87,15.82c-4,2.37-6.33,4.74-7.12,8.69-2.37,0-5.53,4.74-6.32,4.74-2.37,2.38-4,3.17-5.54,3.17-3.16,3.16-11.06,14.23-14.23,18.18l-6.32,10.27q-4.74,8.31-7.11,21.35c-4,11.07-5.54,20.55-5.54,29.25v3.95c0,2.37,1.58,7.12,5.54,14.23.79.79,3.16.79,5.53.79s9.48-1.58,22.92-5.53c5.54,0,9.49,0,11.07-.79,1.58,0,2.37-1.58,2.37-4,4.75,0,15,0,15-7.9,5.54,0,10.28-1.58,15.81-4.74,8.7-4,13.44-7.91,15-11.07.79.79,2.37.79,4,.79,2.37,0,4.74-1.58,5.53-1.58,2.37-.79,7.9-6.33,14.23-6.33,1.58-3.16,4.74-3.16,4.74-7.11,7.12,0,15-7.12,21.35-7.12.79-.79,4.74-4,4.74-9.48,8.7-.79,14.23-5.54,16.6-15,.79.79,2.37.79,5.54.79l11.06-6.33c0-.79-2.37-4-2.37-6.32h1.58l1.58-.79c2.37,0,6.33,3.16,8.7,3.95.79-.79,16.6-8.69,19.76-14.23,3.16,0,6.33-5.53,10.28-5.53,5.53-7.12,23.71-22.93,26.09-25.3.79-6.32,14.23-15,16.6-18.18v-3.16l1.58-.79,3.16-1.58c0-.79,1.58-7.12,2.37-10.28l.79-1.58v-.79c0-.79,2.37-7.91,4-14.23.79-3.95,1.59-7.12,1.59-9.49,0-4.74-2.38-9.48-6.33-13.44l-8.69-7.11c-6.33-3.16-30-9.49-36.37-11.86a7.12,7.12,0,0,0-4.74-4.74H578.4c-5.53,0-9.49,0-11.86-.79l-7.9-4.75c-8.7-2.37-30.83-3.95-39.53-4.74l-33.2-6.32a17.79,17.79,0,0,0-5.53.79l-4,.79c-.79,0-2.37,0-3.16-.79a2.9,2.9,0,0,0-2.37-.79c-2.37,0-8.7,1.58-11.86,1.58-2.37,0-7.9-1.58-11.07-1.58-3.95,0-11.06,1.58-15,1.58-11.06-4-33.2-.79-52.17-2.37H359.42c-5.53-.8-11.85-3.17-19-6.33l-4.74-2.37c-.79,0-1.58-7.12-3.95-7.91,0-.79-6.33-1.58-7.12-3.95-2.37-15-2.37-23.71,1.58-30.83l15-15c4-3.95,6.33-6.32,7.12-6.32a2.9,2.9,0,0,0,2.37-.79l.79-1.58a4.76,4.76,0,0,1,4-3.17,1.7,1.7,0,0,0,1.58-1.58l3.16-3.16c.8-.79,4.75-2.37,7.12-4.74l26.09-19,9.48-4.74a12.25,12.25,0,0,0,4.75-6.32c.79-.79,2.37-.79,4.74-.79l3.95-4,1.58-.79a6,6,0,0,1,3.17-1.58c3.16-1.58,8.69-3.16,10.27-3.16.79-.79,2.37-5.53,4.75-6.32,3.16-2.38,18.18-8.7,23.71-10.28,3.95-3.95,7.91-6.33,11.07-7.12q32-20.15,83-28.45a6.68,6.68,0,0,1,4.75-1.59c2.37,0,8.69.79,11.07.79,1.58,0,2.37,0,2.37-.79C584.72,256.15,608.44,253.78,605.28,264.84Z"/></svg>