<svg width="1936" height="443" fill="none" xmlns="http://www.w3.org/2000/svg"><path fill-rule="evenodd" clip-rule="evenodd" d="M1678.36 264.662c-22.7 33.653-13.82 79.336 19.84 102.035 33.65 22.699 79.33 13.82 102.03-19.834 22.7-33.653 26.88-122.113-19.83-102.034-46.72 20.078-79.34-13.82-102.04 19.833zm181.37-195.834c-3.24 1.584-4.12-.006-5.48-.658-5.42-2.344-10.89-4.426-16.61-5.874-.7-.193-1.4-.412-2.11-.585l-2.16-.488c-1.44-.312-2.85-.695-4.31-.957l-4.35-.797c-1.44-.293-2.93-.433-4.39-.661-2.91-.477-5.9-.7-8.85-1.045-2.99-.196-5.94-.505-8.96-.595-5.99-.335-12.07-.345-18.16-.3-10.29.142-20.67.578-31.26 1.167-10.56.531-21.16 1.22-31.75 2.005-24.4 1.844-48.87 4.767-73.74 5.46-19.9.564-39.92 1.423-60.08.647-5-.2-10.01-.535-15-.835-5.01-.444-10.01-.852-15.01-1.399l-7.49-.925c-2.5-.315-4.99-.616-7.5-1.018-2.5-.368-5-.764-7.49-1.206-2.49-.414-4.98-.88-7.46-1.366-17.99-3.494-35.6-8.793-52.74-15.1-15.83-5.838-31.37-12.518-45.91-21.067-5.37-3.202-10.6-6.631-15.61-10.368-2.53-1.807-4.96-3.786-7.42-5.67-2.41-1.988-4.85-3.885-7.2-5.92-9.75-8.174-18.82-17.049-26.94-26.633-4.11-4.883-7.97-10.012-10.53-16.125l3.37 2.85 1.68 1.41 1.73 1.359 3.4 2.731c1.16.886 2.3 1.78 3.42 2.694a110.55 110.55 0 0 1 4.61 4.054 94.776 94.776 0 0 0 4.59 4.085c.76.62 1.4 1.615 2.5 1.534 3.35-.28 5.49.906 7.41 2.467 1.92 1.545 3.49 3.615 5.56 4.978a88.06 88.06 0 0 0 3.22 2.12c1.11.649 2.26 1.243 3.45 1.746 2.36 1.031 5.01 1.567 7.97 1.357 4.68-.383 7.21 3.245 10.79 4.91 2.49 1.222 5.08 2.285 7.58 3.47 2.57 1.077 5.07 2.274 7.63 3.352 5.06 2.286 10.18 4.473 15.19 6.974 14.51 7.056 29.71 13.196 45.38 18.538 8.63 2.949 16.92 8.04 26.04 9.795 9.09 1.732 18.13 4.427 27.41 5.873 1.91.319 3.81.619 5.72.904 1.91.256 3.82.461 5.74.676 3.83.407 7.66.841 11.51 1.082l8.79.59c2.93.146 5.86.23 8.8.327 5.87.236 11.74.171 17.62.206 11.75-.127 23.5-.452 35.25-.91 20.84-.727 41.54-3.452 62.47-3.33 11.98.05 23.81-3.006 35.9-.277 6.66 1.564 13.13 1.06 19.68 1.363 6.9.334 13.78 1.75 20.57 2.726 5.47.849 10.93 1.325 16.28 2.446 16.23 3.289 31.92 6.624 46.67 12.763 1.71.769 3.72.923 5.68 1.473 1.87.652 3.7 1.694 4.9 3.977" fill="#F1F2F8"/><path fill-rule="evenodd" clip-rule="evenodd" d="M1668.73 131c40.6 0 73.5-32.907 73.5-73.5s-32.9-73.5-73.5-73.5c-40.59 0-82.5 33-73.5 73.5s32.91 73.5 73.5 73.5z" fill="#02C6F1"/><path fill-rule="evenodd" clip-rule="evenodd" d="M1610.57 56l302 131.273L1816 380l-356-269 150.57-55z" fill="url(#a)"/><path fill-rule="evenodd" clip-rule="evenodd" d="M1743 443c80.08 0 145-64.919 145-145s-64.92-145-145-145-145 64.919-145 145 64.92 145 145 145z" fill="url(#b)" fill-opacity=".32"/><path fill-rule="evenodd" clip-rule="evenodd" d="M1628.88 102.338c.44-1.087.47-1.084.7.068-.63.863-2.05-.827-.7-.068zm-12.63 9.92c.49-.736 1.06-1.583-.23-1.273.32.282-.07.892-.39 1.396-.34.543-.6.961.18.706 0-.167.22-.486.44-.829zm-.71 3.629c.62-.461-.65-1.336-.31-.384-.5.976 1.55 1.542 1.01.452-.25.171-.5.317-.7-.068zm9.47 84.34c.6-.679 1.25 1.471.18 1.784-.51-.379-.36-.694-.21-1.009.12-.248.24-.496.03-.775zm-61.76-95.436c.26.357.04.668-.17.978-.24.352-.49.705-.04 1.124-.91.549-.69-1.666.21-2.102zm-1.7 16.054c-.22-.943-.4-1.662-1.9-.849.8.181 1.06.725 1.28 1.199.22.452.4.84 1 .789-.19-.362-.29-.768-.38-1.139zm-8.19 5.609c.02.59-.22 1.157-.52 1.716-1.1.63-.04-1.353.52-1.716zm92.83 8.673c1.08-.631 1.25 1.471.18 1.785-.13-.292-.1-.568-.07-.845.04-.306.08-.612-.11-.94zm-49.6 41.448l-.42.345.01.003v.002l.63.765.2-.164.18-.15c.13-.106.26-.212.38-.318l-.19-.238c-.15-.177-.29-.354-.44-.532l-.35.287zm19.33-15.586c-.08-.089-.16-.176-.15-.19 1.58-1.843.21 3.971.31.385 0-.023-.08-.11-.16-.195zm32.56-45.787c-.32-.384-1.07.071-.77.632.17-.163.38-.179.55-.192.23-.018.39-.03.22-.44zm21.4-149.864c.44-1.087.47-1.084.7.068-.63.863-2.05-.827-.7-.068zm-12.63 9.92c.49-.736 1.06-1.583-.23-1.273.32.282-.07.892-.39 1.396-.34.543-.6.96.18.706 0-.167.22-.486.44-.83zm-.71 3.63c.62-.462-.65-1.337-.31-.385-.5.976 1.55 1.542 1.01.452-.25.171-.5.317-.7-.068zm9.47 84.339c.6-.679 1.25 1.471.18 1.784-.51-.38-.36-.694-.21-1.009.12-.248.24-.496.03-.775zm-61.76-95.436c.26.357.04.668-.17.978-.24.352-.49.705-.04 1.124-.91.55-.69-1.666.21-2.102zm-1.7 16.054c-.22-.943-.4-1.662-1.9-.85.8.182 1.06.726 1.28 1.2.22.452.4.84 1 .788-.19-.36-.29-.767-.38-1.138zm-8.19 5.609c.02.59-.22 1.157-.52 1.716-1.1.63-.04-1.354.52-1.716zm92.83 8.673c1.08-.63 1.25 1.471.18 1.785-.13-.292-.1-.568-.07-.845.04-.306.08-.612-.11-.94zm-49.6 41.448l-.42.345.01.003v.002l.63.765.2-.164.18-.15c.13-.106.26-.212.38-.318l-.19-.238c-.15-.177-.29-.354-.44-.532l-.35.287zm19.33-15.586c-.08-.089-.16-.176-.15-.19 1.58-1.843.21 3.971.31.385 0-.023-.08-.11-.16-.195zm32.56-45.787c-.32-.384-1.07.071-.77.632.17-.163.38-.179.55-.192.23-.018.39-.03.22-.44z" fill="#fff"/><path fill-rule="evenodd" clip-rule="evenodd" d="M1587.85 336.673c.14.48 1.14.419 2.05.28.99-.152 1.98-.295 2.97-.439 2.71-.392 5.43-.786 8.1-1.353 1.84-.39 3.71-.658 5.59-.926 3.99-.57 7.99-1.141 11.62-2.898.4-.194 1.12-.358 1.61-.384 3.37-.177 6.56-1.047 9.74-1.917 2.02-.551 4.04-1.101 6.1-1.476 2.08-.377 3.26-.795 1.5-1.553-.95-.411.64-.94 1.67-1.191 3.31-.816 6.66-1.413 10.02-2.011.7-.126 1.41-.251 2.11-.379l3.34-.601.01-.001v-.001h.01c7.18-1.288 14.37-2.576 21.43-4.485 2.7-.732 5.47-1.2 8.25-1.659 10.69-1.769 21.39-3.558 32.08-5.378 13.66-2.324 27.32-4.661 40.98-7.05 2.57-.45 5.14-.996 7.71-1.542 1.18-.252 2.37-.504 3.55-.747-.14-.376-.82-.255-1.44-.146-.09.017-.19.033-.28.048l-7.94 1.282c-8.98 1.447-17.96 2.895-26.94 4.38-6.33 1.049-12.67 2.116-19.01 3.184-8.8 1.482-17.59 2.964-26.39 4.394-10.76 1.748-21.51 3.397-32.26 5.046l-.02.003v.001h-.01v.001l-5.92.909c-1.64.253-3.39.438-4.86.394-1.78-.056-1.16-.32-.43-.63.48-.206 1.02-.432.91-.63-3.43-.139-7.16.503-10.87 1.143-1.34.23-2.67.459-3.98.652-5.75.842-11.41 2.216-15.64 4.972-.35.225-.96.455-1.47.564-3.48.738-6.22 1.989-8.96 3.243-1.1.498-2.19.996-3.32 1.462-1.39.566-2.64 1.2-3.88 1.833-1.96.992-3.91 1.982-6.37 2.71-.68.201-1.46.521-1.36.896zm85.86-37.33v-.001c3.23-.429 6.47-.858 9.73-1.394 20.86-3.427 41.72-6.861 62.58-10.366 3.23-.542 6.45-1.113 9.67-1.685 4.53-.803 9.06-1.605 13.6-2.326 2.75-.438 5.51-.868 8.27-1.297 10.71-1.665 21.42-3.332 32.11-5.549 4.2-.872 8.35-1.355 12.51-1.838 3.36-.392 6.72-.783 10.11-1.381.88-.155 1.76-.206 2.67-.258 1.06-.061 2.14-.124 3.28-.36 1.53-.315 3.12-.29 3.56.341.68.994 2.48 1.262 5.38 1.166-1.32.533-2.63.889-3.86 1.226-1.69.462-3.24.885-4.5 1.672 6.52-.809 12.95-2.021 19.3-3.809 2.49-.699 5.07-1.195 7.65-1.692 4.01-.771 8.02-1.543 11.69-3.076-2.71.149-5.37.692-8.02 1.233-1.5.307-3 .613-4.51.847 2.77-.739 5.56-1.362 8.35-1.985 2.87-.64 5.73-1.28 8.56-2.042 3.22-.867 6.64-1.283 9.87-1.475.65-.039 1.24.019 1.83.077.84.082 1.7.166 2.73-.03 2.34-.439 4.72-.872 5.09.397.26.89-1.2 1.36-2.64 1.824-.5.161-1 .321-1.42.497-.11.046-.23.093-.35.141-.9.363-1.93.776-.97 1.106 2.06.707.43 1.142-1.42 1.573-3.26.757-6.51 1.508-9.77 2.258-3.87.892-7.74 1.783-11.6 2.686-.22.051-.44.099-.67.148-1.28.273-2.69.576-3.83 1.561 1.85-.379 3.64-.749 5.39-1.11 3.84-.795 7.47-1.545 11.11-2.256 1.85-.363 3.68-.877 5.51-1.391 3.25-.912 6.49-1.821 9.85-1.875-.6 2.264-4.06 3.631-7.54 5.005-1.38.548-2.78 1.098-3.99 1.707 1.27.148 2.19-.154 3.03-.428.19-.061.37-.12.55-.173 4-1.164 7.92-2.291 11.28-1.211.19.061.56.018.94-.026.21-.024.41-.048.6-.055 5.42-.214 6.14.829 2.32 3.306-.22.147-.36.316-.51.495-.07.088-.15.178-.23.269.17.03.33.072.48.112.31.08.58.152.87.109 7.38-1.099 14.66-2.756 21.94-4.41.58-.132 1.16-.264 1.75-.396 2.24-.51 2.97-1.462 2.5-2.272l-.18-.313v-.001c-.76-1.335-1.53-2.676-4.18-3.359-1.32-.34-2.72-.703-3.54-1.27-3.64-2.518-8.46-4.445-13.42-6.343-2.22-.845-4.33-.918-7.55-.016-1.16.325-2.34.611-3.13.028 6.61-1.143 7.98-2.023 6.74-4.123-.36-.616-1.17-.988-2.52-1.109-1.78-.16-3.65-.378-4.41-1.064-1.29-1.163-4.1-1.236-6.66-1.262-2.38-.022-3.88-.443-5.5-.901v-.001h-.01a42.95 42.95 0 0 0-.8-.222c-.58-.159-1.15-.338-1.72-.519-2.4-.757-4.89-1.542-8.89-.947-1.78.266-3.55.454-5.31.642-1.72.183-3.42.365-5.14.618-1.04.153-2.08.3-3.13.447-4.86.688-9.77 1.381-14.52 2.678-17.72 4.843-35.76 8.229-53.88 11.441l-.84.149c-4.26.753-8.75 1.545-12.55 2.849-2.85.978-5.49 1.707-8.38 2.207-5.91 1.022-11.82 1.99-17.73 2.954-5.19.846-10.36 1.875-15.52 2.902-4.19.834-8.37 1.666-12.56 2.4-10.52 1.845-20.94 4.057-31.35 6.269l-.01.001c-3.87.822-7.74 1.645-11.62 2.449-1.65.34-2.28.807-1.74 1.447.09.107.26.189.42.272.34.165.67.329.36.675-.66.428-1.55.691-2.5.972-.9.267-1.86.552-2.73 1.011 2.07-.03 3.97-.253 5.81-.468.86-.101 1.7-.2 2.54-.277-9.95 1.649-19.52 3.8-27.9 7.768 1.08.215 2.44-.006 3.77-.222l.2-.033.18-.029c3.03-.487 6.05-.888 9.07-1.289zm-6.79 13.682v.001h-.01c-2.58.434-5.16.867-7.74 1.311-1.29.222-2.58.434-3.87.646-5.06.832-10.09 1.659-15.21 3.087-4.74 1.321-10.1 2.223-15.48 2.689 2.1-2.506 5.55-3.139 9.44-3.825 4.04-.713 8.08-1.353 12.12-1.993 6.44-1.019 12.88-2.038 19.32-3.353 5.63-1.152 11.28-1.74 17.19-2.239-.96 1.169-2.67 1.451-4.19 1.701-.19.031-.37.062-.56.095-3.67.646-7.34 1.263-11.01 1.879v.001zm42.99-6.988c2.17-.341 4.34-.759 6.5-1.179 2.63-.508 5.25-1.016 7.9-1.387l.28-.039c4.88-.684 9.83-1.378 14.66-2.424 1.64-.356 3.31-.576 4.98-.797 3.12-.411 6.24-.823 9.17-2.114-19.4 2.315-38.77 5.699-58.16 9.65 4.62-.128 9.35-.872 14.06-1.614l.61-.096zm25.56-14.892c5.76-.906 11.53-1.812 17.29-2.801-14.08 2.962-28.18 5.159-42.26 7.354v.001c-2.96.461-5.92.922-8.88 1.391 11.29-2.399 22.57-4.172 33.85-5.945zm76.53-13.339c-5.27.513-10.51 1.597-15.65 3.162 4.91-.224 9.68-1.528 14.49-2.844l.57-.158c.2-.053.4-.107.59-.16zm20.13 7.299c-5.18.478-10 1.185-15.09 2.642 3.45.249 8.98-.733 15.09-2.642z" fill="#B1EFFE"/><path fill-rule="evenodd" clip-rule="evenodd" d="M1759.99 94.307c-.18-.467-1.17-.318-2.06-.1-.97.237-1.95.466-2.92.695-2.67.628-5.34 1.257-7.95 2.054-1.8.55-3.64.98-5.49 1.41-3.93.916-7.86 1.833-11.32 3.899-.39.229-1.09.455-1.57.523-3.35.471-6.45 1.615-9.54 2.76-1.97.724-3.93 1.448-5.95 2.001-2.03.557-3.18 1.076-1.36 1.678.99.326-.55.992-1.55 1.332-3.23 1.101-6.52 1.988-9.81 2.877l-2.07.561-3.28.891-.01.001v.002c-7.05 1.908-14.09 3.818-20.96 6.335-2.63.965-5.35 1.672-8.08 2.372-10.5 2.694-20.99 5.408-31.49 8.153-13.4 3.506-26.81 7.025-40.2 10.595-2.53.672-5.04 1.44-7.55 2.209-1.16.354-2.32.708-3.48 1.053.18.362.84.183 1.45.02l.27-.072c2.6-.657 5.2-1.313 7.81-1.969 8.81-2.225 17.63-4.449 26.45-6.712a6395.65 6395.65 0 0 0 18.66-4.828c8.63-2.243 17.27-4.486 25.91-6.678 10.56-2.678 21.13-5.258 31.69-7.838l.02-.005.01-.001v-.001l5.83-1.423c1.6-.394 3.33-.731 4.8-.815 1.78-.1 1.18.218.48.59-.46.248-.97.519-.85.707 3.43-.16 7.09-1.125 10.73-2.086 1.31-.346 2.62-.69 3.91-.997 5.65-1.339 11.17-3.202 15.15-6.316.32-.255.91-.537 1.41-.69 3.4-1.038 6.02-2.523 8.65-4.011v-.001c1.04-.59 2.08-1.182 3.18-1.746 1.33-.684 2.51-1.424 3.7-2.163 1.87-1.159 3.73-2.316 6.11-3.255.66-.26 1.41-.647 1.27-1.01zm-82.28 44.672c-3.18.709-6.36 1.419-9.56 2.236-20.49 5.233-40.97 10.472-61.45 15.782-3.16.821-6.32 1.671-9.49 2.521-4.44 1.194-8.88 2.389-13.33 3.502-2.71.677-5.42 1.345-8.13 2.013-10.52 2.592-21.05 5.186-31.51 8.326-4.11 1.236-8.2 2.079-12.29 2.922h-.01c-3.31.683-6.62 1.365-9.95 2.257-.86.231-1.74.359-2.63.489-1.05.154-2.13.311-3.25.645-1.49.447-3.08.561-3.57-.03-.77-.93-2.58-1.041-5.46-.692 1.27-.646 2.54-1.115 3.74-1.558 1.64-.607 3.15-1.164 4.33-2.057-6.42 1.374-12.71 3.141-18.89 5.476-2.42.913-4.94 1.632-7.47 2.352-3.93 1.118-7.86 2.237-11.38 4.084 2.69-.385 5.29-1.158 7.89-1.928 1.46-.437 2.93-.872 4.41-1.237-2.69.977-5.42 1.842-8.15 2.706-2.8.887-5.59 1.774-8.34 2.78-3.13 1.144-6.5 1.856-9.71 2.33-.64.095-1.23.089-1.83.082-.85-.008-1.7-.017-2.72.268-2.29.641-4.62 1.28-5.1.048-.33-.864 1.08-1.46 2.48-2.048.48-.203.96-.406 1.36-.618.11-.055.22-.113.34-.171.86-.44 1.85-.941.87-1.186-2.11-.525-.53-1.1 1.28-1.691 3.18-1.039 6.35-2.07 9.53-3.101v-.001c3.78-1.224 7.55-2.449 11.32-3.686.22-.07.44-.137.66-.206 1.25-.383 2.63-.807 3.68-1.889-1.82.54-3.57 1.064-5.27 1.575v.001c-3.77 1.127-7.31 2.19-10.87 3.215-1.82.524-3.6 1.196-5.38 1.866-3.15 1.193-6.3 2.381-9.64 2.727.39-2.308 3.72-3.97 7.07-5.642 1.33-.668 2.67-1.337 3.83-2.049-1.28-.037-2.17.344-2.98.69-.18.077-.36.152-.54.22-3.87 1.508-7.69 2.973-11.12 2.19-.2-.045-.57.031-.94.107-.2.042-.41.085-.59.108-5.39.686-6.2-.29-2.61-3.091.22-.167.34-.347.47-.538.06-.093.13-.189.21-.288a5.964 5.964 0 0 1-.49-.069c-.31-.053-.59-.101-.87-.034-7.26 1.739-14.37 4.024-21.48 6.305-.57.183-1.13.366-1.7.548-2.19.703-2.84 1.715-2.3 2.481l.21.296v.001c.87 1.263 1.75 2.533 4.45 2.982 1.35.224 2.78.463 3.64.957 3.84 2.191 8.82 3.691 13.92 5.149 2.28.649 4.39.537 7.53-.642 1.13-.425 2.28-.813 3.11-.301-6.49 1.715-7.77 2.711-6.36 4.695.42.582 1.26.882 2.61.885 1.79.004 3.67.058 4.49.676 1.38 1.046 4.19.874 6.75.676 2.37-.185 3.89.104 5.55.419h.01l.81.152c.6.107 1.18.236 1.76.366 2.46.545 5.01 1.11 8.94.169 1.76-.42 3.5-.762 5.24-1.102v-.001c1.69-.331 3.38-.662 5.07-1.063 1.02-.243 2.04-.48 3.07-.718 4.79-1.109 9.62-2.228 14.23-3.933 17.24-6.37 34.91-11.315 52.68-16.094.27-.073.55-.147.82-.221 4.19-1.122 8.59-2.302 12.26-3.933 2.76-1.222 5.32-2.178 8.16-2.928 5.79-1.534 11.6-3.013 17.4-4.488 5.1-1.295 10.16-2.771 15.21-4.244 4.1-1.196 8.2-2.39 12.3-3.485 10.32-2.755 20.51-5.867 30.69-8.979 3.79-1.157 7.58-2.314 11.37-3.453 1.61-.483 2.2-1.003 1.61-1.594-.1-.098-.27-.166-.45-.233-.35-.136-.69-.27-.41-.642.62-.484 1.48-.823 2.4-1.186.88-.345 1.81-.712 2.64-1.245-2.06.21-3.94.598-5.75.972-.85.175-1.68.348-2.51.498 9.77-2.511 19.11-5.487 27.12-10.17-1.1-.12-2.43.218-3.73.549l-.2.05-.18.045c-2.98.75-5.95 1.412-8.93 2.076zm5.58-14.223v-.001c2.54-.657 5.07-1.314 7.6-1.982 1.27-.334 2.54-.657 3.8-.98 4.97-1.269 9.91-2.532 14.88-4.401 4.61-1.729 9.87-3.095 15.19-4.028-1.87 2.679-5.26 3.611-9.06 4.633-3.97 1.063-7.94 2.053-11.91 3.043-6.32 1.576-12.65 3.152-18.95 5.023-5.51 1.638-11.09 2.716-16.94 3.729.86-1.249 2.54-1.679 4.03-2.059l.55-.144c3.6-.963 7.2-1.898 10.8-2.832l.01-.001zm-42.22 10.709c-2.13.528-4.25 1.134-6.38 1.741-2.57.734-5.14 1.469-7.74 2.07l-.28.063c-4.8 1.106-9.67 2.229-14.39 3.692-1.6.498-3.25.863-4.9 1.229-3.07.681-6.14 1.363-8.94 2.905 19.12-3.997 38.12-9.056 57.09-14.682-4.59.529-9.23 1.683-13.86 2.832l-.6.15zm-24.16 17.062c-5.67 1.405-11.33 2.81-16.98 4.298 13.76-4.178 27.61-7.596 41.45-11.009v-.001c2.91-.718 5.82-1.436 8.73-2.16-11.04 3.373-22.12 6.123-33.2 8.872zm-75.08 19.959c5.2-.971 10.32-2.507 15.32-4.515-4.88.652-9.51 2.366-14.19 4.097-.19.069-.37.138-.56.207l-.57.211zm-20.7-5.517c5.13-.929 9.86-2.052 14.81-3.948-3.45.053-8.88 1.513-14.81 3.948z" fill="#fff"/><path fill-rule="evenodd" clip-rule="evenodd" d="M1729.23 266.733c4.67 1.591 9.6 2.569 14.12 4.642-7.63-.613-15.1-3.933-22.65-5.504-7.56-1.572-14.88-3.795-22.08-6.5 3-.26 6.3 1.113 10.25 1.485-3.06-1.488-4.77-2.754-4.93-4.19-.11-.91-1.74-1.804-3.5-2.306-2.42-.69-4.33-1.911-6.5-2.599-8.59-2.726-16.45-6.468-25.2-8.95-15.45-4.386-30.47-9.72-45.58-14.805-8.72-2.934-17.54-5.601-26.29-8.456-23.53-7.683-47.02-15.44-70.51-23.204-7.1-2.347-13.89-5.065-20.94-7.427-1.62-.543-3.35-1.068-4.45-1.967 10.86.36 21.94 3.302 33.16 6.992-2.87-1.19-5.89-2.163-9.06-3.777 2.37-.028 4.71.933 6.5.748.78-.294-.18-.951-.28-1.435-.2-.973.7-1.128 2.6-.59 16.45 4.672 32.96 9.029 49.3 14.231 10.58 3.368 21.42 6.208 31.99 9.716 6.65 2.208 13.3 4.41 19.98 6.555 3.27 1.048 6.4 1.717 9.89 2.234 4.96.735 10.41 2.519 15.52 4.135 20.52 6.491 41.06 12.754 62.08 17.295 6.83 1.476 13.43 4.033 19.99 6.326 3.89 1.358 7.58 3.009 11.52 4.38 5.54 1.925 7.51 4.837 10.19 7.366 1.74 1.647 3.06 3.109 5.9 4.648 2.64 1.428 5.52 3.047 6.21 4.988.41 1.149 2.22 2.405 3.98 3.551 1.33.869 1.97 1.706 2 2.561.13 2.915-1.77 3.104-9.25.702.5 1.051 1.88 1.392 3.26 1.682 3.83.802 5.98 2.036 7.81 4.149 4.1 4.736 8.03 9.431 10.41 14.101.54 1.053 1.79 2.208 2.97 3.293 2.56 2.346 2.42 4.314 2.5 6.298.04 1.122-1.24 1.736-3.84 1.05-9.12-2.4-18.27-4.744-27.17-7.841-.48-.167-.8-.595-1.28-.975.43-.152.72-.358 1.19-.405 5.32-.55 5.15-2.055-.59-4.796-.55-.261-1.39-.493-1.64-.758-2.88-2.987-7.57-3.932-12.34-4.879-1.19-.236-2.54-.279-4.04-1.32 5.58.056 13.02 2.078 15.63-.841-5.49-2.784-11.81-3.178-17.71-4.927-6.04-1.79-12.11-3.485-18.93-5.442 2.03-.502 3.94.218 5.6.642 8.28 2.121 16.56 4.295 24.84 6.426 2.16.554 4.08.982 2.34-.897-.92-.993.86-.704 2.05-.608 2.08.168 5.18 1.213 5.48-.251.32-1.554-2.38-2.394-5.05-3.205-2-.611-3.02-1.788-4.69-2.546-3.46-1.567-7.23-2.995-11.04-3.831-6.61-1.451-13.09-3.49-19.72-4.964m-116.65-20.739c-4.32-1.238-8.67-2.372-12.93-3.728-15.45-4.928-30.88-9.913-46.3-14.912a7720.916 7720.916 0 0 1-36.18-11.824c-3.13-1.031-6.26-2.048-9.46-2.75-9.66-2.114-19.04-5.204-28.46-8.142-4.61-1.437-9.19-2.952-13.88-4.094-1.2-.293-3.14-.601-2.38.358 1.41 1.772-.05 1.568-2.41.834-6.04-1.883-12.41-2.349-18.26-5.053-.53-.241-1.36-.459-1.89-.472-6.94-.171-13.3-3.503-19.91-5.343-4.21-1.17-8.32-2.733-12.45-4.148-1.02-.349-2.09-.833-1.97-1.419.1-.459 1.08-.37 1.9-.212 4.82.93 8.63.373 13.1.765 5.05.444 9.71.151 15.31 1.712.59.166 1.35.251 1.83.2 5.89-.622 12.52 1.014 18.93 3.26 5.55 1.948 11.64 3.466 16.37 6.218-.01.666-4.22-.645-1.19 1.077 1.49.852 3.41 1.613 5.24 2.239 14.26 4.884 28.52 9.796 42.85 14.561 17.02 5.659 34.13 11.157 51.18 16.771 13.1 4.313 26.16 8.694 39.23 13.055.76.253 1.8.493 1.73 1.047m-159.67-57.535c3.55-1.519 7.47-.306 11.87 1.088 11.87 3.764 23.46 8.052 35.5 11.509 6.46 1.857 12.64 4.321 19.04 7.026-1.85.809-4.07-.103-5.91-.688-7.08-2.248-14.12-4.589-21.19-6.865-7.19-2.319-14.17-4.855-21.8-6.463-5.64-1.185-11.69-3.16-17.51-5.607m80.29 24.789c22.25 6.401 44.17 13.392 65.53 21.541-5.75-.346-10.82-3.154-16.26-4.643-5.67-1.553-11.29-3.572-16.82-5.549-5.37-1.921-10.94-3.323-16.32-5.144-5.51-1.866-11.06-3.712-16.13-6.205" fill="#4FD7F5"/><path fill-rule="evenodd" clip-rule="evenodd" d="M1545.66 205.382c19.66 5.474 38.51 12.457 57.77 18.666-19.62-5.505-38.65-12.219-57.77-18.666" fill="#4FD7F5"/><path fill-rule="evenodd" clip-rule="evenodd" d="M1670.57 245.239c-6.18-1.34-12.32-2.55-17.95-5.197 6.19 1.149 12.21 2.859 17.95 5.197m-.25 13.349c6.08 1.234 11.45 3.115 17.08 5.444-7.37-1.31-13.65-3.293-17.08-5.444" fill="#fff"/><path fill-rule="evenodd" clip-rule="evenodd" d="M1533.07 324.444c8.32-8.541 18.89-14.181 29.27-19.959 2.69-1.496 5.63-2.641 8.29-4.158 8.08-4.595 15.95-6.773 24.03-5.693-16.91 12.43-36.16 20.207-54.97 28.688-1.78.802-3.66 2.053-6.62 1.122" fill="#EBAE55"/><path fill-rule="evenodd" clip-rule="evenodd" d="M1591.47 262.991c5.7.336 10.88 1.709 16.03 3.115 2.16.591 5.22 1.234 4.58 3.414-.41 1.356-2.8 1.497-4.78.794-5.31-1.888-11.17-3.01-15.83-7.323" fill="#AE9BF1"/><path fill-rule="evenodd" clip-rule="evenodd" d="M1508.96 267.803c1.17-1.949 2.74-3.23 4.25-4.371 3.48-2.616 6.63-5.585 9.83-8.505 1.56-1.425 3.21-2.274 5.36-2.18.07 1.898-1.13 3.402-2.44 4.864-3.42 3.813-6.84 7.626-10.29 11.419-1.18 1.296-2.4 2.591-4.11 3.139-1.36.435-2.42 1.351-3.44 2.324-2.64 2.504-5.85 4.225-8.59 6.587-.25.221-.61.311-1.13-.129 4.49-5.099 9.56-9.682 14.83-14.667-1.8-.279-2.54 1.613-4.27 1.519" fill="#7280FF"/><path fill-rule="evenodd" clip-rule="evenodd" d="M1575.12 384.777c-3.55-1.742-5.96-4.52-8.35-7.198-4.98-5.567-9.83-11.252-14.72-16.891-.37-.42-.85-.817-.66-1.646 1.52.271 2.45 1.569 3.29 2.66 3.44 4.475 7.68 8.167 11.57 12.199.97 1.005 1.97 2.046 3.32 2.432 2.01.579 2.26 2.905 3.8 3.897 1.83 1.178 1.68 2.74 1.75 4.547" fill="#FF5F8E" fill-opacity=".48"/><path fill-rule="evenodd" clip-rule="evenodd" d="M1895 134.679c10 5.138 10-4.601 10-10.275 0-5.675-4.48-10.276-10-10.276s-10 4.601-10 10.276c0 5.674 0 5.137 10 10.275z" fill="#F1F2F8"/><defs><linearGradient id="a" x1="1460" y1="56" x2="1460" y2="380" gradientUnits="userSpaceOnUse"><stop stop-color="#3F52FF"/><stop offset="1" stop-color="#4FD7F5"/></linearGradient><linearGradient id="b" x1="1646.73" y1="104.611" x2="1549.96" y2="297.143" gradientUnits="userSpaceOnUse"><stop stop-color="#fff"/><stop offset="1" stop-color="#fff" stop-opacity=".01"/></linearGradient></defs></svg>