<svg id="Layer_1" data-name="Layer 1" xmlns="http://www.w3.org/2000/svg" viewBox="0 0 1000 1000"><defs><style>.cls-1{fill:#40bee1;}.cls-2{fill:#4459a5;}</style></defs><title>sid text 1</title><path class="cls-1" d="M861.18,389.94c1.94,2.06,1.35,1.43,1.65,1.74C859.35,388,861.26,390,861.18,389.94Z"/><polygon class="cls-1" points="826.29 354.09 826.96 354.67 821.66 349.54 826.29 354.09"/><path class="cls-1" d="M793.63,320.6c2.66,3.59,11.91,12,17.59,18.16l.88,1.06,2.9,2.42C807.91,335,798.49,325.82,793.63,320.6Z"/><path class="cls-1" d="M777.37,301.58c.86,1.32-3.91-3.72,4,4.27l-.68-.81C780,304.3,779,303.29,777.37,301.58Z"/><path class="cls-1" d="M780.65,305c3.42,3.54-2-2.51,0,0Z"/><path class="cls-1" d="M764.79,288.72l4.7,4.48c-.8-1.11-4.75-5.33-3.17-3.88C761.62,284.61,762.41,285.76,764.79,288.72Z"/><path class="cls-1" d="M760.07,284.74l2.43,2.33A12.25,12.25,0,0,0,760.07,284.74Z"/><path class="cls-1" d="M767.63,292l-5.13-4.95a5.31,5.31,0,0,0,2.34,2.29C764.25,289.12,765.41,290,767.63,292Z"/><path class="cls-1" d="M770.34,295c2.4,2.75,5.6,6.2.87,1.72C779.93,305.58,779,303.9,770.34,295Z"/><path class="cls-1" d="M791.48,319.37l3.29,3.59,3.11,2.84C796.33,324.38,791.41,319,791.48,319.37Z"/><path class="cls-1" d="M737.18,259.17c-.45-.13,1.08,2,1.21,2.56L741.9,265C740.3,263.12,737.16,259.65,737.18,259.17Z"/><path class="cls-1" d="M738.39,261.73l-5.26-4.88C737.55,261.48,738.5,262.2,738.39,261.73Z"/><polygon class="cls-1" points="758.55 284.63 767.25 292.59 756.96 283.01 758.55 284.63"/><polygon class="cls-1" points="718.24 239.38 721.47 241.9 715.83 237.3 718.24 239.38"/><path class="cls-1" d="M705.58,226.34c2.45,1.81-2.22-3.6.2-1.53a128.51,128.51,0,0,0-9.64-8.67A101.06,101.06,0,0,1,705.58,226.34Z"/><path class="cls-1" d="M691.28,212c1.5,1.36,3.11,2.69,4.86,4.15C694.57,214.69,693,213.3,691.28,212Z"/><path class="cls-1" d="M724.71,248a21.61,21.61,0,0,0-3.42-4.56l1.46,2.53Z"/><path class="cls-1" d="M722.81,246l-.06-.08-4.21-4.41Z"/><path class="cls-1" d="M725.2,248.51l-.49-.52A1.12,1.12,0,0,0,725.2,248.51Z"/><path class="cls-1" d="M745.79,270.81c-3.17-2.79-9.6-8.79-4-2.35C744.19,270.32,741,266.63,745.79,270.81Z"/><path class="cls-1" d="M727,251.62l5.21,5.56c0-.23-.76-1.39.83,0Z"/><polygon class="cls-1" points="724.28 249.1 727.04 251.62 725.11 249.56 724.28 249.1"/><path class="cls-1" d="M699.82,221.91c-2.53-2.12-5.06-4.68-7.93-7.56,2.92,3.24,6,6.53,9,9.59C701.48,224.2,703.09,225.24,699.82,221.91Z"/><path class="cls-1" d="M710.94,233.69l-.54-.5C710.67,233.56,710.91,233.83,710.94,233.69Z"/><path class="cls-1" d="M664,185.66l.33.58a.72.72,0,0,1,.21,0Z"/><path class="cls-1" d="M701.29,224.57a38.14,38.14,0,0,0,5.14,4.89c-1.76-1.7-3.6-3.53-5.55-5.52C700.61,223.82,700.53,223.84,701.29,224.57Z"/><path class="cls-1" d="M683.25,204.24c1.06,1.35,2.3,2.84,3.62,4.4C685.89,207.26,683.83,204.52,683.25,204.24Z"/><path class="cls-1" d="M709.78,232.25l.37.33C709.51,231.7,709.55,231.85,709.78,232.25Z"/><path class="cls-1" d="M709.78,232.25c-1.25-1.13-2.3-1.95-3.35-2.79,1.44,1.39,2.78,2.66,4,3.73C710.16,232.86,709.93,232.51,709.78,232.25Z"/><path class="cls-1" d="M651.24,181.24c1-.21,7.67,5.33,12.28,11.23,5.62,4.73,4.14-.55.79-6.23-.42.09-.66.33-6.29-4.69,1.51,2.22,11,12.67,6,8.69-7.33-6.78-5.54-6-8.62-9.79,2.14,3.68-10.05-7.89-9.68-5.19l6.59,5.77C652.21,181.33,649.68,179.37,651.24,181.24Z"/><path class="cls-1" d="M674.26,196.57l2.23,2.14a97.37,97.37,0,0,1-6.68-8.46c-3.87-3.42-4.84-4-5.29-4l10.56,11Z"/><path class="cls-1" d="M686.2,208.68c-2.28-1.15-7.76-6.19-5.22-2.29,6.42,6.44,5,4,9,7.67-10.41-10.34,3.26,2.69-3.8-5.23,2.11,2,3.95,3.79,5.68,5.52-1.77-2-3.46-3.88-5-5.71l.2.28,0,0h0c.36.53.46.73,0,.17a2.08,2.08,0,0,1-.22-.21,1.57,1.57,0,0,1-.69-.25c-2.84-3.17-.31-.63.69.25.06,0,.17.07.21,0l0,0-10.58-10.21C678.58,201,681.31,203.8,686.2,208.68Z"/><path class="cls-1" d="M735.3,263.85c-.28-.36-.23-.38-.23-.44C734.35,262.79,734.05,262.58,735.3,263.85Z"/><path class="cls-1" d="M731.31,259.29a30.52,30.52,0,0,1,4,3.65c2,2.28-.23.21-.27.47,1.61,1.36,5.49,4.88,1.09,0l-.8-.68c-4-4.35-8.74-10.37-8-9.7A32.9,32.9,0,0,0,731.31,259.29Z"/><path class="cls-1" d="M708.19,234l-8.86-8.44,3.9,4.9.07-.5C708.08,235,707.37,233.55,708.19,234Z"/><polygon class="cls-1" points="663.32 184.33 665.14 184.81 659.24 180.71 663.32 184.33"/><polygon class="cls-1" points="652.15 173.01 653.19 172.81 649.88 170.18 652.15 173.01"/><path class="cls-1" d="M267.22,508.62l2.84,2.24A29.64,29.64,0,0,0,267.22,508.62Z"/><path class="cls-1" d="M248.93,490.1l-1,.09C249.08,490.74,249.65,490.87,248.93,490.1Z"/><path class="cls-1" d="M365.58,150.4c-4.67,2.73-10.33,5.34-8.72,6.06h2.27A39.42,39.42,0,0,1,365.58,150.4Z"/><path class="cls-1" d="M183.19,346.23l1.45-.71c.48-1.32.93-2.56,1.34-3.67Z"/><path class="cls-1" d="M185.64,353.91,180,358A55.27,55.27,0,0,0,185.64,353.91Z"/><path class="cls-1" d="M368.55,608.32l4.1,1.83C368,605.49,369.48,608.12,368.55,608.32Z"/><path class="cls-1" d="M538,56.86c-2.81-3.58-5.17-6.31-7.34-8.61C533.94,52.68,536.23,56.59,538,56.86Z"/><path class="cls-1" d="M247.25,514.1c1.78,1.33,2.69,1.75,2.91,1.44C248.35,514.14,247.21,513.47,247.25,514.1Z"/><path class="cls-1" d="M521.52,38.93c.47.67,1,1.27,1.45,1.93,2.48,2.2,4.93,4.45,7.69,7.39A38.59,38.59,0,0,0,521.52,38.93Z"/><path class="cls-1" d="M723,526l.9-.75C723.91,525.13,723.53,525.48,723,526Z"/><path class="cls-1" d="M832.51,423.13l-4.27,4.45C829,426.79,830.31,425.45,832.51,423.13Z"/><path class="cls-1" d="M607.84,126.85c2.4,2.37.46.3,0,0Z"/><path class="cls-1" d="M616.28,141.61c-.59-.43-1.08-.71-1.32-.59A2.55,2.55,0,0,1,616.28,141.61Z"/><path class="cls-1" d="M492.19,37l-.21.2C492.85,36.67,492.7,36.75,492.19,37Z"/><path class="cls-1" d="M611,130.84c-.78-1-1.72-2.12-2.77-3.32C608.67,128.08,609.51,129.1,611,130.84Z"/><path class="cls-1" d="M610.92,130l2,2.18C613.32,132.35,613.14,132,610.92,130Z"/><path class="cls-1" d="M604.51,123.53c1.36,1.37,2.58,2.69,3.74,4-.41-.53-.56-.77-.41-.67Z"/><path class="cls-1" d="M527.64,721.33c.18-.12.39-.29.6-.42C530.28,718.14,529.28,719.25,527.64,721.33Z"/><path class="cls-1" d="M315.4,224.34c.1-.13.13-.22.21-.33l-.39.31Z"/><path class="cls-1" d="M307.74,233.8c2.17-5.12,4.42-7,7.48-9.48l-6.21-.54Z"/><path class="cls-1" d="M311.49,552.49l-4.94-7.1c9,5.55,13.58,11.45,9.45,4.28-4.51,2.81-23.64-23.11-28.18-20.25l-3.17-4.76c1.1,1.18,1.5,1.14,2.58,2.3-5.9-9.52-8.4-3.05-17.78-13.54-3.17-3.76-5-6.72-2.23-4.8l-8.63-6.81c-2.17-2.32-1-2.42,1.19-.11l-12-11.49.19,0c-2.26-1.09-7-4-9.22-5.46-2.45-3.54,1.9,1.1,1.6-.14L232.89,479c-1.67-3.64,4.68.82,9,5.47-2.3-9.87-6.35-4.47-17.25-19.83l6.62,5.68c-1.8-6.13-7.37-10.16-13-18.47.94,2.36,10.51,17.34,2.51,11.2a33.72,33.72,0,0,0-8.77-8.1c1.32-1.39-2.73-4.79-7.47-9.38l2.12-1.48c-5.55-4.53-6.07-3.21-9.84-5.37-5.43-5.8-5.2-8.36-5.34-10.86-8.7-9.3,4,8.45-7-1.87-6.79-8.17-12.77-12.69-22.8-20.56-4.61-5.86,2-.19.66-2.58l-6.08-3.2c-1.1-1.18-.29-1.25.12-1.29a6.36,6.36,0,0,0-2.32-1.27,1.43,1.43,0,0,0-.65,0l-.47.2c-.65.23-1.45.31-3.75-1.47a3.08,3.08,0,0,1-2.47-1.63,10.89,10.89,0,0,1-.92-1.61c-.13-.28-.26-.57-.37-.85.4-.29.89-.57,1.33-.85a51.19,51.19,0,0,0,4.73-3.12,9.13,9.13,0,0,0,1.63-1.66,21.22,21.22,0,0,0,2.41-3.49c2.39-1.36.2,2,1.47,2.14,9-11.93,7.87-10,14.45-20.6L180,358c-6.72,4-1.47-4.45,3.22-11.77-2.56,1.25-4.76,2.3-6.12,3.12l8.62-10.55c1.45-.86,1.1.72.29,3.05.5-.81,1-1.57,1.32-2.19,4.09-2.76,3.35,0,1.91,3.52-1.52.81-3.06,1.59-4.57,2.34-1.27,3.46-2.27,6.89-.72,7.45a22.25,22.25,0,0,1,2.66-3.63c-.33.92-.45,1.58,0,1.47s1.12-1.53,2.22-3.56l4.19-.17-.27-1.33,13.78-11.29c6.94-11,11.78-21.77,25.19-36.83-2.07,5,1.63,3.15,3.16,5.07-5.71,2.06-10.23,11.82-18,18.83,4-3.66,4-2,3.33-.72L231.69,306c1.12,1.71,3.85-1.74,7.87-4.6-5.39-.19,7.93-11.68,12.43-17.9,1.26.6.93,2.84-5.81,9.16,9.29-5.13,6-12.59,14.88-17.9-1.57,1.63-2.58,2.34-2.73,3.45,2.89-4.56,12.65-13,11.31-10.07l-1.57,1.61c10.9-10.28,32.19-32.29,31.46-36.18.4.2,1.4,4.18,1.23,5.29l11.13-26.65c.31,3.63,11.37,1.91,3.72,11.83a57.73,57.73,0,0,0,10.84-11.08c-2,1.45-7.12,1.46-4.95-1.07,8.62-4.29,5.64-3.32,15.42-9.45-3,2.17-3.18-3.76,1-7.73-.18,1.09,3.34,2.66,2.17,4.47L347.22,186c-2,3.08,2.07,3,5.17,1.53-1.63.48,8.78-8.75,11.18-11.76l-5,3.64c11.84-11.06,7.15-15.47,18.66-26.68-.77,2,.3,7.1,6.42,1.66,1.15-4.15,4.6-18.85,13.59-30l2.76-1.09,6.79-8.63c-2.67,6.93-11.53,25-17,34.24,4.93-3.64,2.17-.21,8.48-6.74,3-1.49-2.29,4.71-4.11,6.66l15.34-14.54c-2.36-1,9.66-13.18,7.7-14l-14.4,18c-2.36-1,4.54-14.23,15.41-24.52,3.35-2,1,5,1.75,5.33.79-2,8.9-11.2,10.27-11.77l-3.58,5.4c6.47-5.31,7.39-11.85,16-17.4,2.53-2.35,9.34-5.26,8.8-6.64-5.8,2.17-12.32-2.79-11-6.82,1-.72,14.63-11,18.31-12.94,5.44-2.61-2.64,9.44,2,7.23-.28-.58,1.39-3.35,2.14-4.45,2.93-2.21.29,2.41,5.64-3.39-.67-2.54,11.43-11.27,1.28-4,5-5.93,6.1-5.49,12.41-12-3,1,2.3-9.2,7.35-15.09.06.72,1.81,0,2.63-.36,2.78-2.71,5.23-5,7.45-7.08l.21-.19.1-.09s.07-.08.1,0l.41.43.8.87,1.55,1.68,2.91,3.2,2.83,3.12c1,1.09,2.06,2.2,3.12,3.34,2.14,2.27,4.43,4.64,7,7.24.61,1.32,5.23,6.76,2.45,5.26a38.15,38.15,0,0,1,6.9,5.29c5,7.45-7.39-7-4.14-.72,1.26-.44,9.52,7.12,14.63,11.17-.14-2.68-10.35-10.81-15.49-14.85,1.79-1.83,11.65,4.27,23.3,14.43,9,8.28,2.62,4.89,4.36,6.16,15.94,16.6,16.73,11,28.95,25.8,4.29,6.43-1.82,2.3-1.38,4.24-7.45-6.66-10.16-11.51-15-16.27l5.38,6.41a64.05,64.05,0,0,1-9.83-9.22c3.54,5.45,27.29,27.69,39,41.05,2.56,1.9,6.75,5.41,5.32,3.2l-4.11-3.84c-2.85-4.45,8.55,6.41,3.9,1,5.87,4.79,12.63,10,19.65,18L623,149c.14-.47-4.25-5.56-6.67-7.35,3.56,2.68,10,13,14.8,15l-4.51-6c5.85,4.85,13.46,10.47,19.71,17.52-2-4-1.63-1.44-5.14-7.38,2.6,5.59-16.72-17.29-11.78-9.07-3.4-6.3-7.71-9.07-12.74-16.72-.16.55,1.54,2.95-3.79-2.88a12.89,12.89,0,0,1-1.53-.92l-.35-.41.27.36c-.3-.19-.33-.2.09.13a17.88,17.88,0,0,1,2.27,3.42c-3.56-2-12.35-11-15.77-13.53-3.11-3.51,1.8,1,.41-1.25l-5.12-3.85c.39-1.28-7.31-10.29.9-2.89l-6.9-7.14a100.25,100.25,0,0,0-12.85-13.8c-3.08-3.55-9.26-7.48-5.71-5.26L557.16,76.46l.12-.33C546.67,65,533.54,55.13,523,40.86c-1.93-1.73-3.91-3.46-6.13-5.58l-1.72-1.66L513,31.46c-2.05-2.07-4.24-4.41-6.71-7-.52-1.07-1.09-2.18-1.69-3.31-1-.91-2.18-2-3.41-3.15l-.93-.9-.24-.23-.12-.12s0-.05-.06,0l-.06.06-.49.46-2,1.9-8.54,8-4,3.74c-.75.71-1.46,1.38-2.07,2a11.36,11.36,0,0,0-2.39,3c-7.51,2.62-23.54,22-32.31,29.8l.89,1.51c-5.8,5.57-10.95,11.32-17.56,18.83l1.52.65c-5.21,7-16.5,14.78-26.08,24.46.24-1.08,2.8-3.39,4.8-4.86-14.11,8.9-22.54,26-34.88,34.5a26,26,0,0,1-6.35,6.26,4.39,4.39,0,0,0,.59-.7c-.28.25-.68.64-1.08,1-1.36.94-2.78,1.89-4.25,3a32.94,32.94,0,0,0,3.67-2.41c-2,2-4.9,5.19-7.6,8.45h-2.52l-.66.72c-3.4,2.45-1.77,2.94.74,2.33a42.45,42.45,0,0,0-3.2,4.68c-4.41.33-7.15,8.48-12.58,9.53-1,3.06-14.24,15.72-13.56,19.57-.4-.19-1.42.54.17-1.08-3.58,3.06-7.17,6.11-9.51,9.72l-3.06-.23-5.06,9.44c-5.41,3.4-7.83,4.63-4.72-1-8.64,12.49-7.86,9.28-14.91,20.2l-.64-1.51c-3.17,3.24-6.87,9.81-9.7,10.85-9.26,5.11-35.89,35.21-56.3,51.68,6.84-.32-10,7.09-8.25,10.35-1.85.3-4.86,2.43-2.54-1.22C206.69,310.64,200,313.37,195.6,322c-1.85.3.88-3.15-.54-2.65-.58.92-2.32,3.66-3.76,4.18s.73-2,1.88-3.86c-9.49,9.73-8.08,13.1-6.53,16-5.94,3.8-8.22,6.38-10.26,11.38-2.44,1-6,3-.33-3.22-3.46,3.25-21.61,19.44-20.15,21.59-1.51.59-4.83,4.56-5.51,5.65-7.18,6.95-9.51,9-19.07,18.83l3.29-2.68a5.54,5.54,0,0,1-1.13,3.12,7.91,7.91,0,0,1-.59.77l-.34.38-.09.1,0,.05s0,0,0,.05l.21.2c.55.53,1.08,1.08,1.61,1.67l3.51,4c1.35,1.51,2.94,3.22,4.89,5l-.48,0,4.4,5.24c1,1.22,1.86,2.13,2.55,2.85a25.68,25.68,0,0,0,3,2.73c1.62,1.29,3.18,2.59,9,10.24l.62-2.09C166,420,172.07,435.28,181,442L179,438.4c5.27,3.28,8,15.91,12,20.56.68,1.19-1.89-1.08-3.39-2.19,9.56,12.94,3.23-.31,12,7.65.6,2.5-4.41.43,1.07,6.24,2,3.58,19.47,13.27,25.37,22.77-1-2.42-1.93-4.83,2.52-1.49,6.23,5.71,13.42,18.85,21.11,22,.56,1,.66,1.43.51,1.64,5.16,4,15.84,13.82,19.81,15.34-.3,8.74,30.62,26.13,26.36,30.19l14.3,13.77-.78,0c8.73,9.22,12.89,11.4,17,13.57,1.8,2.35-.1,1.22-.48,1.26,12.32,13.9,13.83,15,26.83,24l-.14,2.44c3.73,2.23,17,20.9,31.42,32.21-.27,0-.78,0-2-.85,8,6.46,15.83,16,22.92,23.9s13.41,14.35,18.28,14.78l10.66,8.43c-12-12.66,3.74-.06-.62-5.86,5.11,4.61,11.26,13.86,5.05,8.13l-.71-1.15c-4.47.08,14.59,16.1,12.74,17.29,12.27,12,24,24.26,35.63,36.28l6,6.16,6.55,6.67.83.84c.27-.21.55-.51.83-.75l1.66-1.55,3.34-3.11c2.23-2.11,4.47-4.36,6.71-6.55l9-8.81,8.59-8.57-4.17,1.08,8-7.89c2.43-1.74,4-1.62-1.71,4,3.83-2.14,8.7-10.31,8.54-10.79,11.63-10.56-2.53,6.13.89,2.75L546,718l-1.21.88c3.1-4.4,2.78-5.38,9.62-12.16,4.57-4,3.1-1.32,4.84-3,.1.11.71-.42,2.62-2.58l10-10-5.1,2.9c3.84-5,9.41-9.4,3.54-6,4.36-2.41,13.79-11.65,22.74-20.71s17.4-18,19.74-19.77c5.42-7,11.55-13.14,19.17-20.7-2.07,1.7-4.29,1.74,2.37-4.7-.17,4.61,12.89-11.1,19.64-14.94-5.68,3.79,18.19-19.06,9.48-12.92,5.59-5.34,1.08.41,5.65-3.31,6.06-6.95,13.29-14,20.92-21.52s15.69-15.29,23.52-23.54c0-.46-3,1.93.14-1.87l9.43-7.56c3-3.32,1.74-4.09,8.15-9.29-1,.67-2.42,1.66-.37-.55,16.05-15.45,31.72-32,47.64-48.36q11.93-12.3,24-24.52l24-24.2c-4.37,4.29-1.55,1.33,1.7-2-2.15,2.15-.1-.2-.6.15q6.74-6.66,13.39-13.4c2.27-2.61,14.1-14.62,15.42-16.1l-4.18,4.31c2.75-2.9.77-.93-1.86,1.59s-5.91,5.6-5.58,5.1c-3.11,3.2-7.36,7.28-12.17,11.81s-10.17,9.52-15.17,14.89c-2.4,2.17,1.85-2.06.52-.94-2.5,2.75-5.65,5.94-11.7,11.66l.63-.71c-16.68,16.35-24.07,23.12-43.16,41.14l1.79-1c-4.09,3.88-5.07,4.58-7.07,6.31-4,5.14,11.39-11,7.82-6.23-3.06,2.22-10.2,9.14-17.11,15.86s-13.62,13.21-16,14.39c-6.23,6,2.4-1.2-3.82,4.85l-2,1.29-1.16,1.94c-4.13,3.91-6.61,5.49-7,5.35,1-.92,2.73-2.8,3.77-3.86-5.7,4.73-14.8,14.61-16.74,16.24l6.19-5.58c-8.32,8.41-17.77,17.55-27.09,26.67S666.83,581.58,659.11,590l1.57-.88C648.86,602,650.33,598.57,637,612.31l.41-.58a106.23,106.23,0,0,1-9.62,10.48c3-3.83-7.35,5.53-3.3.6-12.77,14-6.12,7.14-13.57,17.37l-2.7,1.37c-2.45,3.59-2.38,4.16-9,11.07,5-6.09-5.37,3.28.13-3.66a127,127,0,0,0-16.9,16.48c-4,4.57-7.21,8.12-11.64,10.21-4.59,8.46,13.48-11.12,10.22-7.07,3.7-2.42-4,6.81-8.63,11.07-4.58,4.49-10.3,5.13-21.79,16.48,1.16-1.12,1.08-1.35,2.23-2.46-4.84,3.7-7.72,9-13.87,13.35-1.68,4.2-6.93,6.68-6.14,9.17l10.16-10.8c-5.56,6.32-9.2,13.81-20,22.62a48.62,48.62,0,0,1,4.67-6.68c-3.37,2.35-5.21,5.81-8.7,8.25-.84-2.53,12.43-13,17.59-20.59-3.8,2.34-10.93,13.14-9.51,8.17-2.33,6.86-11.65,10.85-17.65,20.31l-.52-1.54-2.25,3c-.47.6-1,1.22-1.51,1.84l-.79.88a4.28,4.28,0,0,1-.4.45l.09-.44,0-.21a.71.71,0,0,1,.09-.26l.69-1.35,1.39-2.69a31.21,31.21,0,0,1-2.06,2.59l-.55.6-.26.29-.1.12a5.92,5.92,0,0,1-.41.45,4.56,4.56,0,0,1-1.74,1.18c-.28.11-.53.19-.76.26l-.09,0,0,0,0-.08-.16-.27-.3-.5a2.78,2.78,0,0,0-1.29-1.24,7.92,7.92,0,0,1,1.64,2.11l.1.2c0,.08.05.14.08.13a.33.33,0,0,1,.1.15,1.21,1.21,0,0,1,0,.53c0,.43-.17,1-.16,1.46s.17.72.91.37c-1,2.15-1.92.32-2.67-.19a14.86,14.86,0,0,1-1.78-2,9.78,9.78,0,0,1-.53-.88,6,6,0,0,0-.5-1c-.5-.85-.9-1.65-1.31-2.48-1.63-3.29-3.35-7-12.21-15.45,2.48,2.22,8.09,9.55,3.95,6.35-3.06-3.55-7-8.37-8.41-11-11.63-11.38.62,2.91-4.91-1.35-2.54-5.29-6.16-5.14-11.61-9.77l1.1-1.17c-12.29-13.93-5.84-1.11-16.7-13.86l6.57,3.41-6.53-5.77,2.58,0c-7.63-5.76-9.45-8.1-15.59-15.08.68,2.36-3,1.28-8.81-4.51-3.24-4.69,3.33,1.09-5-7,2.6,1.12,5.55,2.24,8,6.94.76,0,2.57,1.09,3.32,1.09-3.42-5.1-10.44-11-13.42-14a29.49,29.49,0,0,1,2.92,3.52L406,651c-1.42-2.35.43-1.21,2.26-.09-2.54-2.3-4.76-3.42-8.4-6.89,1.91-.06,2.71-1.31,8.17,3.29L395.66,637c-.32-1.19-4.6-7.06-2.77-6-5.65-6.95-17.31-13.6-24.83-22.78a14.94,14.94,0,0,1-3.6-2.57c-7.59-8.11-13.22-16.39-23.91-24.31l-3.39-7.18c-7.68-6.89,4.76,9.54-8-1.94-9.16-8-1.59-4.82-4.07-8.37-5.2-3.35-14.55-8.86-20.87-18.32C307.15,547.84,308.92,550.18,311.49,552.49ZM221,463.23c2,1.46,6.37,4.06,6.84,6.13C224.29,468.92,223.49,466.65,221,463.23ZM199,335.6c-.85,1.75-3.07,3.53-5.84,5.28A33.73,33.73,0,0,1,199,335.6ZM581.27,101.15,581,101C577.56,96.71,578.78,98.25,581.27,101.15Zm7.59,8.55c.93.69,1,.5.78,0-.78-.34-2.59-2.15-4.57-4.3C585.4,106.25,586.26,107.47,588.86,109.7ZM559.75,702.51l-1.81,1.33C561.18,700,560.45,701.24,559.75,702.51Z"/><path class="cls-1" d="M185.41,353a1.87,1.87,0,0,1-1.49,0C183.47,353.89,183.72,354.16,185.41,353Z"/><path class="cls-1" d="M367.8,608l.26.29a.9.9,0,0,0,.49.05Z"/><path class="cls-1" d="M464.52,73.62a19.38,19.38,0,0,1-3.78,2.63C460.93,76.62,461.92,76.1,464.52,73.62Z"/><path class="cls-1" d="M632.56,151.5l-5.31-5a41.58,41.58,0,0,1,4.32,5C631.65,151.15,631,149.87,632.56,151.5Z"/><path class="cls-1" d="M672.39,201.37c.84.67,1.61,1.59,2.44,2.25l.12-.52C671.72,199.89,669.2,197.91,672.39,201.37Z"/><path class="cls-1" d="M634.61,159c-.27,1.08,3.18,4.11,6.9,7.63-.22-.21-.43-.42-.63-.64C642.86,166.16,638.73,162.57,634.61,159Z"/><path class="cls-1" d="M642.37,167.47c1.14,1.1,2.29,2.22,3.34,3.35C646.5,170.89,644.44,169.38,642.37,167.47Z"/><path class="cls-1" d="M599.48,119.53c1.51,1.93,2,.14,2.68,1.42C605,121.94,589.69,110.53,599.48,119.53Z"/><polygon class="cls-1" points="635.32 164.17 634.85 162.04 632.15 160.68 635.32 164.17"/><path class="cls-1" d="M607.39,134.93l5.53,6c.06-.24.88.41,1.85,1.25C611.24,138.62,607.52,134.52,607.39,134.93Z"/><path class="cls-1" d="M614.77,142.22a56.21,56.21,0,0,0,4.79,4.52C618.55,145.74,616.36,143.6,614.77,142.22Z"/><polygon class="cls-1" points="627.16 156.51 625.62 154.63 621.6 150.48 627.16 156.51"/><path class="cls-1" d="M545.51,72.45l-6.6-6c-1-.28.5,1.66,3,3.87C543.66,71.55,546.14,73.76,545.51,72.45Z"/><path class="cls-1" d="M561.85,94.29a12.07,12.07,0,0,1-2-3.53l-1.43,1Z"/><path class="cls-1" d="M543.07,76.25c-1-.27-10.23-8.09-2.1-.21C542,76.32,548.61,82.32,543.07,76.25Z"/><polygon class="cls-1" points="450.75 79.37 452.33 77.75 449.68 75.55 450.75 79.37"/><path class="cls-1" d="M373.3,169.59c8.07-6.89.13-3.41,7.65-9.42,1.13-2.38-6.14,4.91-4.89,2.56C372.22,167.92,369.49,169.94,373.3,169.59Z"/><path class="cls-1" d="M376.06,162.73c.62-.82,1.26-1.72,1.9-2.71A23.15,23.15,0,0,0,376.06,162.73Z"/><polygon class="cls-1" points="849.9 405.27 854.61 400.36 851.55 403.51 849.9 405.27"/><path class="cls-1" d="M858.88,395.78l1.13-1.13,2.82-3Z"/><path class="cls-1" d="M211.3,446.18l-.81.07c.27,1.22,1.36,2.38,3.54,4.72Z"/><polygon class="cls-1" points="275.01 512.95 273.93 511.78 274.4 515.5 275.01 512.95"/><path class="cls-1" d="M331.53,565.93c-2.16-2.31-5.12-4.6-7.28-6.93C329.37,563.62,330.17,568.5,331.53,565.93Z"/><path class="cls-2" d="M578.35,214.24c0,2.38,2.38,4.75,2.38,6.53a2.18,2.18,0,0,0-.6,1.79c0,.59,3,3.56,3,5.34,0,3.57-1.18,5.94-3.56,7.13a5,5,0,0,0-1.19,3.56,13.65,13.65,0,0,1-1.78,5.35L570,250.47c-1.79.6-11.29,4.16-13.67,6.54-11.28,7.72-14.85,4.16-16.63,11.88-5.34,1.78-7.72,3-8.31,3-1.79,0-3.57-1.19-5.94-3.57v-2.37l-.6-1.78c0-1.19,7.13-4.16,9.51-10.7a5,5,0,0,0,1.18-3.56c0-1.78-.59-4.16-.59-5.94l-.59-1.78a2.18,2.18,0,0,1,.59-1.78c.59-.6.59-1.79.59-3.57s-1.78-5.34-1.78-7.13c0-4.15-11.88,0-15.44-6.53-2.38,0-6.54,2.38-8.32,2.38l-14.85,7.12A80.31,80.31,0,0,1,481.53,238l-5.35,3.56c-4.15,1.79-11.28,8.32-16,10.7l-4.16,3c-1.78.59-3,3-3.57,3.56a6.45,6.45,0,0,1-3,.59h-2.38c-1.78.6-3,4.16-3.56,4.76h-1.19a2.21,2.21,0,0,1-1.79.59c-.59,1.78-5.34,2.37-7.12,6.53-3,.6-8.32,3.57-14.85,8.91-.6.6-1.78.6-3.57.6a4.56,4.56,0,0,1-1.18,3l-2.38.59c-1.19.6-2.38.6-3,1.19-6.53,6.53-10.69,10.69-11.29,12.47,0,3.57,3.57,4.16,5.35,5.94l7.72,5.35c.6,0,3-.59,4.75-.59s3,0,3.57.59c2.37,0,6.53,1.78,9.5,1.78,1.78,0,5.35-1.78,7.13-1.78a4.5,4.5,0,0,1,3,1.19l1.78,2.37c.59,0,5.94-1.78,7.72-1.78h4.75c8.91,0,29.11,1.78,59.4,5.35a142.58,142.58,0,0,1,19.61,1.18c1.78,0,9.5,3.57,13.66,4.16l3.56-2.37a25,25,0,0,0,7.72,4.15c.6,0,3,.6,8.32,1.79,4.16.59,9.5,2.37,16.63,4.75A92.18,92.18,0,0,0,595.58,336l1.19,1.78,1.78,1.78c.59.6,1.78,1.19,4.16,1.19l1.78,3.56c.59.6,1.78.6,3.56.6l1.19,2.37.59,1.19c0,.6.6.6,1.79,1.19l1.78.59c1.19,1.19,2.37,5.94,3.56,8.91l3,3.57c4.16,5.94,6.53,13.66,6.53,23.76,0,5.34-.59,9.5-2.37,13.07l-4.75,5.34v1.78l.59.6c0,.59-1.19,1.19-3,1.78A49.54,49.54,0,0,1,611,418a30.93,30.93,0,0,0-4.75,6.53l-2.38,1.79c-3,2.37-5.34,4.75-5.34,7.72-4.16,1.19-9.51,7.13-12.48,10.1l-3,.59c0,.59-.59,1.78-1.78,3.56-1.19,1.19-5.94,3.57-7.13,4.76l-24.94,20.19c-2.38-1.78,1.18,11.88,1.78,16l-2.38-1.19c-3,0-6.53,4.75-8.31,8.91l-1.19,3-1.78-.59c-3-1.19-4.16,1.78-5.94,4.16l-4.76,3-3,1.18c-3,1.79-5.94,3.57-10.09,4.16-.6,0-1.79-1.19-3.57-1.19-.59,0-4.75,1.78-7.13,1.78-5.34.6-10.69,3.57-14.85,7.73-3.56,2.37-5.34,4.75-5.34,7.72a3.61,3.61,0,0,1-.59,2.38c-4.16,0-3.57,4.75-4.16,5.34-1.19.6-6.54,1.78-3.57,4.75-4.75,0-7.72,1.19-9.5,4.16-3,0-6.53-1.78-8.91-1.78-.59.59-4.75,1.78-4.75,3.56h-7.72c-1.79.6-9.51,7.72-13.67,8.32H415c-1.78,0-6.53,1.19-7.12,1.19a2.18,2.18,0,0,1-1.79-.6c-4.75-.59-12.47-6.53-14.25-7.13-.6-.59-1.78-4.15-3.57-5.93-1.18-1.19-2.37-4.76-3.56-10.1-.59-1.78-5.35-11.88-5.35-16.63-.59-3-.59-8.32-.59-14.86A94.62,94.62,0,0,1,380,483.91l1.78-2.37,1.78-3,1.78-9.51a15.29,15.29,0,0,0,1.79-4.75l.59-.59c.59-.6,1.19-.6,1.19-1.19.59,0,.59-5.35,1.19-7.13,0-1.78,4.75-4.16,5.94-5.34,0-1.19,0-1.79.59-1.79s1.19-.59,1.19-2.37a1.27,1.27,0,0,1,1.19-1.19,1.57,1.57,0,0,0,1.78-1.78,2.18,2.18,0,0,1,.59-1.78l1.78-1.19c3-2.38,5.35-4.75,5.35-7.72,4.16,0,9.5-5.94,12.47-7.73,3.57-4.15,7.13-5.94,10.7-8.91,7.72-3,11.88-4.75,12.47-6.53,7.72-3,11.88-4.75,12.47-5.94a77.45,77.45,0,0,0,19.6-5.35,2.18,2.18,0,0,0,1.79.6c.59,0,2.37-.6,3-.6h11.28a15.61,15.61,0,0,1,6.54-1.78,7.66,7.66,0,0,1,5.94,2.38c-.6,3-3.57,4.75-9.51,5.34-1.78,4.16-11.88,8.91-14.25,11.88l-20.79,11.88L440,439.36c-3,1.79-4.75,3.57-5.34,6.54-1.79,0-4.16,3.56-4.76,3.56-1.78,1.78-3,2.38-4.15,2.38-2.38,2.37-8.32,10.69-10.7,13.66l-4.75,7.72a50.74,50.74,0,0,0-5.34,16,64.54,64.54,0,0,0-4.16,22v3c0,1.78,1.19,5.34,4.16,10.69.59.59,2.37.59,4.15.59s7.13-1.19,17.23-4.16c4.16,0,7.13,0,8.32-.59,1.18,0,1.78-1.19,1.78-3,3.56,0,11.28,0,11.28-5.94,4.16,0,7.73-1.19,11.88-3.56,6.54-3,10.1-5.94,11.29-8.32.59.59,1.78.59,3,.59,1.78,0,3.56-1.18,4.16-1.18,1.78-.6,5.94-4.76,10.69-4.76,1.19-2.37,3.56-2.37,3.56-5.34,5.35,0,11.29-5.35,16-5.35a9.67,9.67,0,0,0,3.56-7.12c6.54-.6,10.7-4.16,12.48-11.29.59.59,1.78.59,4.16.59l8.31-4.75c0-.59-1.78-3-1.78-4.75h1.19l1.19-.59c1.78,0,4.75,2.37,6.53,3,.59-.6,12.47-6.54,14.85-10.7,2.38,0,4.75-4.15,7.72-4.15,4.16-5.35,17.82-17.23,19.6-19,.6-4.75,10.7-11.29,12.48-13.66v-2.38l1.19-.59,2.37-1.19c0-.6,1.19-5.35,1.78-7.72l.6-1.19v-.6c0-.59,1.78-5.94,3-10.69a44.23,44.23,0,0,0,1.19-7.13c0-3.56-1.79-7.12-4.76-10.09l-6.53-5.35c-4.75-2.38-22.57-7.13-27.32-8.91a5.37,5.37,0,0,0-3.57-3.56h-8.31c-4.16,0-7.13,0-8.91-.6l-5.94-3.56c-6.54-1.78-23.17-3-29.7-3.57l-24.95-4.75a13.24,13.24,0,0,0-4.16.6l-3,.59a3.61,3.61,0,0,1-2.38-.59,2.15,2.15,0,0,0-1.78-.6c-1.78,0-6.53,1.19-8.91,1.19-1.78,0-5.94-1.19-8.31-1.19-3,0-8.32,1.19-11.29,1.19-8.32-3-24.95-.59-39.2-1.78h-16c-4.16-.6-8.91-2.38-14.26-4.75l-3.56-1.79c-.59,0-1.19-5.34-3-5.94,0-.59-4.75-1.18-5.35-3-1.78-11.28-1.78-17.82,1.19-23.16L380,289.08c3-3,4.75-4.75,5.34-4.75a2.21,2.21,0,0,0,1.79-.59l.59-1.19a3.59,3.59,0,0,1,3-2.38,1.28,1.28,0,0,0,1.19-1.19l2.37-2.37c.6-.59,3.57-1.78,5.35-3.56l19.6-14.26,7.13-3.56a9.21,9.21,0,0,0,3.56-4.76c.6-.59,1.79-.59,3.57-.59l3-3,1.19-.59a4.45,4.45,0,0,1,2.37-1.19,27.38,27.38,0,0,1,7.72-2.38c.6-.59,1.79-4.16,3.57-4.75,2.37-1.78,13.66-6.53,17.82-7.72,3-3,5.94-4.75,8.31-5.35q24.06-15.15,62.37-21.38a5,5,0,0,1,3.57-1.19c1.78,0,6.53.59,8.31.59,1.19,0,1.78,0,1.78-.59C562.91,207.71,580.73,205.92,578.35,214.24Z"/><path class="cls-2" d="M88,810.59c0,.91.91,1.82.91,2.5a.85.85,0,0,0-.22.68c0,.23,1.13,1.36,1.13,2.05a2.73,2.73,0,0,1-1.36,2.72,1.92,1.92,0,0,0-.46,1.37,5.14,5.14,0,0,1-.68,2l-2.5,2.5c-.68.22-4.31,1.59-5.22,2.5-4.32,2.95-5.68,1.59-6.36,4.54-2,.68-3,1.14-3.18,1.14-.68,0-1.36-.46-2.27-1.37v-.91l-.23-.68c0-.45,2.73-1.59,3.64-4.09a1.94,1.94,0,0,0,.45-1.36c0-.68-.23-1.59-.23-2.27l-.22-.68a.84.84,0,0,1,.22-.68c.23-.23.23-.68.23-1.37s-.68-2-.68-2.72c0-1.59-4.54,0-5.91-2.5-.91,0-2.5.91-3.18.91l-5.68,2.72a31,31,0,0,1-5.22,2L49,821c-1.59.68-4.32,3.18-6.14,4.09l-1.59,1.13c-.68.23-1.13,1.14-1.36,1.37a2.44,2.44,0,0,1-1.14.23h-.9c-.69.22-1.14,1.59-1.37,1.81H36a.83.83,0,0,1-.68.23c-.23.68-2,.91-2.73,2.5-1.13.23-3.18,1.36-5.68,3.4-.22.23-.68.23-1.36.23a1.78,1.78,0,0,1-.45,1.14l-.91.22c-.46.23-.91.23-1.14.46-2.5,2.5-4.09,4.09-4.31,4.77,0,1.36,1.36,1.59,2,2.27l2.95,2c.23,0,1.14-.22,1.82-.22s1.14,0,1.36.22c.91,0,2.5.69,3.64.69.68,0,2-.69,2.72-.69a1.73,1.73,0,0,1,1.14.46l.68.91a29.89,29.89,0,0,1,2.95-.68h1.82c3.41,0,11.13.68,22.71,2a53.48,53.48,0,0,1,7.5.46c.68,0,3.63,1.36,5.22,1.59l1.37-.91a9.55,9.55,0,0,0,3,1.59c.23,0,1.14.22,3.18.68a41.78,41.78,0,0,1,6.36,1.81,34.64,34.64,0,0,0,5.45,2.28l.46.68.68.68a2.15,2.15,0,0,0,1.59.45l.68,1.37c.23.22.68.22,1.36.22l.46.91.22.46c0,.22.23.22.68.45l.69.23c.45.45.9,2.27,1.36,3.4l1.13,1.37a15.38,15.38,0,0,1,2.5,9.08,10.81,10.81,0,0,1-.91,5l-1.81,2v.69l.22.22c0,.23-.45.46-1.13.68a19.94,19.94,0,0,1-2.27,3.41,12,12,0,0,0-1.82,2.5l-.91.68c-1.13.91-2,1.82-2,3-1.59.46-3.64,2.73-4.77,3.87l-1.14.22a3.55,3.55,0,0,1-.68,1.37c-.45.45-2.27,1.36-2.73,1.81l-9.54,7.73c-.9-.69.46,4.54.68,6.13l-.9-.46c-1.14,0-2.5,1.82-3.18,3.41L73,919.85l-.68-.23c-1.13-.45-1.59.68-2.27,1.59l-1.82,1.14-1.13.45a10,10,0,0,1-3.86,1.59c-.23,0-.69-.45-1.37-.45a15.19,15.19,0,0,1-2.72.68,9.83,9.83,0,0,0-5.68,3c-1.36.91-2.05,1.82-2.05,2.95a1.39,1.39,0,0,1-.22.91c-1.59,0-1.37,1.82-1.59,2.05-.46.22-2.5.68-1.37,1.81-1.81,0-2.95.46-3.63,1.59-1.14,0-2.5-.68-3.41-.68-.22.23-1.81.68-1.81,1.36h-3c-.68.23-3.63,3-5.22,3.19H25.55c-.68,0-2.5.45-2.73.45a.83.83,0,0,1-.68-.23c-1.81-.22-4.77-2.5-5.45-2.72A15.12,15.12,0,0,0,15.33,936c-.46-.45-.91-1.81-1.36-3.86-.23-.68-2.05-4.54-2.05-6.36a36.53,36.53,0,0,1-.23-5.67,36.11,36.11,0,0,1,.46-6.37l.68-.9.68-1.14.68-3.63a5.87,5.87,0,0,0,.68-1.82l.23-.23c.23-.23.46-.23.46-.45.22,0,.22-2,.45-2.73,0-.68,1.82-1.59,2.27-2,0-.46,0-.68.23-.68s.45-.23.45-.91a.49.49,0,0,1,.46-.46.6.6,0,0,0,.68-.68.83.83,0,0,1,.23-.68l.68-.45c1.13-.91,2-1.82,2-3,1.59,0,3.64-2.27,4.77-3a27.37,27.37,0,0,1,4.09-3.41c2.95-1.13,4.54-1.81,4.77-2.5,3-1.13,4.54-1.81,4.77-2.27a29.58,29.58,0,0,0,7.5-2,.82.82,0,0,0,.68.23c.22,0,.91-.23,1.13-.23h4.32a6,6,0,0,1,2.5-.68,2.92,2.92,0,0,1,2.27.91c-.23,1.13-1.36,1.81-3.64,2-.68,1.59-4.54,3.41-5.45,4.54l-7.95,4.55-7.72,4.54a3.64,3.64,0,0,0-2,2.5c-.69,0-1.59,1.36-1.82,1.36-.68.68-1.14.91-1.59.91-.91.91-3.18,4.09-4.09,5.22l-1.82,3a19.23,19.23,0,0,0-2,6.13,24.6,24.6,0,0,0-1.59,8.4v1.14a10.52,10.52,0,0,0,1.59,4.09c.23.23.91.23,1.59.23a37.26,37.26,0,0,0,6.59-1.6,10.67,10.67,0,0,0,3.18-.22c.45,0,.68-.46.68-1.14,1.36,0,4.31,0,4.31-2.27A8.77,8.77,0,0,0,42.59,923c2.49-1.14,3.86-2.27,4.31-3.18a1.69,1.69,0,0,0,1.14.23,7,7,0,0,0,1.59-.46c.68-.23,2.27-1.82,4.09-1.82.45-.91,1.36-.91,1.36-2,2,0,4.31-2,6.13-2A3.66,3.66,0,0,0,62.57,911c2.5-.23,4.09-1.59,4.77-4.32.23.23.69.23,1.59.23l3.18-1.82c0-.22-.68-1.13-.68-1.81h.46l.45-.23c.68,0,1.82.91,2.5,1.13.23-.22,4.77-2.49,5.68-4.08.91,0,1.81-1.59,3-1.59,1.59-2,6.82-6.59,7.5-7.27.22-1.82,4.09-4.32,4.77-5.23v-.91l.45-.22.91-.46c0-.22.45-2,.68-2.95L98,881v-.23c0-.23.68-2.27,1.13-4.09A16.55,16.55,0,0,0,99.6,874a5.59,5.59,0,0,0-1.82-3.86l-2.5-2c-1.81-.91-8.63-2.73-10.45-3.41a2,2,0,0,0-1.36-1.36H80.29a12.94,12.94,0,0,1-3.41-.23l-2.27-1.36c-2.5-.68-8.86-1.14-11.35-1.36l-9.54-1.82a5,5,0,0,0-1.59.23L51,859a1.4,1.4,0,0,1-.91-.22.83.83,0,0,0-.68-.23c-.68,0-2.5.45-3.41.45-.68,0-2.27-.45-3.18-.45-1.13,0-3.18.45-4.31.45-3.18-1.13-9.54-.22-15-.68H17.37a22,22,0,0,1-5.45-1.82l-1.36-.68c-.23,0-.46-2-1.14-2.27,0-.23-1.81-.45-2-1.13-.68-4.32-.68-6.82.45-8.86l4.32-4.32c1.13-1.13,1.82-1.82,2-1.82a.84.84,0,0,0,.68-.22l.23-.46a1.38,1.38,0,0,1,1.14-.91.48.48,0,0,0,.45-.45l.91-.91a15.49,15.49,0,0,0,2-1.36l7.5-5.45,2.73-1.37a3.52,3.52,0,0,0,1.36-1.81c.23-.23.68-.23,1.36-.23l1.14-1.14.45-.22a1.72,1.72,0,0,1,.91-.46,10.56,10.56,0,0,1,2.95-.9c.23-.23.68-1.59,1.37-1.82a38.52,38.52,0,0,1,6.81-3,7.5,7.5,0,0,1,3.18-2q9.2-5.79,23.85-8.18a2,2,0,0,1,1.36-.45c.68,0,2.5.23,3.18.23.46,0,.68,0,.68-.23C82.11,808.09,88.92,807.41,88,810.59Z"/><path class="cls-2" d="M125.26,844c2.5,2.5,3.64,4.77,3.64,6.82,0,.68-5.23,3.18-6.36,3.4a26.8,26.8,0,0,1-5.91-1.81l-1.81-.46a.86.86,0,0,1,.22-.68c-.68,0-.91-.23-.91-.91s.69-2.27.69-3-.23-.91-.91-1.14c0-1.13,3.18-5,5.68-6.13C121,840.12,122.77,841.48,125.26,844Zm0,62.92a2,2,0,0,1,.69,1.59c0,1.36-1.59,2.73-4.55,4.09a.6.6,0,0,1-.68.68l-1.13-.23a3.94,3.94,0,0,1-1.59.68c-3.87-2.49-2.5-3.86-3.41-7.49,0-.68.23-3.18.23-4.32l-.23-.9a12.79,12.79,0,0,0,.23-1.59v-3.19c0-.9,1.36-1.13.68-2.49a.84.84,0,0,1-.23-.69l.45-.9v-3.41c.23,0,.23-.91,0-3l-.45-1.59V882.6c0-1.14.45-7.05.45-8.86,0-.68.23-3.18.23-4.09,0-.68.68-1.59,2-2.27l2.27-1.14c1.13,0,3,2.27,3,4.09,0,.23-.23,1.36-.23,1.59a11,11,0,0,1,.91,1.36c-.23.23-.23.68-.23,1.37,0,.22.23,1.36.23,2,0,4.77-.45,8.4-1.59,11.13v.91c0,1.59,2,5,2,6.13a2.86,2.86,0,0,0-.23,1.36,13,13,0,0,1,.45,3c0,.91.46,2.72.46,3.4C125,905.54,125,906.9,125.26,906.9Z"/><path class="cls-2" d="M134.57,886.46c0-.91,1.82-1.37,2.05-1.59.68-.23,1.82-2,2-2l2.27-1.13c.23,0,.69-.91,1.37-.91h1.36a.6.6,0,0,0,.68-.68c.23-1.14,1.59-.91,1.82-1.14l.23-.68.68-1.36a12,12,0,0,0,2.49-2.27l5-8.18,1.14.68.22-1.14a1.73,1.73,0,0,1,1.14.46h.23c.68,0,3.86-.46,5.45-.46,2,0,3.18.46,3.41,1.14,0,.91-3.18.91-4.09,1.36-.68,0-2.5-.68-3.41-.68-.23,0-.45.23-.68.46a.85.85,0,0,1-.68.22,1,1,0,0,0,1.13.69,31.21,31.21,0,0,1,3.41-.46,7,7,0,0,0,1.36,2,16.87,16.87,0,0,0,4.55-1.37,17.14,17.14,0,0,1,4.31-1.59q0-18.06,1.37-26.57c0-1.59-1.37-5-1.37-6.14l.68-2c0-.68-1.36-4.32-1.36-5.45v-1.37c.68.23,1.36.46,1.36-.22l-.68-.46h-.68c-.68-2.27,0-4.08,0-5.9A3.23,3.23,0,0,0,170,817c.22-.23.22-.91.22-1.82,0-1.13-.68-4.54-.68-5.22l.46-.45-.91-2.05.23-.45c.22-.23.22-.23.22-.46a7.91,7.91,0,0,0-1.36-3.86c0-1.59.23-6.59.23-8.63a20.62,20.62,0,0,0-.23-4.31,6.39,6.39,0,0,1,5.91-3.64h.9c3.64,0,6.36,3,8,9.09a22.18,22.18,0,0,1-1.14,6.13.83.83,0,0,1-.23.68c0,.23-.45.91-.45,1.14.91,4.54,1.36,6.81,1.36,7,0,1.13-3.63,5.45-3.63,8.18,0,.68.22,2.95.22,3.86a10.07,10.07,0,0,1,1.37,2.27c0,.91-.23,2.5-.23,3.41,0,.68-.23,2.49-.68,5.45a38.78,38.78,0,0,0-.68,5.68v1.13c.22,4.54.45,10.9.45,18.85,0,4.55-.23,8.18-.45,10.91.68.68,5,2.5,5.67,4.31-1.13,3.18-1.81,11.13-5.67,12.95a5,5,0,0,0-.23,2,9.72,9.72,0,0,0,2.27,5.91c0,.23.23,1.13.23,1.36,0,1.14-.68,4.32-.68,5.23a5.23,5.23,0,0,0,.45,1.81,4.73,4.73,0,0,0,.91,1.37,17.44,17.44,0,0,1,.45,3.18c0,2.5-.45,4.09-1.36,5-.23,0-.68.23-.91.23-1.59,0-5.9-2.27-6.58-2.5-.46-.45-1.14-3.18-1.82-4.54a22.09,22.09,0,0,0,.23-4.77c0-3.86-.46-5.68-1.14-5.68-1.14,0-2.95,1.36-5.23,4.32q-3.06,4.08-4.77,4.08c-.22,0-.45,0-.45.23s0,.46-.23.46a3.61,3.61,0,0,1-2.27,1.13c-.22,0-1.13-.23-1.36-.23a.82.82,0,0,0-.68.23c-.23,0-.46.68-1.14.91-1.59.23-2.5.45-3.18.45a17.56,17.56,0,0,1-3.18-.45,19.62,19.62,0,0,1-3.86-1.36,10.55,10.55,0,0,1-4.32-3c-.68-1.81,0-3.86-1.81-4.77a46.1,46.1,0,0,1,1.13-7.49C138.44,888.73,135.25,887.59,134.57,886.46Zm18.4,13.4c1.59,0,5.23-1.82,6.36-1.82.23-.91,2-2.27,2.27-3.18-2,.68-6.81.46-8.4.68a13.89,13.89,0,0,0-3.18-2,2.73,2.73,0,0,0-.68,2,6.77,6.77,0,0,0,1.13,3.41A3.44,3.44,0,0,0,153,899.86Zm5.23-21.35a8.26,8.26,0,0,0-5,6.81c-.68,0-1.14,1.36-2,1.36.22.23.22.46.22.91,0,.68-.91,2.73-.91,4.32a17.92,17.92,0,0,0,1.82.45c1.14,0,3.86-1.13,4.77-1.13a2.07,2.07,0,0,1,1.59.68c0-1.14.45-1.82,1.14-1.82.22,0,3.86-1.13,11.35-3.18,0-1.82.91-7.27.91-9.77,0-.68-.22-2-.45-3.86a19.93,19.93,0,0,0-6.14,1.59,21,21,0,0,1-5.45,1.59C160,877.6,158.2,878.28,158.2,878.51Z"/><path class="cls-2" d="M190.45,880.1l.91.45a8.29,8.29,0,0,0-.45,1.37c-.69,0-.91-.23-.91-.69C190.22,880.55,190.22,880.1,190.45,880.1Zm33.39,26.35c0-.91.23-2.5.23-2.73a2.92,2.92,0,0,0-.46-1.82,1.91,1.91,0,0,0,.68-1.36c0-1.13-.68-1.13-1.58-.23-.69.91-3.41,3.41-5.23,5.23l-1.36,1.13-1.37.68a10.37,10.37,0,0,1-1.81-.45l-.68.45-.68-.22a1.44,1.44,0,0,0-1.37,1.13l-.68-.22h-1.59l-.23.22h-.45c-1.36-1.36-1.14-.22-2.27-.22-1.59,0-2.5.22-2.73.68a1.19,1.19,0,0,0-.91-.68l-.45.22h-.46c-.68-.68-2.95-1.59-3.86-3.18h-.22l-.46.23c-.23,0-.23-.23-.45-.45l-.23-.46c-3.86-2.5-2.72-5.22-4.09-5.22,0-.91-.91-3.41-.91-4.55a6.68,6.68,0,0,1,.91-3.63c-.22-.23-.45-1.36.23-3.86l.23-1.82c0-.91.68-.91.68-1.82l.45.23h.68c.46,0,.68-.23.68-.45-.22-.68-1.36-.46-1.36-.68a.6.6,0,0,1,.68-.68,10.76,10.76,0,0,0,2,.68c.68-.23,1.13-1.59,1.36-2.5l.23-.68c.23,0,.45-.23.68-.91a3.71,3.71,0,0,1-.91-2c0-.22,1.36-.91,1.59-1.81a2.64,2.64,0,0,1-.45-1.59,1.76,1.76,0,0,1,.22-1.14,10.27,10.27,0,0,1-1.13-2c.23-.23.45-.46.68-.46.91,0,2.72,2.27,2.72,1.82a.84.84,0,0,1,.69-.23,1.37,1.37,0,0,1,.91.23l.22-.45c.23-.69.68-.91,2.27-.91a5.31,5.31,0,0,1,1.82-.46h.91v-.91c.23,0,.23,0,.45.23h.46l2.27-.91h.23c.22,0,.45.23.68.46.23,0,.68-.46.91-.46,1.13.23,1.59.46,1.59.68l.68-.22c5.22.68,8.18,1.13,8.86,1.59a.84.84,0,0,1,.22-.68V869l-.22-.68a1.72,1.72,0,0,1,.45-1.14c-.23-.23-.23-.68-.23-1.36,0-.91.23-4.09.23-4.32a11.08,11.08,0,0,1-.68-4.09,5,5,0,0,1,.23-2c0-.23-.23-.91-.23-1.14,0-.91,0-1.36.23-1.59,0-.68-.91-3-.91-4.54a.83.83,0,0,0,.23-.68c0-.23-.46-5.91-.46-6.59a3.19,3.19,0,0,1,.46-1.36,8.81,8.81,0,0,0-.69-3c.91-.91.23-1.37.23-2a.83.83,0,0,1,.23-.68l-.46-.91-.22-.91a33.53,33.53,0,0,1,.22-5.68,13.93,13.93,0,0,1-.68-2.27,1.7,1.7,0,0,1,.46-1.13l-.69-2.05a3.3,3.3,0,0,0,.23-1.59c-.45-1.59-.45-2.72,0-3.4a2.06,2.06,0,0,0-.68-1.59.84.84,0,0,1,.23-.69l.22-.22c0-3.41-.68-5.68-1.36-6.36l-.45-.23a3.33,3.33,0,0,0,.45-2,5.06,5.06,0,0,0-.68-2.27c0-.69.23-1.59.23-1.82l-.23-.23v-.68a10.8,10.8,0,0,1,2.73-4.09c3.18.45,5,1.36,5.68,2.73,0,.45,1.36.45,1.81.91,0,.22.23.68.91.9a18.74,18.74,0,0,1,2.05,7.5.48.48,0,0,0,.45.45,5.8,5.8,0,0,0,.91,2c0,.23-.23.45-.68.68l.22.45c.23.46.23.69.46.69l.22-.23c.23-.23.23-.23.46-.23a2.52,2.52,0,0,1,1.13,2.27.49.49,0,0,1-.45.46c0,.9,1.36,2,.68,2.72-.68,0-1.13-1.13-1.36-1.36-.91,0-1.36.91-1.36,2.73l.22.45v.68a.84.84,0,0,1-.22.68l1.36-.22c.23,0,.45.9,1.36,1.13.23,0,.91-.23,1.14-.23,0-.68-.23-.9-.91-.9l.68-.46A1.52,1.52,0,0,1,237.7,821h-.91a2.36,2.36,0,0,0,.91,1.82,4.53,4.53,0,0,1-2-.46l.23-.22c.23-.23.23-.23.23-.46a10.11,10.11,0,0,0-1.82.46c0,.22.68.68.68.9a.84.84,0,0,1,.23.69c0,1.13-.23,1.81-.46,1.59a5.59,5.59,0,0,1-1.81.9,8.05,8.05,0,0,1,.68,3.64l-.23,1.59.68.23a1.37,1.37,0,0,1-.23.91,4.33,4.33,0,0,1,3,1.13c-.23.23-.46.23-1.14.23-.23,0-.23.22-.23.68-.22.23-.68,0-.68.68,0,.45.46.68,1.59.68.23,0,0-.91.69-.91l.68.46c0,.22-.23.45-.68.45l.68,1.14c0,1.82-1.37,1.82-1.37.22,0-.45.23-.68.46-.68a13,13,0,0,1-1.59-.22c-1.82,1.81-.23,2-.23,3.18a3,3,0,0,1,.68,1.81h-.45l-.23-.22-.68.22v-.9a2.85,2.85,0,0,0-1.59,1.36l-.45.23c0,.45,0,.68-.23.68a.6.6,0,0,1-.68-.68c-.23,0-.46.68-.46,1.81v2c0,.9,0,1.36-.23,1.36-.45,0-.68.68-.68,1.82v.22c.23.23.23.23.23.46-.23.23-.23.68-.23,1.36V854a6.74,6.74,0,0,1,.68,2c-.45.23-.68,1.59-.68,4.54v3.86c0,.91.23,2.28.23,3,0,.22-.68.45-.68.68l.45.45a14.86,14.86,0,0,0-.45,2c0,.23.23,1.82.23,2.5s0,1.13-.23,1.36a10.33,10.33,0,0,1,2,5.91c0,.9,2.27,2.27,2.27,3.4.69,0,.91.46.91,1.14a.86.86,0,0,1-.22.68V886c0,.68.45.68.45,1.37,0,2-2.72,3.86-2.72,4.09l-.69,3.4a14.4,14.4,0,0,0-1.13,4.77,7,7,0,0,0,.45,1.59c0,.91-.45,2.27-.45,2.95,1.36,3.87,2.27,3,2.27,4.32l-.68-.23h-.68c-3,0-1.37,2-2.73,2.5a2.5,2.5,0,0,0-2-.68c0-.68-2.5-1.82-2.5-2A3.34,3.34,0,0,1,223.84,906.45Zm-8-27.72c-.23.23-.23.46-.45.46,0-.23-.23-.46-.91-.46l-.91,1.14c-1.59,0-3.41,3-4.32,3.86l-.22.46.45.9a1.73,1.73,0,0,1,.23.91.49.49,0,0,1-.46.46h-1.13c0-.68-.46-1.14-1.59-1.14-6.14,4.55-5,7.5-3.41,11.13.23,0,.46.46.91,1.36l.45,1.6c.23,0,.91.22.68.45,0,.23.23.45.69.45l.45-.22h1.36l.46.22a.49.49,0,0,1,.45.46c.23,0,.68-.68.91-.68a1.78,1.78,0,0,0,1.14.45,17.13,17.13,0,0,0,5.45-1.59c2.72-1.14,4.54-2.27,5.22-3.41l.68-1.13a29.39,29.39,0,0,1,2.73-4.32c-.91-.22-1.36-1.13-1.36-2.5a5.67,5.67,0,0,1,.45-1.59c-.23-.22-.23-.68-.45-1.13,0-.23,0-.46-.23-.46,0-.22.23-1.36.23-1.59,0-.9-.46-2.72-.46-3.63,0-1.14-.22-1.59-.68-1.59l-.68-.23-.46.68a2.35,2.35,0,0,1-1.13-.68c0,.23-.23.46-.68.46l-1.82-.46c0,.68-1.59.68-1.59.91Zm16.36-52.47.22-.45c.23-.23.23-.45.46-.45l.68.22.68-.68c-.68-2.95-1.14-4.31-1.36-4.31a.86.86,0,0,1-.68.22c0-.68.45-1.13.45-1.36a.83.83,0,0,1-.68-.23l-.68-.45-.46.91a4.81,4.81,0,0,0,1.37,1.82,9,9,0,0,0-.69,2.27A8.62,8.62,0,0,1,232.25,826.26Zm4.77,0a.6.6,0,0,1-.69-.68Zm.68,7a2.11,2.11,0,0,1-1.14-.68,3,3,0,0,1,1.14-.23Zm-.68-2.73c0-.45.45-.68,1.13-.68C238.15,830.35,237.7,830.58,237,830.58Zm.9-10.9c-.22,0-.45-.46-.45-1.36C237.7,818.32,237.92,818.77,237.92,819.68Zm.23,1.13c.68,0,.91.46.91,1.37-.23,0-.46-.23-.68-.68Z"/><path class="cls-2" d="M255.41,892.82h-.91a7,7,0,0,0,.46,1.59v1.13c0,.23-.23,2.05-.46,5l.23.46c.23.22.23.45.46.45v.45c-.23.23-.23.23-.23.46.23,0,.23.22.23.68,0,.23.22.45.22.68l-.22,1.36a18.3,18.3,0,0,0-1.14,5c.45.23.68.91.91,1.59a8.81,8.81,0,0,0-1.59,5.22c0-.22-.23-.45-.91-.45a2.81,2.81,0,0,1-2,.68c0-.23-2.28-1.82-2.5-3.63a2.07,2.07,0,0,1-.69,1.13l-2.49-2.49c0-2.73-1.82-4.32-.91-5.23l-.68-.45c0-.23.68-1.59.68-1.82l-.46-.91c2-.68-1.13-4.77.91-4.77a6.24,6.24,0,0,1-.91-3.18c0-1.14.91-5.45.91-7.27v-.23l.23-.45a1.71,1.71,0,0,0-.23-.91l-.22-.45v-1.59l.45-1.82a2.64,2.64,0,0,1-.45-1.59c1.13-2.73-.69-3.63,0-5l.22-.22a.87.87,0,0,0-.22-.69l-.23-.45v-.23c.23-.22.23-.22.23-.45-.23,0-.23-.23-.23-.68,0-.68.23-2,.45-4.09l.23-2.95a.49.49,0,0,1,.45-.46c-.45,0-.68-2.5-.68-7.72,0-2.27.23-3.64.68-4.09a2.08,2.08,0,0,1-.68-1.14c0-.22.23-.45.46-.68,0-.22-.91-.45-.91-1.13,0-1.59.68-5.45.68-6.36a2.6,2.6,0,0,0-.68-1.82c.23,0,.45-.23.45-.68v-1.14c0-.45,0-.68.23-.9,0-.23-.68-1.14-.68-1.82v-2c0-.45.23-.68.45-.68-1.13-.91-1.59-2.27-1.59-4.31,0-1.14.46-4.09.46-5,0-.68,0-.91-.23-1.14a4.34,4.34,0,0,0,.23-1.81c0-1.82-.91-5.45-.91-7.27,0-.23.22-2,.68-2a1.35,1.35,0,0,1-.68-1.36,8.29,8.29,0,0,1,.45-1.36l-.23-.23v-.68a.83.83,0,0,1,.23-.68v-1.82a.83.83,0,0,1,.23-.68c-.23,0-.46-.46-.46-1.14,0-.91.46-3.86.46-4.54s0-.91-.23-1.13l.46-.46.22-.23v-.45a1.48,1.48,0,0,1,0-1.36l.23-.68c0-.23-.23-.46-.45-.69l.22-.45c.46-.23.91-2.73.46-4.09v-.68c.68,0,1.13-.45,1.13-1.59v-.91c0-1.82,4.09-4.32,4.09-5.22l1.14-1.14h.23c.22.23.45.45,1.13-.23,2.5.68,6.81,4.32,6.81,6.36,0,.23.91,1.14.91,1.82a6,6,0,0,0-2,4.32c0,.22.23.9.23,1.13l-.46.23a1.33,1.33,0,0,0-.45,1.14c0,.22-.23.45-.46,1.13a1.36,1.36,0,0,1,.68,1.36L255.64,804c-.23,0-.45.23-.45.69.68,0,1.13.9,1.13,2.95l-.23,3c-.22,1.59-4.54,3.64-4.54,3.86s.45.91.45,1.14v.23c-.22.22-.22.22-.22.45l.22.91c0,.23-1.13.68-1.36,1.36a6.25,6.25,0,0,0,.68,1.82c-.22,0-.45.23-.45.91,0,.23.23,1.13.23,1.36a.49.49,0,0,1-.46.45,5.93,5.93,0,0,0-.22,2.28c0,3.4.45,5,1.13,5-.23.69-.45.91-.45,1.14,0,.45,0,.68.22.91-.22.91-.45,1.59-.45,1.81l.23.46.22.45c-.22.23-.45.46-.45.68v6.14c0,1.13.68,4.09.68,5.22v.91c-.23.23-.45.46-.45.68s.22.46.68.46l-1.14.22c0,.69.68,3.64.68,4.77s-.22,1.82-.9,2c0,.22,0,.22.22.22l.46.23a.83.83,0,0,0-.23.68,17.6,17.6,0,0,0-.45,4.32c0,6.13.22,9.54.68,10,0,.46,1.36,1.14.45,1.14,0,.23,0,.23-.23.45.46.23.68.23.68.46a1.7,1.7,0,0,1-.45,1.13c.23,1.37.91,2,1.59,2h.23l.45.22c.68,0,1.59-1.36,2.5-3.86.91-2.72,1.82-4.31,2.5-4.54,0-2.73,4.31-6.36,5-7.27,1.36-2.5,2-3.63,2.27-3.63A5.57,5.57,0,0,1,270,856.7a5,5,0,0,1,2,.23l3,1.36,2.27,1.14,2.95,2c.91.68,2.5,3.64,3.63,4.32a14.74,14.74,0,0,0,2.05,4.31,15,15,0,0,1,.23,3.64,109.58,109.58,0,0,1-1.59,13.4c0,.68.45,3.18.45,4.32-.68.68-.91,1.81-.91,3.63a7,7,0,0,0,.23,2.5c.23,2.72,2.95,7,3.18,8.17-.68,2-1.59,3-3.18,3-.91,0-3.63-1.14-7.95-3.64a.82.82,0,0,1-.23-.68,15,15,0,0,1-1.59-5.9v-1.37c0-.91.68-1.59.68-1.81,0-.69-.22-2.5-.22-3.41a5.84,5.84,0,0,1,.22-2.27c0-.68.23-2.27.46-5.23s.45-4.77.45-5.45a27.37,27.37,0,0,1,.68-5.68c-1.59-3.18-3.4-4.77-5-4.77a1.25,1.25,0,0,0-1.14.69l-.91.68-.68.45c-1.59,2.5-5.45,5.91-8,5.91,0,3-.68,4.31-2,4.31,0,2.5-1.82,4.32-2.05,5.23a15.12,15.12,0,0,1-2.72,4.31A3.76,3.76,0,0,1,255.41,892.82Z"/><path class="cls-2" d="M333.55,876.46l-.68.46L332,876c-.23,0-.46.23-.68.45v1.14a1.19,1.19,0,0,1-.46.91c1.82.68,2.73,3.41,2.73,8.17,0,1.82-1.36,7.27-1.36,10a12.08,12.08,0,0,0,1.59,5.9c.22,0,2.27,1.82,6.13,5.68l4.09-.68v.68l.22.68c0,1.14-.45,1.82-1.59,1.82H341.5a9.91,9.91,0,0,0-2.27.46c-.68-.68-7-1.59-7-3-1.14,0-1.59-.45-1.59-1.13,0-.23-.23-.46-.91-.46a3,3,0,0,0-2.5-1.13,7.7,7.7,0,0,1-3.41-6.59,26.22,26.22,0,0,0-.45-5.22c-.23,0-.68-.69-.91-.69-.68,0-1.59,3.18-2.27,3.41-.68,0-1.82,4.55-3.86,5.23l-.46.68-.23-.23-.22-.45a20.08,20.08,0,0,1-2.73,1.59c-.23,0-.68-.46-1.36-.46-.23,0-1.14-.23-1.36-.23l-.46.23a.83.83,0,0,1-.68.23c-3.63,0-9.77-4.09-10.68-7L297,894q0-7.16,2.72-8.86l-.22-.22c-.23-.23-.23-.23-.23-.46.23,0,.45-.91,1.14-.91a.83.83,0,0,0-.23-.68c1.59-4.54,6.81-9.08,7-9.08,0-2,3.86-5.45,5.91-5.45,0-.69,1.81-1.59,5.22-2.73q5.12-2,7.5-2c1.36,0,8.4.45,8.4,12.72Zm-10.9-1.36-.46.68c-.23,0-.68-.45-1.36-.45,0,.68-3.41,1.81-3.41,2-.68.68-4.31,3.64-5.9,3.64,0,1.59-5,5.45-5,6.58-.91.91-1.59,3-2.27,3.64a11.28,11.28,0,0,0,5.45,1.59l.68-.46c.45-.22.68-.45.91-.45l.45.23a.86.86,0,0,0,.68.22,8,8,0,0,1,2.5-1.81l1.82-.68c.23-.69,2.5-1.6,3.63-2.5,1.37-1.14,2.05-1.82,2.05-3l.23.23h.45c.68,0,2.5-5,2.5-5.91.23-.22.23-.68.23-1.13,0-2.73-2.05-2.27-2.05-3A1.31,1.31,0,0,0,322.65,875.1Z"/><path class="cls-2" d="M383.29,865.11c0,.9-1.82,2.27-2.5,2.27s-2.5,2-3.18,2c-6.59,6.59-5.9,10.22-7.27,10.22l-.45,1.59-.45.23a2.76,2.76,0,0,1-1.6,1.59c.23.23.23.23.23.45l.23.23c0,.46-.68,1.14-1.82,2,0,.9-.68,2-.68,2.72-.23.23-.45.46-.68.46l-.23.68a.48.48,0,0,1-.45.45c.23.23.23.46.23,1.14a1.25,1.25,0,0,1-.91,1.36c.22.23.22.68.22,1.36v1.37a3.68,3.68,0,0,0-.68,2v.91l-.22,1.82v.45a1.77,1.77,0,0,1,.22.91,1.18,1.18,0,0,1-.45.91c0,.22,1.82.22.23,1.81a1.24,1.24,0,0,1,.68.91v1.37c-.23.68-2.73.68-2.73,2.27,0,.68.68,1.59.68,1.82l-.91.45c-.68,0-2.95-.91-2.95-1.82,0-.23-.91-.91-1.14-1.59-.22.23-.45.23-.9.23a2.21,2.21,0,0,1-2.27-2c.22-.9.45-1.59.45-1.81a2.19,2.19,0,0,0-.45-1.59c0-.68.45-1.14.45-1.36,0-.69-.45-.69-.45-1.37.22-.22.45-.45.45-.68a2.17,2.17,0,0,1-.45-1.59c0-1.59.45-.91.68-1.82-.23,0-.68-.45-.91-1.36.45-1.14-.46-2.5-.46-4.31a8.7,8.7,0,0,1,.46-1.37c0-.23-.91-.45-.91-1.13l.23-.23c.22-.23.22-.23.22-.46a32.86,32.86,0,0,1-2.27-6.13,28.91,28.91,0,0,1-1.36-5.68c-1.82-4.77-4.54-8.17-4.54-10l1.81-3h.68l.23-.23a10.76,10.76,0,0,1,2.05.68l.45.45c.23.23.45.46.68.46.23-.23.46-.46.68-.46a1.74,1.74,0,0,1,1.37,1.82.82.82,0,0,1,.68-.23,5.75,5.75,0,0,1,1.59.46,1.68,1.68,0,0,0-.23,1.13c0,1.14,2,2.73,2,3.64,0,.23-.68,0-.68.68v.91a1.18,1.18,0,0,1-.45.91c1.13.68,1.82,2.27,1.82,4.54a11.05,11.05,0,0,1,1.36,5c1.14,0,1.82-2.27,2.27-3.86h.23c.22.22.22.22.45.22,2.5-2.95,4.09-5.67,4.32-7.72.91-3.86,3.86-3.41,3.86-4.09.68,0,.68-.45.91-.45l.22-.46a1.22,1.22,0,0,1,.91-.45c3.41-3.41,6.36-5.22,8.63-5.22.91,0,2.5.45,3.19.45.45,0,.68,0,.9-.23a4,4,0,0,1,1.59.68l1.37.69c0,.68.9,1.81.9,2.72a1.89,1.89,0,0,1-.45,1.36c-.45.46-1.36,1.82-2.73,2-.9-.23-1.13-1.82-1.36-2Z"/><path class="cls-2" d="M410.77,854.66c1.82,0,5.68-.23,7.27-.23,2,0,5.68.45,7.5.45,1.13,0,4.09-1.36,5-1.36l.45.23h.45c1.59.91,2.5,1.36,2.5,1.59l-.45.45.23.68c0,.23-1.37,1.14-1.37,2-1.81.23-3.18,2-4.77,2h-.91c-.45.23-.9.23-1.13.46l-.23.23a12.18,12.18,0,0,1-4.09.45,14.1,14.1,0,0,1-3,.68c-1.59,0-5.45-1.59-6.59-1.59a9.07,9.07,0,0,0-1.36.46c-.23.22-.68.22-1.82.22a5.05,5.05,0,0,0-2.27.23c-.91.23-1.82,1.82-2.5,2a1.2,1.2,0,0,1-.68.91c0,2.05-.91,8.41-.91,10.9v2.73c0,1.14-2,4.32-2,5.45,0,.91-.23,3.18-.23,4.32a5.63,5.63,0,0,0,.23,2.27c0,.23,1.59,3.18,1.59,4.77a2.63,2.63,0,0,0-.46,1.59c0,.91.91,3.18.91,4.77a13.33,13.33,0,0,1-.22,1.59,32.31,32.31,0,0,0,.9,4.54,21.22,21.22,0,0,0,.69,2c0,.22.22,1.13.22,1.36a13.36,13.36,0,0,1-.68,2.5l1.82,4.77c.23.22.45.45.68.45a12.9,12.9,0,0,1,2.27-.45c0,.91,2.5,2,2.5,3.18,0,.23-.23,2.27-.23,2.95,0,.45,0,.68.23.91,0,.68,1.14,2.5,1.14,3.41a2.43,2.43,0,0,1-.23,1.13c0,1.59-3,3.64-4.09,3.64-4.54-.46-5.68-3.64-7.72-5.68q-.35-1-3.41-3.41a1.84,1.84,0,0,0,0-1.59l-.45-.45c0-.23.45-.68.45-1.37,0-.22-.68,0-.68-.68-.23-.68-.23-4.77-.46-5.45,0-.23,1.37-2.27,1.37-2.5l-.46-.45a4.05,4.05,0,0,1-.45-1.14c.45,0,.68-.22.68-.45s-.45-.46-1.14-.91c0-.23.23-.91.23-1.14a1.81,1.81,0,0,0-.45-.91,1.73,1.73,0,0,0,.22-1.13,30.37,30.37,0,0,0-1.36-3.64c0-.22.46-2.27.46-3.17v-3.64c0-.68.22-1.59.22-1.82v-.22l-.68-1.14a24.49,24.49,0,0,0,.68-3c0-.91-.68-1.37-.68-2a30.77,30.77,0,0,0,1.14-4.77c0-.68-.68-1.13-.68-2s-.23-4.77-.23-6.36a11,11,0,0,1,.23-3.18v-4.77c0-1.14,0-1.82.22-2.05-1.13-.68-2.5.69-5,.69-1.59-1.14-8.18-2.05-8.64-3.86-.9-.69-1.36-2.28-1.36-4.78.46,0,1.14-.9,1.59-.9l.46.22c0-.91.45-.68.68-.45l.68.45a29.63,29.63,0,0,1,9.31-1.36c.68,0,1.82-.23,2.73-.23.45-2.72.68-4.31.68-4.77,0-.22-.23-.9-.23-1.13a.82.82,0,0,1,.23-.68,6.28,6.28,0,0,1,1.36-3,2,2,0,0,1-.68-1.36c-.23-.23-.23-.45-.23-1.13,0-.46-.22-.69-.45-.69.68-.68.91-2,.91-4.09a21.85,21.85,0,0,0,.91-5.67c0-.23-.23-1.59-.23-1.82a2.07,2.07,0,0,1,.68-1.59c-1.14-.45-1.59-1.82-1.59-4.32a5,5,0,0,0-.45-2.27,5.88,5.88,0,0,1,4.08-2,6,6,0,0,1,2.5.68c0,.45,0,.68.23.68l1.14,1.14.9.9a7.27,7.27,0,0,1,1.82,5.23,3.61,3.61,0,0,1,.68,2.5v1.13c0,.69,0,1.14.23,1.37l-.91,8c-1.59,1.13-2.27,3.18-2.27,6.58,0,1.14.23,3,.45,5.68A16.83,16.83,0,0,0,410.77,854.66ZM387.38,914.4c0-.69,0-.91-.23-.91,0-.68.46-.91,1.36-.91,1.14,0,1.59.45,1.59,1.36A6.42,6.42,0,0,1,387.38,914.4Zm4.77-14.31a.6.6,0,0,1-.68.68,1.21,1.21,0,0,1-1.37-1.36A2.77,2.77,0,0,1,392.15,900.09Zm.68,15.67h-.91V914.4l1.36.45a.85.85,0,0,1-.22.68Z"/><path class="cls-2" d="M453.48,911.9c-1.82,0-6.14-2.27-6.36-2.27l-2.05-.69a.7.7,0,0,1,.23-.45c.23-.68.45-.91.23-.91a8.24,8.24,0,0,1-2-2.72,26.63,26.63,0,0,0-.68-3.18c0-.68-.23-1.82-.45-3.64,0-.23.45-4.09.45-4.77v-8.18a14.9,14.9,0,0,0-.23-3.63,10.38,10.38,0,0,0-.68-2v-1.14a5.92,5.92,0,0,0,.23-1.59q0-.35-4.09-2.73c-1.59,0-2.27.46-2.27,1.37a52.37,52.37,0,0,0-2.73,5c0,.9-2,4.76-2,5s-1.14,2-1.14,3.64v2a14.65,14.65,0,0,0-.45,2,27.65,27.65,0,0,0-.91,4.32L428,898a.49.49,0,0,1,.45.46c0,.22-1.14,1.81-1.14,2.5.69.9.91,3.4,1.14,4.08-.68.23-.91,1.14-.91,2.73,0,.68.23,1.13.46,1.13-.91.69-.91,4.32-1.14,4.55a6.77,6.77,0,0,1-3.41,1.13,3,3,0,0,1-1.59-.22,8.71,8.71,0,0,1-2.95-2.27c-.23,0,0-.46-.68-.46s-.91-.23-.91-.68l-.45-.91-.46-1.59c-.68.45.23-4.09.46-5.68a8.36,8.36,0,0,1-.46-2.72,28.74,28.74,0,0,1,.23-4.55c.23-1.59,0-3.18.68-5.67l.91-8.86c0-1.59-.23-5-.23-6.14a9.22,9.22,0,0,1,.23-2.72c.23-8.18.45-15.22.45-21.35,0-4.55-.22-11.13-.22-13.18a59.16,59.16,0,0,1,.22-6.58c-.45-.46-.68-3.64-.68-9.77l.23-.68v-1.82c-.23,0-.23-.45-.23-1.14a12,12,0,0,1-.23-3.63c0-2,.23-8.41.23-10a.83.83,0,0,0-.23-.68c-1.13-6.81-1.81-10.9-1.81-12.49l1.36-2.72a3.58,3.58,0,0,1,2.27-1.14l3.64.91h2c0,.23-.23.45-.45.68,0,.91,4.54,3.41,4.54,3.63.45.91.23,3.18,1.36,3.18v1.14a57.17,57.17,0,0,1-1.36,10.22L428,815.59c-1.14,2.5-1.59,7.72-1.59,16.13a7.9,7.9,0,0,1,.68,2.72c-.46.23-.68,1.36-.68,3.64,1.36,1.36,0,1.59,0,5.45v6.36l-.46.68a4.39,4.39,0,0,0-.23,1.59,10.28,10.28,0,0,0,.69,2c-.46,6.59-.91,11.13-1.37,14.09a13.93,13.93,0,0,1,.68,2.27l-.68.45c0,.68,1.14,5.68,1.14,5.91,2.27-.68,1.13-.91,2.95-2.73,0-.23,1.14-1.36,3.18-3.4.68-1.59,4.32-5.68,5.45-5.68h.91c.23-.69.91-.91,1.82-.91H441l.23-.23.23.23h.45l1.82.45H446c.68.23,2.73,4.09,4.32,5.23a22.08,22.08,0,0,1,2.27,9.08c.22,4.32.45,9.31.45,15,.23,0,.46.23.46.91a2.09,2.09,0,0,0-.69,1.14,12.49,12.49,0,0,1,.23,1.59c-.45.22-.68.45-.68.68.23.45.45.68.45.91-.22,1.59-.45,2.5-.45,3,0,.23.23,1.82.23,2.73.22,2.49,1.13,3.86,2.72,3.86h1.14c.45,0,.68,0,.91.22,0,3-.91,2-2.73,2.73C454.38,911.9,454.16,911.9,453.48,911.9Z"/><path class="cls-2" d="M577.72,910.76c0-.22.46-1.13.68-2l.23-.46,3.18-6.81c1.82-4.09,3-6.36,3.41-6.82,0-1.13,1.59-3.4,1.59-4.08,0-.46.91-.91,1.82-3.87,1.59-2.95,2.27-5.22,2.27-6.35l.68-.69c0-.91.23-1.36.91-1.59-.23-.22-.23-.45-.23-1.13,0-3.18,4.09-9.54,3.41-9.54.68-.68,1.59-5.23,1.81-5.91,0-4.54.91-8,3-10.22,0-1.82.45-2.72,1.13-2.72,0-.23-.68-.69-.68-.91.68-1.14.91-5.91,2.05-6.59a5,5,0,0,1-.23-2,15.18,15.18,0,0,1,1.82-7.5,12.94,12.94,0,0,1-.23-3.41c0-4.54.23-7,.91-7.27,0-1.36-.68-13.4-1.14-13.4.23-.23.23-.68.23-1.36v-1.59c0-.23-.23-.91-.23-1.14a1.69,1.69,0,0,1,.46-.9,5,5,0,0,1-.23-1.82l-.68-5.91-1.14-5.9v-1.37c0-.68,0-1.13-.23-1.36l-1.36-3.86v-1.36a7.55,7.55,0,0,0-4.31-5.91,3.85,3.85,0,0,0-.46-1.14l-.68-.9c0-.46-.23-.68-.45-.68l-.69-1.37a11.48,11.48,0,0,0,.46-2c-.68-.46-.91-.91-.91-1.14.23-.22.23-.45.23-1.13a.82.82,0,0,1,.68-.23c1.13,0,5.45,4.09,7.27,4.09a1.81,1.81,0,0,1,.91.45l.68.46c.45,0,.91.68,1.59,1.81l.91,1.82c2,0,3.18,3,3.86,8.63,0,.91,5.22,3,5.45,5-.23.23-.46.45-.46.68a.82.82,0,0,0,.23.68,17.6,17.6,0,0,1,.23,2.05v1.36a1.72,1.72,0,0,1,.45,1.13v3.19l.68,1.59c.69,1.13,0,0,1.82,7l.68,2.27c0,.68-.22,2.5-.22,3.63a1.72,1.72,0,0,0,.45,1.14,5.18,5.18,0,0,0-.68,2.95c0,2.05.23,3,.45,3.18a.82.82,0,0,0,.23.68v.23c-.23.68-.23,2-.91,2.72,0,.23.91.46.91,1.14a11.19,11.19,0,0,0-1.14,4.54,23.71,23.71,0,0,0,.69,4.09c-.69,5.68-1.37,8.86-2.05,10l.23.45v.91a2.85,2.85,0,0,1-.91,2.5,1.69,1.69,0,0,1,.23.91l-.23.22v.46a4.36,4.36,0,0,1,.23,1.82c0,1.13-2.27,6.35-2.27,8.17,0,2.05-1.14,4.77-3.41,8.18a10.46,10.46,0,0,0-1.59,4.09c0,.68-1.14,4.31-1.14,4.54,0,1.59-1.59,3.86-2.72,5.45l-.68,1.14c0,1.13-1.59,3.63-2.73,5.22l-.91.91h-.23l-.45.23v.22l.23.46c0,.68,0,.91-.23,1.14-3.41,3.17-5.22,5.45-5.22,7l-3.41,5.67a24.81,24.81,0,0,0-2.05,4.32c-.68.23-2.27,3-4.77,7.72-.68,1.14-.9,10.45-4.54,9.54v.46l-.23.45a2.86,2.86,0,0,0-1.36.23.83.83,0,0,0,.23.68c.23.68-4.09,5-5.68,5.91a9.35,9.35,0,0,1-3.41.9,6.23,6.23,0,0,1-2.95-.68c-.45.46-.68.68-.91.68-.68,0-.91-.22-.91-.68-.22-.22-.22-.68-.22-1.59,0-.22-.23-.45-.91-1.13a1.69,1.69,0,0,1-.23-1.14v-1.13c0-.91-.68-2.73-1.36-5.68,0-.23.22-.46.45-1.14,0-.22-.68-.68-.68-.91,0-.45,0-.68.23-.68-1.37,0-1.14-1.13-1.14-2.72l-1.59-3.86c0-.23.23-1.14.23-1.82l-.68-.68c0-.69,0-1.14-.23-1.37a.49.49,0,0,0-.45-.45v-1.36a1.69,1.69,0,0,0-.23-1.14c-.23,0-.23-.23-.23-.91l.46-.91h-.91l.22-1.13c-.22,0-.45-.23-.45-.68l-.68-3.41c-.23-.23-.23-.68-.23-1.36a7.17,7.17,0,0,1-.45-1.59,90.45,90.45,0,0,0-2.5-9.09l-2.73-11.81a10.54,10.54,0,0,1-.45-1.82c0-.22-.46-1.13-.68-2l-.23-.46c0-.22.23-.9.23-1.13,0-.68-1.14-2.5-1.37-3.64-.22-1.59-1.59-6.36-1.81-7.49a48.7,48.7,0,0,0-1.14-6.36c-1.36-6.59-5.68-16.13-6.81-20l-.68-1.36c-.46-2.5-5.23-11.81-5.46-11.81-1.59,0-3.4-5.68-3.63-5.91-3.41-3.41-5.45-5-6.36-5-1.59,0-2.27-.23-2.27-.91a4.28,4.28,0,0,1-1.82.46,12.2,12.2,0,0,0-4.31,1.13l-1.37.69c-.68.22-2.27,2-4.77,5.22-2.27,3-3.4,5-3.4,5.91,0,.22.22.45.68.45a6,6,0,0,1,1.81-1.36c1.37,0,.23.68.23,1.59l-.91,3.63a6.89,6.89,0,0,0-3.63,3.64v.68c0,1.59-3,5.22-5.45,7.26l-2,1.59-.45.69c-1.59.91-3.86,5.67-4.09,6.36l-1.14.9a6.31,6.31,0,0,1-3.4.91,6.11,6.11,0,0,1-3.18-.91c-.23-1.36-.68-2-1.14-2.27,0,.46-.23,2.27-.68,2.27-.23,0-.45-.45-.45-1.59,0-.22-2.05-4.54-2.05-5.45a4,4,0,0,1,.23-1.36c0-1.82,2-6.81,2-8.86a10.38,10.38,0,0,0,.68-2c0-.46,1.14-1.14,1.14-1.59l.68-.68q.34-3.07,4.77-6.82c3.18-2.5,5-4.31,5.23-5.45,2-3.41,9.08-5.91,11.13-5.91.22-.22.68-.22,1.36-.22l2-1.37,2.5-.9.46-.23a1.34,1.34,0,0,1,.91-.23l.68-.68c1.36-.68,4.08-.91,8-.91,4.08,0,8.17.46,9.76.46h.68a3.88,3.88,0,0,1,3,3c0,.68,6.81,1.59,6.13,2.95l1.14,2.73c.45,0,.9.68,1.13,2.27l.46.91c1.13.68,3.4,5,3.4,6.13.23.23.46.46.46.68.91.68,3,5.45,4.09,6.36-.23.23-.23.46-.23.91,0,.23,1.13,1.82,1.13,2.73a3.63,3.63,0,0,1,.91,2.27c0,.23.23.45.46.68l.45.45a.82.82,0,0,1-.23.68c.23,2,1.59,5,2.28,7.73,0,1.13.22,2.95.45,5.45.23,1.59,1.59,5,1.82,6.81l.91,4.09a10.67,10.67,0,0,1,.22,3.18,17.07,17.07,0,0,1,.91,2.5v.91l.68,2.72c0,.69,0,1.14-.22,1.37a2.94,2.94,0,0,1,1.13,1.59,9.22,9.22,0,0,0,.23,2.72c0,.68.45,1.37,1.13,3.41v.23a.84.84,0,0,0-.22.68c.22.68.91,7,2,9.54,0,.23-.23,1.13-.23,1.36l.69,2.73v1.13l.68,1.82v1.59c0,.68.45,2,.45,3.18a.82.82,0,0,0,.23.68v.46c-.23.22-.23.22-.23.45l.23.23.45.23v3.4l.68,1.36v1.82c.69,0,.91.91.91,2.73,0,.45,0,.91.23,1.13,0,.91.45,2,.45,2.73l.46.91a8.77,8.77,0,0,1,.45,1.59,6,6,0,0,1,.68,1.81l-.22.23c0,.68.68,1.14.68,1.82C573.63,919.17,575.91,916,577.72,910.76Z"/><path class="cls-2" d="M639.73,863.74c1.59,0,2.73,1.14,4.32,1.14.45,0,.68,0,.91-.23l2.27.68a5.09,5.09,0,0,1,2.72,1.59c2.5,2.73,4.32,4.77,4.09,8.86,0,.68-.23,3.41-.23,4.32a10,10,0,0,1-1.13,2c0,.23.23,1.14.23,1.36a.84.84,0,0,1-.23.69c-.68,0-.91.22-.91.68a.83.83,0,0,0,.23.68c-.91,0-1.82,1.36-2.5,2.27l-.46.68a10.94,10.94,0,0,0-2,1.14,11.44,11.44,0,0,1-2.73.91,33.55,33.55,0,0,1-4.54,2.49c-.23,0-.91-.68-1.59-.68-.91,0-2.95,1.37-4.77,1.37-1.13.22-1.59.9-1.59,2.49a7.65,7.65,0,0,0,3.64,7c.22.22.9.22,1.81.22.23,0,2,.23,2.73.23a5.58,5.58,0,0,0,1.82-.45c.9-.23,1.59-1.14,2.72-1.82.68,0,1.14,0,1.36-.23.91-1.59,6.36-3.41,6.59-3.63l.68-.46.23.23h.45c.46-.68.69-1.14.91-1.14l1.37-.68c.45,0,1.13-.68,1.81-2.27.23-.23.68-.23,1.37-.23l.45-.68.91-1.13c.23,0,.45.23.68.45.23-.68,2-2,2-3.18,1.14-.23,2.28-1.82,4.09-2,0,.68.91.91.91,1.13-.22,1.14-3.63,5-3.63,6.14a16.11,16.11,0,0,1-3.41,4.08c-.23.23-.68.23-1.36.23-2.05,2.05-3.18,3.41-3.41,4.09-.91,0-2.27.68-2.95.68-1.14.91-1.37,2.5-3.86,3.18-.46,0-.69,1.36-.69,1.82-1.58,0-5,1.36-5.22,1.36-2,2.05-3.41,3.18-4.09,3.18a6.85,6.85,0,0,1-2-.68,2.05,2.05,0,0,1-1.14.68c-.91,0-2.72-1.59-3.63-1.59a.82.82,0,0,0-.68.23c-.69-.68-3-1.36-3.64-1.59a16.71,16.71,0,0,1-3.18-4.09,21.21,21.21,0,0,1-1.36-4.77l-.46-.91-.45-.45v-2.5l-.91-.91.23-.45c.91,0-.91-3.86,0-4.55a20.39,20.39,0,0,0-.46-2.95,3.24,3.24,0,0,1,.46-1.59,1.17,1.17,0,0,0,.45-.91v-.91l.23-.68a14.76,14.76,0,0,0,2.27-6.59c3.86-2.95,5.68-5.45,5.68-7.72l1.14-.68c1.81-1.14,3.63-2.27,3.86-3C636.1,865.11,639.05,864.42,639.73,863.74Zm1.36,21.35a.87.87,0,0,0,.69-.22l1.36-3c.91-.69,1.36-1.14,1.36-1.59a18.35,18.35,0,0,0,1.36-5.46,7.84,7.84,0,0,0-1.81-4.08c-2.27.9-2.73,1.13-5,.45-.23,0-.23,0-.45.23l-.23.45c-2,.23-5.68,4.09-5.91,5.91a2.83,2.83,0,0,0-.91,2.5c0,.9.23,3.4.23,4.31a5.6,5.6,0,0,1-.23,2.27,11,11,0,0,0,2.73.68,5.85,5.85,0,0,0,2.5-.68C638.6,885.78,640,885.09,641.09,885.09Zm29.53,9.32c-.68,0-.45-.91-.22-1.14C671.53,893.5,671.53,894.41,670.62,894.41Z"/><path class="cls-2" d="M705.15,910.54c-.23,0-.46.22-.68.45l-.46.23c-.91,0-3.18-.68-4.77-.68a10.5,10.5,0,0,1-3-1.82l-.68-.46a3.9,3.9,0,0,1-.68-2.72c0-.46-.91-.68-.91-1.59s.22-2.27.22-2.5a5.43,5.43,0,0,0-.9-2.73c0-.22.22-1.59.22-2.27,0-.91-.68-3.41-.68-4.31a11.63,11.63,0,0,1,.46-2.5c-.23-.23,0-1.82-.69-2l.69-1.36c-1.37-1.36-2.28-5-2.73-6.13v-.46c-.45-.45-.91-2.72-2.5-2.72-.23.68-2.27,3-2.27,4.09l-.91,1.13v.23c-.91,1.82-1.59,2.72-2,2.72a2.11,2.11,0,0,1,.68,1.14c-.68,0-.91.45-.91,1.59a3.92,3.92,0,0,0,.23,1.36v.91c0,.91-1.82,4.09-1.82,4.77v1.36c0,2-.23,3.64-.91,4.32L679,901.9a2.78,2.78,0,0,0-.69,2.05c0,.91.46,3.63.46,4.31-.23,0-1.14,2.28-3.18,2.28-.68,0-.91-.23-.91-.91.23.68-4.54,0-5.22-1.59,0-.69-.23-1.59-.23-1.82a.82.82,0,0,1,.23-.68,7.13,7.13,0,0,1-.91-3.64,2.05,2.05,0,0,1,.68-1.59,3.2,3.2,0,0,1-.46-2v-1.36c0-.23-.68-1.14-.68-1.37a1.75,1.75,0,0,1,.46-.91,3.2,3.2,0,0,1-.46-2v-1.13a14.37,14.37,0,0,1-.91-3.19c0-.68,0-.9.23-1.13-.23-.68-.91-2.27-1.59-4.77L665.4,881a4.34,4.34,0,0,1-1.14-3c0-.22.23-.91.46-1.81,0-.23.22-.46.68-.46a5.25,5.25,0,0,1-.46-1.82c0-.68,1.14-2.27,1.14-2.49,1.13,0,3.41,2.49,3.41,3.4l2.27,2a79.83,79.83,0,0,1,3.18,8.17c2,0,3.86-2.49,5.9-7.26l3-7.5q0-.68,4.08-4.77c.46-.45,1.37-1.14,1.37-1.59,0-.68.68-.91,2.27-.91l.68-.23c3.41,0,5.91,2.73,6.81,2.73.46.91,1.59,1.59,3.64,2.27a3.35,3.35,0,0,0,1.36,2,1.13,1.13,0,0,0,.23,1.59c-.68.68-.91,1.81-.91,3.63,0,.91.68,2.5.68,3.41,0,.22-.23.91-.23,1.13a.87.87,0,0,1-.22.69c0,.68.45,2,.45,2.95v2.5c0,.9.23,2.72.23,3.4,0,.91-.23,2.73-.23,3.41a1.71,1.71,0,0,0,.23.91v.68c0,.68-.23,1.59-.23,1.82l1.36,5c0,.22-.22,1.13-.22,1.36,0,.91,1.81,2.5,2,2.72a2.62,2.62,0,0,1,1.82-.68h1.59a1.69,1.69,0,0,1,.23,1.14C709.69,908.94,707.87,910.54,705.15,910.54Z"/><path class="cls-2" d="M749.67,795.6a8.61,8.61,0,0,1-1.37.45c-.91,0-3.18-1.81-4.31-1.81-2.27.45-3.64,2-4.09,4.54s-1.14,3.86-2,4.54c.69,1.14-.68,3.41-.68,5.91l-1.36,10.9c-.68,3.41-1.14,5.23-1.36,5.45a62,62,0,0,1,.45,6.36c0,2.5-.23,4.32-.91,5.45a2.65,2.65,0,0,1,.46,1.6c0,.68-.23,2.27-.23,2.49a.84.84,0,0,0-.23.69v1.13c-.91,1.82-.91,4.09,0,7.5l-.91,2a15.16,15.16,0,0,0,.46,3.18v.91c0,.23-.91,1.36-.91,1.59a2.79,2.79,0,0,1,.68,2,12.12,12.12,0,0,0-.68,2.5,6,6,0,0,1,.68,1.59c.68,1.14.23,3.86,1.36,4.77a.84.84,0,0,1,.69.23h.22c1.82,0,4.09-3.18,4.77-3.18.91,0,2.28-1.59,3.18-1.82l4.09-2.95.91-2a5.68,5.68,0,0,1,1.59-2,67.67,67.67,0,0,0,5-4.77l2-2.5.68-.22.23-.69c0-.45,0-.68.23-.68a8.65,8.65,0,0,1,4.09,1.37l.22.9.68,1.37a18.36,18.36,0,0,1,1.82,4.77c0,.9-1.13,4.31-1.13,6.13a3,3,0,0,0-1.59,1.82,4.68,4.68,0,0,1-2,.45,3.31,3.31,0,0,0-2,.45c-.91.23-3.18,2.73-4.32,2.73-.45,0-.68,0-.91-.23-.68,2-5,4.32-6.13,5.45-.68.69-3.18,1.14-4.09,1.37,0,1.81,2.5,3.86,2.73,4.09a4.79,4.79,0,0,0,.68,2.72c.68.46,1.13.68,1.13.91a.61.61,0,0,1,.69.68c.9,2,4.08,2,4.77,4.09,1.36.45,2,3.18,2.72,3.86a17.2,17.2,0,0,1,4.09,2.05c.23.22,1.82,2.72,3,3.4,1.14,0,3.41,1.37,5,2.5l.91.68c.23,0,.23,0,.45-.22h.46v1.13c.68,1.36,1.13,2,1.59,2a5.53,5.53,0,0,1,3.86-1.14h2.72a.61.61,0,0,0,.69.68l.22-.23.46-.45a5.39,5.39,0,0,1,2,1.36c-2.27,2.27-3,4.09-5.45,4.09-5,0-7.5-.23-7.5-.91a1.7,1.7,0,0,1-1.13.46,12.37,12.37,0,0,1-3.86-.91l-2.5-.91L759,904a2.46,2.46,0,0,0-1.14-.23c-.45,0-.68,0-.91-.23a14.05,14.05,0,0,0-2.72-2.72c-.23-.23-1.59-2-2.5-2-.91-.22-1.14-2-2.73-2,0-.68-.22-1.14-.22-2-.68,0-1.14-.45-1.37-1.36a1.38,1.38,0,0,1-.68-1.36c-.22,0-1.59-.45-2.5-.68-.22-.23-.22-.68-.22-1.59,0-.68-2.27-1.82-2.5-2.5a39.12,39.12,0,0,0-4.32-5.68c-.68-.23-1.59-1.82-2.5-1.82-.68.23-.9.46-.9.91a10.54,10.54,0,0,0,.45,1.82c0,.23-.23.45-.45.68a9,9,0,0,1,2,5.22c0,.91-.45,4.55-.45,6.36a23.81,23.81,0,0,0,1.13,6.82l-2,3.86c-.68.45-.46,2.73.45,4.09l.23.68c-.23.91-3,2.5-3.18,3.41a5.68,5.68,0,0,0-.91,2.72c-.91.23-3.86,3.87-5.91,3.87a3.34,3.34,0,0,1-1.59-.23,27.71,27.71,0,0,1-1.59-9.77,51.94,51.94,0,0,1,.46-5.45l.68-.68.68-1.14.46-.91c0-.22.22-.45.68-.45a1.72,1.72,0,0,1-1.14-1.59v-1.14c0-4.31,1.36-11.13,1.36-13.63a13.5,13.5,0,0,0-1.36-6.13c-1.13.68-2.72-.68-4.09-.68-.22-.23-2.5-.23-3.4-.91a10.24,10.24,0,0,1-1.37-4.54c1.59-.68,6.14-1.14,8.18-2.73,0-2.72-2.27-2-.91-3.4,0-2.05,3.41-2.73,3.64-3.64v-.91c0-3.63,1.81-11.35,1.81-14.76a6.83,6.83,0,0,0-.45-1.82l-.91-.68c0-1.14.68-3.63.68-4.54a6,6,0,0,0-.68-2.5c1.59-1.59,1.14-4.32.91-5.91a8,8,0,0,0,1.36-3.63l-.23-.23A3.52,3.52,0,0,0,727,827c0-.69.68-2.05.68-2.73a1.75,1.75,0,0,0-.45-1.14l-.46-.9a.82.82,0,0,1,.23-.68,3.87,3.87,0,0,0-.91-3c0-.22.46-.68.46-.91a.86.86,0,0,1,.22-.68,14.32,14.32,0,0,0-.45-2l1.36-.91c0-.91.23-3.63.23-5.22a25.37,25.37,0,0,1,.45-2.5,3.55,3.55,0,0,0-.68-1.82,3.89,3.89,0,0,1,1.37-2.73,7.14,7.14,0,0,1-.69-3.18c0-.68-.45-2.27-.45-3.18a2.09,2.09,0,0,1,.68-1.59v-1.13a36.42,36.42,0,0,0-1.36-7.73c0-.9.45-3.86.45-5l-.45-2c0-3,.45-4.54,1.13-4.54h1.37l.22-.45a9.06,9.06,0,0,1,.46-1.59c2,0,4.31,1.36,7,4.08.23,0,1.14.23,1.36.23a.82.82,0,0,0,.68-.23c1.14.69,4.32,3.87,4.55,5.46.91,1.59,2.5,5,3.4,6.13.69,2,3,3.41,3.64,4.54A14.26,14.26,0,0,0,749.67,795.6Z"/><path class="cls-2" d="M809.86,901.68a2.88,2.88,0,0,0-.23-1.37,16.63,16.63,0,0,1-2-5.22c0-.23.22-1.36.22-1.59a.84.84,0,0,0-.22-.68c-.46-2.05-.91-3.18-1.59-3.18-1.14,0-1.59.45-1.59,1.13,0,.23.45.69.45.91-1.82,0-1.13.91-1.82,2.73l-.68.22.46.69a22.61,22.61,0,0,1-2.5,3.86l-.68.68a9.56,9.56,0,0,1-.68,2l-.69.23a3,3,0,0,1-2,2c-1.59,3.18-3.63,5-6.13,5.23h-1.37a.6.6,0,0,1-.68.68l-.91-1.14a18.72,18.72,0,0,1-5.9-1.59c-.91-.9-1.36-1.36-1.59-1.36a20.73,20.73,0,0,0-3.18-1.82c-2.05-1.59-3.41-4.31-4.09-7.72a5.58,5.58,0,0,1-.45-1.59c0-.23.22-1.13.45-2.27a17.77,17.77,0,0,1-1.59-7.5,8.14,8.14,0,0,1,.91-4.31c0-.23-.68-.91-.91-1.59l-.23-.23c.23,0,1.37.23,1.59.23l.91-.68c0-.23-1.36-1.59-1.36-2.5.23,0,1.59-.23,1.82-.23a1.25,1.25,0,0,1,1.36.91c.23-.68,3.41-3.63,3.41-5.45.22-.23,3-.68,4.77-1.82,3-2,4.77-2.95,5.9-2.95.23,0,1.14.23,1.36.23a15.22,15.22,0,0,1,5.91-1.59c.91,0,2.95.68,4.09.68,1.59-.68,3.86-3.18,5.45-3.86A38.83,38.83,0,0,1,814.4,866c0,.91.68,4.55.68,5.68a3.79,3.79,0,0,1-.68,2.27,6.51,6.51,0,0,1,.46,2.73c0,1.59-.46,5.45-.46,6.36,0,.68,0,1.14.23,1.36V889a4.34,4.34,0,0,0,.23,1.81,1.75,1.75,0,0,0-.46.91c0,.23.46.46,1.14.68a2.63,2.63,0,0,0-.46,1.59c0,.68,0,.91.23,1.14a52.41,52.41,0,0,0,2.73,7c0,1.14,2,1.14,2.27,2.73a3.35,3.35,0,0,0,1.59.45c.45,0,.68.45.91,1.36,0,.91-.69,1.59-2,2.05-1.59-.46-3-.46-6.59-1.37C812.13,906.9,811,902.81,809.86,901.68Zm-17.72-29.53a4.35,4.35,0,0,1-2,2.72l-1.37.68c.23.23.23.46.23.91,0,.68-1.36,1.37-1.59,1.59,0,1.14,2,2.5,2,3.64-.69,0-1.59-.68-1.82-.68a1.7,1.7,0,0,0-.91.45c0,1.59-.23,2.5-.68,2.73a39.06,39.06,0,0,0-4.77,7.72l2,7.5a6,6,0,0,1,1.82.68,8.67,8.67,0,0,1,2,.91h.23a.83.83,0,0,1,.68-.23,2.11,2.11,0,0,0,1.14-.68,3.32,3.32,0,0,1,1.59-.23c.91-1.82,1.82-3.41,3.86-3.41.23-1.59,3-4.31,3-5.22a11.34,11.34,0,0,1,3.18-6.36c-.22-.23-.22-.46-.22-1.14a.83.83,0,0,0-.23-.68c1.13-.23,1.36-2.5,2.5-2.72-.91-.91.68-3.64,1.13-5a1.38,1.38,0,0,0-.68-1.37c-1.13,0-5.68-2.49-6.36-2.49C796,871.69,793.05,871.47,792.14,872.15Z"/><path class="cls-2" d="M845.75,857.61l-1.37.68c0,.23-.22.23-.45.23L843,859a3.08,3.08,0,0,0-2,2.73c0,.23-.23,1.36-.23,2l.23.46v.45a85.37,85.37,0,0,0-.91,12.27c0,.68.22,1.59.22,1.81v18.4c0,1.59,1.14,2.5,3.64,2.5,1.13,0,1.59,1.14,1.59,3.18,0,.23.68,3,.91,4.09v.91a24,24,0,0,1,.45,4.54c0,1.14-.68,3.64-.68,5.68a.83.83,0,0,0,.23.68,11.23,11.23,0,0,0-.68,3.18l-1.14,1.59c-.23,0-2.5,1.14-4.32,1.14,0-1.14-4.08-1.37-4.08-2.27l-1.14-.46c-1.59-.68-3.41-1.81-3.41-2.72l.23-.23c.23-.23.23-.23.23-.46a11.55,11.55,0,0,0-1.82-6.81.83.83,0,0,1,.23-.68v-.45c0-3.64.68-7,.68-9.54,0-.69.23-3.19.23-4.32,0-1.59-.23-7.5-.23-9.09a77.93,77.93,0,0,1,.23-8.86c0-.68-.23-2.27-.23-2.49l.23-.46v-3.4c0-4.78,0-8.86.22-12.27,0-.23,0-.23-.22-.45v-.23c0-.23.22-1.37.22-1.59,0-.68-.22-.91-.91-.91a9.9,9.9,0,0,0-1.36.45c-.23,0-.45-.68-1.13-.68l-.46.46c-.45.9-2,0-4.09,0l-.68.45-2.27-1.14c-.23,0-1.14.46-1.36.46a3.81,3.81,0,0,0-2.27-.68c-.69,0-.91-.46-.91-1.14h-.91c-.91,0-2.95-3.18-2.95-4.31,0-.68.45-1.14,1.59-1.14a1,1,0,0,1,.68-1.13,10.2,10.2,0,0,1,3.63.9l2.73.91c.22,0,.68-.22.91-.22s3,.45,3.18.45l1.13.45c.23,0,.91-.45,1.14-.45l.68.23a1.75,1.75,0,0,0,.91.22h1.59c.68,0,.91,0,1.13.23V840.8a3.24,3.24,0,0,1,.46-2l-.23-.23c0-.23,0-.23-.23-.45,0-.23.46-3,.46-3.18,0-.69-.23-2.5-.23-3.41V829a11.87,11.87,0,0,0-.45-3.63l-3,2A.48.48,0,0,0,828,827c-.23,0-1.82.45-2.5.45h-.23c-.22-.23-.22-.23-.45-.23.45-.45.68-.68.68-.91a4.16,4.16,0,0,1-.45-2.27l.22-1.13c.91-.91-.68-1.36-.68-3.18a3.24,3.24,0,0,1,.46-1.59l1.36-4.09a11.87,11.87,0,0,1,.45-3.63,7.67,7.67,0,0,1,3.64-5.46c.22-.22.45-.45.45-.22a3.16,3.16,0,0,1,3.18-1.82c.46,0,1.59,1.82,2.05,2a8.16,8.16,0,0,0,1.81,3.87,5.21,5.21,0,0,1,.68,2.49c.69,3,1.14,4.32,1.37,4.32a13.32,13.32,0,0,0,.45,3.18l.23,1.14a.83.83,0,0,1-.23.68c.23.22.23.68.23,1.36s-.23,2.27-.23,2.95,0,.91.23,1.14v8.4a.82.82,0,0,1-.23.68l-.23.68c0,.23.46,1.59.46,1.82,0,1.59-.46,4.55-.46,5.68a20.93,20.93,0,0,1-.22,6.59c0,1.13,1.13,1.82,3.63,1.82,1.14,0,4.54-.23,4.77-.23.23-.23.46-.23,1.14-.23h2c2.05,0,3.18-.23,3.64-.91,2-.22,3.86-.45,5.22-.45l.91-.46.68.23a5.29,5.29,0,0,0,3.86-1.59,1.36,1.36,0,0,0,.91-.23h.68c.23,0,.68.69,1.14,2,0,2-5.68,2-5.68,3a10.36,10.36,0,0,1-4.77,1.82l-1.36.91h-.23c-.23-.23-.23-.23-.46-.23a8.16,8.16,0,0,1-4.54,1.36C848,856.7,846,856.93,845.75,857.61Z"/><path class="cls-2" d="M885.27,876.24c-.23.22-.91,4.09-1.59,4.31l-1.14,1.59c-2,1.14-7.49,1.14-10,3.64-.23,0-1.14-.23-1.36-.23a13.8,13.8,0,0,0-5.46.91v.91c0,1.13.69,4.31.69,5.22.22.23.68,2.27.9,2.5a11.09,11.09,0,0,0,5,3.86,9.54,9.54,0,0,0,5.91,1.59,17.37,17.37,0,0,0,2.72-.45c1.14-.68,6.59-1.14,8.18-1.82,1.59-.91,8-2,9.08-2.73,6.14-3.4,10.68-5.67,13.86-7a4.73,4.73,0,0,1,1.36,1.82c0,1.36-2.5,2.95-7.49,4.54a3.12,3.12,0,0,1-1.36,1.14c-.69.22-1.59,1.36-2.73,1.59-.68.22-1.82,3.86-2.73,4.09-.22.22-.45.22-1.13.22-.68.23-3,2.27-4.77,2.27A41,41,0,0,1,876,907.58h-1.14c-1.82,0-4.77-.91-5.45-.91-.68-.68-2.27-.91-2.27-1.13a19.34,19.34,0,0,1-9.32-10.22c-.9-3.64-1.59-6.14-2.27-7.27l.23-.68a1.73,1.73,0,0,0,.45-.91,12.19,12.19,0,0,1-.45-2.5,18.58,18.58,0,0,1,2.5-8.63c.91-1.82,1.13-6.13,3.63-6.59.91-.23,1.59-2.27,2.27-2.5a23.67,23.67,0,0,0,6.82-3,6.42,6.42,0,0,1,2.72-.46,22,22,0,0,1,3.86.46h.69a28.85,28.85,0,0,1,4.77,2.27l2.27,3.18a16.07,16.07,0,0,1,2,3.64C886.4,874.65,885.72,876,885.27,876.24Zm-18.4,3.18a7.8,7.8,0,0,1,2.5-.91c0-.23.68-.46,1.82-.68,2-1.14,2.95-2.28,2.95-3a.83.83,0,0,0-.23-.68,4.61,4.61,0,0,0-2.5-.45h-1.59l-1.13.68a1.72,1.72,0,0,0-.46,1.13,4.81,4.81,0,0,0-2.5,3.87Z"/><path class="cls-2" d="M928,866.47l-1.36.45-.23.46c-.23.22-.23.22-.45.22-.91.69-3.64,1.6-4.32,2.5h-.45l-.46-.22a12.9,12.9,0,0,1-2.27.45c-.91.91-1.59,2.73-2.27,3.41-1.36,2.27-5.23,4.09-5.23,8a1.26,1.26,0,0,0,1.37.91,5.64,5.64,0,0,1,4.54.68c.68,0,2.5-.68,3.41-.68a7.48,7.48,0,0,1,1.81.22l1.14.46c0-1.59,1.82,0,2.5,0l.45-.46.46-.22,2.72,1.13,5.46,1.59,2.72,1.14c0,.45.45.68,1.36.68l.46.68.22.23a16.94,16.94,0,0,0,2.73,1.13c.23,0,.45.91,1.14.91a3.25,3.25,0,0,0,.91.91,5.21,5.21,0,0,1,1.13,1.14c.23.22,1.14,3.63,2.73,4.77-.69.22-1.14,1.13-1.37,2.72a23.54,23.54,0,0,1-1.13,3.18L945,903a8,8,0,0,1-1.59,2.72h-1.14l-.91,1.82c-.23.23-.68.23-1.36.23l-.68,1.36L938,910.54l-2.49,1.13a2.05,2.05,0,0,1-1.59.68c-.69.68-1.14,1.82-2,2-6.58-1.59-10-3-10-4.09,0-.91-2.05-3.18-2.05-4.32,0-.91,1.59-.91,1.82-1.59a9.4,9.4,0,0,1-.45-2c.68-.91,3.63-1.82,4.54-2.73.23,0,1.82,3.41,3.86,3.41l1.59-1.59c.68-.45,1.59-3,2.73-4.54a7.91,7.91,0,0,0,1.36-3.87,3.41,3.41,0,0,0-2-3.17,16.11,16.11,0,0,1-3.86-.46,23.19,23.19,0,0,0-3-.91c-.23,0-1.13.68-1.82.68-1.13,0-5.68-.91-7.27-.91s-2.49.23-3.17.91a33.12,33.12,0,0,1-6.82-2.5l-.68-.22c-1.14,0-1.82-.23-1.82-1.37-.68-.22-1.82-.22-2-.45-.23,0-.23-.23-.23-.91V882.6l-1.36-.68c0-2.28.45-3.64,1.36-4.32,0-3.41.45-5,1.59-5a5.89,5.89,0,0,1,2.5-3.18c.68-.68,1.59-2,3.41-2l2.72-2c.68,0,1.59-.68,2.73-.68.45-1.82,2.95-2,4.77-3.18,1.13-.45,1.81-2,4.31-2,.69.68,4.77,2.72,5.45,4.77C930,865.33,929.56,865.79,928,866.47Z"/><path class="cls-2" d="M960.45,891.68l-.23-.22V891c.69,0,.91-.23.91-.68.68-.45.91-1.36.91-2.73a11.58,11.58,0,0,0,1.59-3.4c0-.46,0-.69.23-.91a2,2,0,0,0,.45-1.36v-.46c.23-.23.46-.91,1.14-1.13,0-.91,1.36-3.41,1.36-4.32a12.12,12.12,0,0,1-.68-2.5l.23-.68h.22l.46.23.91-2.73a2.05,2.05,0,0,1,.68-1.59c.23-.23.91-1.59,1.59-1.82a1.66,1.66,0,0,0,.45-.91l.68-.68c0-.22.69-.68.69-1.59.22,0,.45-.22.9-.68.69-.68,2.5-.45,3.18-.68,0-.68,3-.68,3.87-1.13.68,0,2.27.68,3.4.68.23.68,1.14,1.13,1.82,1.36l.68.23.68.22c.68.23,0,.68,1.59,2.73l1.59,2.95c1.14,2.05,1.82,3.41,1.82,4.32,0,1.13-1.14,5.22-1.14,6.81,0,1.14-1.81,6.82-1.81,7,0,1.14.91,4.32.91,5.91a5.33,5.33,0,0,1-1.14,3.63l.23.46c.45,1.13-.23,2.5-.23,2.95v2a14.52,14.52,0,0,0,.45,2c1.14-.23,4.09-3,5.23-3a3.61,3.61,0,0,1,1.82.68c0,1.13-1.6,2.5-1.82,3.18,0,.68.91.91.91,1.81-.23,1.82-2.27,4.09-2.27,4.32a13.83,13.83,0,0,0-1.14,2.5c-1.14.68-2.27,2.27-3.41,2.5a12.79,12.79,0,0,1-1.59-.23,3,3,0,0,1-1.13.23,10,10,0,0,1-3.41-2.5q-4.1-3.4-4.09-6.82c0-.22-.45-2.27-.45-3.18a1.33,1.33,0,0,0,.45-1.13v-1.36c0-1.37.23-4.09.46-8.41.45-4.31.68-7.27.68-8.63,0-6.36-.68-9.54-2.27-9.77l-.69.23a1.2,1.2,0,0,0-1.36,1.36c-.91.68-3.41,3.64-4.54,4.32a4.1,4.1,0,0,0,.68,2.5,11.68,11.68,0,0,0-2,6.36c0,.68,0,.91.22,1.13l-.22.91-.69.23c-.22.23-.68,3.63-1.59,4.31,0,.23.23,1.37.23,1.59,0,1.82-1.36,6.82-1.36,8.64L963.86,908a11.63,11.63,0,0,1-.46,2.5c-.22.22-1.13,2.72-2,3,0,1.13-.23,1.59-.91,1.59h-1.13c-.69.68-1.14.91-1.37.91h-2c-.91,0-1.59-.69-1.82-1.82a3,3,0,0,1-2.27-2,3.64,3.64,0,0,1-.91-2.73c0-.68.23-2.5.23-3.18V893.73c0-2.5,0-6.36.23-11.36.22-5.23.45-8.86.45-11.13v-4.09a1.69,1.69,0,0,1-.23-1.14c0-.68.23-1.81.23-2,0-15.22-.23-27-.68-35.21,0-.22.23-.45.45-.9l.23-.46c-1.36-1.82,0-1.36,0-2.95a53.11,53.11,0,0,1-.91-6.59v-6.81a4.5,4.5,0,0,1-1.13-3.18V803.1a19.69,19.69,0,0,1,.45-3.64,34,34,0,0,1,3.63-4.77H957a1.75,1.75,0,0,0,1.14.46,1.4,1.4,0,0,1,.91.22c.68,0,1.13.68,1.36,1.59l.23.69c1.36,1.59,2,3,2,3.63a3.21,3.21,0,0,1-1.36,2.72,31.79,31.79,0,0,0-.23,5,36.48,36.48,0,0,1-.22,5.23v2.95l-.23.68a4.39,4.39,0,0,0-.23,1.59c0,1.59.91,5.68.91,7.27a7.81,7.81,0,0,1-.91,4.09,22,22,0,0,1,.91,5.9c0,.91-.45,2.5-.45,3.18v1.59a1.33,1.33,0,0,1-.46,1.14,3.32,3.32,0,0,1,.23,1.59,23.07,23.07,0,0,1-1.36,3.41V849l-.23,1.14a1.33,1.33,0,0,0,.23.9c0,.91-.91,1.14-.91,1.59,0,.91.91,2.73.91,3.41.9,1.59,0,1.59,0,3.18v14.54a6.32,6.32,0,0,1,.68,3,12.68,12.68,0,0,1-.68,3.86v2.27c.22.23.22.68.22,1.37,0,.22-.45,1.36-1.13,3.4,0,.91.68,2.5.68,3.18l-.23.23v.68c0,.46.23.68.68.91Zm24.31,30.89-.23.23c-.68,0-.68-.91.45-.91A.84.84,0,0,1,984.76,922.57Z"/></svg>