<svg width="1440" height="274" xmlns="http://www.w3.org/2000/svg"><path d="M889.633 104.048c5.013-.096 21.464 5.173 25.994 8.956-2.622 1.817-4.103-2.09-6.44-1.716 2.14 4.307-5.662.092-9.48-1.382.073.312.1.632.068.956 4.41 4.099 13.545 1.496 15.225 7.138-15.712-.875-34.093-17.099-43.812-15.154-3.311-.519-5.18-9.34-10.86-6.364-.647-3.48-8.446-9.3-10.263-5.52 2.312-.322 4.18 1.799 6.42 1.874-2.374 5.14-4.641-1.132-8.732-1.544 5.14-3.712-10.673-8.78-15.301-10.854.938-3.545 6.702 1.514 9.327 2.391-.205-3.184-7.447-2.955-10.001-6.953-.502.898-1.01 1.795-.521 2.87-6.152 1.188-5.78-8.9-12.056-8.057-1.11 1.128 3.688 4.11 5.3 3.899-2.886.652-21.808-7.53-19.07-10.781-2.485-1.949-1.957-.072-4.029 1.51-8.508-5.535-17.577-8.004-26.09-13.502-1.148 2.203 4.62 3.254 1.868 6.255 1.261 1 .862-1.086 2.574-1.766 2.763 2.448.919 4.673 3.582 5.076 1.606-1.804-1.97-.606-.932-3.127 3.507-1.519 4.007 3.144 3.584 5.078 27.05 14.99 56.05 29.568 85.015 44.666-13.844-3.736-32.955-14.278-48.59-21.927-1.683.692-1.153 1.77-.522 2.871-1.93.98-3.033-2.599-4.964-1.62-.434-1.937 1.474-1.193 2.576-1.765-2.223-2.926-5.862 1.936-8.398.736-1.801-3.247-6.965-5.506-6.755-4.157-1.827.872-4.045-6.09-.672-4.564-2.49-3.065-4.954-3.342-6.68-.44-12.444-8.674-25.342-14.85-37.88-22.996-.82.596.064 1.494.336 2.282C737.767 41.267 714.61 31.803 695 10.203c3.871 1.64 4.256.814 2.835-3.203 9.148 8.539 28.017 14.926 36.501 26.456 10.274 2.71 19.537 10.972 29.334 16.3.55-6.54-11.567-9.2-16.495-12.548-3.142-2.531 2.274-3.549-.413-6 5.977-.859 13.336-.154 19.594 7.911 4.19-2.618 11.27 5.397 19.332 9.344 4.777 2.34 5.758 2.547 9.663 4.674 6.394 3.482 21.633 6.817 26.087 13.501 14.438 3.23 26.915 17.219 41.315 20.642 1.795 2.865 4.892 2.689 1.27 5.41.476-4.682-5.45-.632-7.615-3.57 5.95 4.113 17.405 12.985 25.415 8.941.005 1.114.032 2.223 1.194 1.69 1.333 1.226.459 2.058-.52 2.87 3.385 4.002 4.378-.33 7.275 1.288a4.842 4.842 0 0 0-.139.139zm-.01.011c-3.418 3.595 7.391 4.32 3.997 3.493.14-1.097.96-1.45 1.96-1.3-1.944-.942-3.866-1.992-5.957-2.193zm8.106 3.135a5.73 5.73 0 0 1 1.408 1.435c.283-.286.691-.552.952-.842-.808-.091-1.59-.308-2.36-.593zM735.88 93.591c-6.307-7.18-13.819-8.597-17.173-13.602 3.08-1.913 5.075 2.07 7.543 3.486 1.37-2.561-3.874-2.826-4.993-5.213 4.277-.322 7.594 4.563 11.611 5.641-1.125-4.573-10.816-5.694-11.76-12.903 10.93 5.313 20.088 20.214 31.768 21.458.658.6.226 1.006-.26 1.402-7.993-.391 8.431 6.004 4.216 9.42 2.16 1.75 4.877.465 6.953 2.66-9.936 3.172-16.707-10.826-25.982-11.222 19.645 11.56 40.236 25.19 58.948 35.59 7.338 4.076 16.796 7.384 20.21 8.838 3.349.22-.323 4.92 4.183 5.978 2.338-2.78-.685-1.884-2.129-4.868 4.992 1.306 15.064 5.37 14.717 10.103-3.025-2.673-6.915-.57-9.673-4.716-1.618.957-1.082 2.299-2.838 3.23-10.82-10.12-25.075-8.727-32.272-16.966 1.294 7.091-14.752-8.89-10.01-7.02-9.16-1.52-13.208-6.022-18.492-10.025-1.143.792-2.288 1.584-3.434 2.375 4.096 2.799 6.304 4.018 11.206 8.73-9.539-4.329-22.927-8.7-29.098-17.898l-3.434 2.375c11.521 9.666 24.94 12.015 37.652 24.657-3.064-7.436 20.523 9.312 26.369 12.178.909-.834-.367-2.057-.937-3.158 18.04 10.133 30.514 19.782 49.566 25.29 1.245 6.545 8.896 3.6 12.664 8.985-10.846-2.32-21.462-7.042-28.089-10.99-2.199 3.516 2.889-.106 3.253 2.822-5.205 1.175-5.103-4.13-10.016-7.02-.962 4.511-11.234-1.644-8.477-3.003-1.558-2.026-2.967 1.782-1.98 2.635-2.356 1.325.154-2.288-2.39-3.417-.815.604.068 1.505.338 2.304-7.112-1.31-10.814-7.67-17.89-9.173.911.496 1.82 1.006 2.91.521.777 2.432-5.56.601-4.106-2.229-2.408-1.937-5.89 2.09-7.88-2.155-2.015 2.47 2.618 1.38 2.986 4.272-5.763.724-5.054-8.577-11.131-4.977 5.607-3.882-7.981-6.306-9.486-9.913-3.004 5.455 5.217 2.422 7.097 6.497-2.218 4.82-7.872-2.204-11.133-4.973 1.066 6.658 14.72 11.81 21.481 14.295 16.117 13.442 33.658 19.005 50.235 29.892-7.85 1.841-13.465-8.7-21.065-8.243-1.204-3.044-3.24-1.486-4.447-4.53-28.042-14.018-56.154-27.646-83.106-47.718-.664.075-.126 2.174.338 2.306-6.088-1.76-19.157-9.7-23.271-16.859-.818.604.063 1.505.336 2.301-8.49-4.636-20.687-9.928-26.446-15.927-2.518-1.81-1.424 2.826-4.032 1.524-4.58-4.89-19.056-11.248-10.235-18.272 4.017 1.34 7.526 5.512 11.466 7.278 1.47-2.634 1.28-3.667 4.555-4.422 2.778 2.667 6.038 2.644 8.816 5.313-2.044-6.804-11.885-6.296-16.509-12.663 5.648 1.65.975-3.277 4.817-5.872 16.664 9.03 28.01 20.804 43.14 23.393-2.944-3.127-6.082-5.18-9.411-6.162-1.035-1.679 2.424-2.557.783-4.346 2.89-.832.668 3.501 3.585 5.125.981-1.071-.781-2.631-1.53-4.01 6.88 3.366 14.054 7.322 21.374 11.591zM864 187c8.75 2.745 20.781 8.283 26 16.738-3.04 1.154-1.486 3.106-4.525 4.262-7.635-5.261-21.405-11.252-21.475-21zM838.588 58.504c2.302-1.076-3.21-3.523.786-4.298 14.114 10.803 30.344 10.028 44.932 18.25 2.796 4.929-3.654 8.228-5.282 12.382-6.811 1.499-11.615-7.97-18.738-4.776-1.713-2.25.229-2.677-2.399-3.379-30.48-7.912-59.335-24.74-88.483-39.955 4.774-2.71 7.941 3.327 12.294 2.902-7.836-4.334-12.81-7.667-18.21-7.637-2.025 2.47 2.894-.103 3.257 2.788-2.894.704-5.107-2.311-7.907-2.129-.835-4.011 2.68 1.087 4.05-1.503.027-3.122-6.72-4.357-9.446-6.099-2.868 3.769 2.247 1.267 3.597 5.069-6.597-6.067-15.643-11.404-19.039-19.613 1.56-1.65 2.499.088 3.522 1.36C745.54 6.73 745.021 5.199 749.728 0c20.118 10.968 41.703 13.923 60.9 29.928 2.666-2.33-4.62-1.712-.076-3.707 8.93 11.043 22.482 12.06 34.176 19.315-2.127-4.932-11.015-8.445-16.489-8.814-.436-1.063 1.31-1.742.526-2.864-4.27 2.152-3.087-4.139-8.168-.697-1.23-3.36 1.403-2.054 3.445-2.351-1.918-2.391-6.032-3.652-5.658-6.172 4.317.745 4.159 1.428 7.384 4.995 7.604 1.032 14.641 5.171 21.737 8.996 5.718-2.958 13.969-.519 16.077 2.827 7.862-1.223 29.253 11.03 13.266 22.295-25.806-5.99-50.749-16.71-74.914-31.654 1.804-1.614 2.69 1.788 4.385.77-16.921-2.547-38.036-9.86-55.504-22.326-1.277 2.017 4.037 2.287 5.06 5.327-1.694 1.015-2.582-2.387-4.383-.773 6.812 4.568 18.811 10.06 19.751 11.61 20.197 7.94 45.904 24.25 67.345 31.8zm-27.962 55.376c.99-4.165-7.318-7.43-7.912-2.157 2.765-2.878 3.393 5.76 7.912 2.157zm-75.6-49.348c3.603.574 12.889 2.336 15.112 12.411 3.533-.87-1.283-3.22 2.248-4.086 2.541 2.643 4.413 8.99 7.726 7.355-3.323-4.381 9.263.557 6.525 5.649 2.058-.881 1.872-2.16 2.849-3.232-1.86-3.69-6.732-3.271-6.26-7.099 5.322 1.496 6.803 3.877 10.648 7.878-1.244-.072-2.396-.652-3.525-1.375 10.776 13.865 35.06 18.548 51.037 30.766.8-3.067 1.11-.449 3.19-.927.871 2.26-2.074-.11-1.988 2.637 19.181 7.833 41.54 16.228 57.412 28.908-3.646 1.928-10.222-1.711-11.362.225-10.991-6.4-25.813-14.455-39.188-21.181-1.094-.55-2.55-.068-3.787.076 1.545-3.12-.528-2.758-2.738-5.725-4.03 3.507-16.448-2.079-23.135-5.608-.492-1.508.818-.436 1.725-1.188-7.48-6.552-14.05-4.302-20.101-14.046-1.934.902-2.578 2.035-1.387 3.49-2.599.015-1.22-3.526-4.463-4.528-.823.6.064 1.506.336 2.302C772.187 93.07 764.34 86 757.338 87.2c1.532-3.031-.658-2.05-2.736-5.722-1.69.695-1.162 1.788-.525 2.898-15.549-8.09-33.35-21.97-41.926-26.902-7.63-11.835-25.76-11.405-33.151-25.342 1.133-2.044 2.319-4.077 3.375-6.132 17.987 9.492 34.383 25.998 47.85 31.696 3.332.31 1.02 5.91 4.8 6.836zm-16.04-21.543c.963 1.589 2.31 1.062 3.247 2.788 2.178-2.312-2.097-1.243-2.39-3.373 10.138-1.63 16.99 9.717 28.062 10.85 1.174 1.683-1.58 2.672.672 4.549 1.26.993.863-1.087 2.575-1.762 6.572 6.265 15.402 11.093 22.39 17.232.374-.915.77-1.83 1.978-2.602 3.115 6.24 8.034 2.596 10.933 10.048 1.095-.545 1.393-1.231 1.119-2.017 10.404 13.165 34.735 17.01 49.928 30.947 1.912.5 4.18-.963 6.08-.403 6.47 10.033 14.532 9.758 19.48 16.718 1.926-.89 2.566-2.008 1.381-3.447 6.942 2.346 9.664 6.171 15.559 9.388-5.42.91-9.604-4.98-14.625-6.269-.15 1.192 2.969 3.512-1.044 5.721-.558-.836.586-1.373 1.118-2.017-1.523-2.621-3.775-1.267-5.3-3.89-.784.847.607 2.078-.52 2.864 1.186.357 2.464.209 3.768-.073-7.388 1.494-26.165-11.698-37.202-18.37-3.08-.97-6.291-1.2-8.807-5.247 2.818-.347 4.904 3.305 7.611 3.56.188-2.642-6.514-2.544-8.28-8.104a89.883 89.883 0 0 0-.788 4.29c-2.122-.718-4.464-.224-6.157-3.3 1.797-1.609 2.68 1.786 4.367.772-1.763-2.682-4.403-.562-5.896-4.733-1.233 7.08-24.552-9.157-22.913-14.373-1.089-2.253-3.575 3.144-4.364-.77.809-.314 1.453.26 2.314-.33-.961-1.588-2.312-1.061-3.247-2.788-2.17 5.251 7.205 7.093 7.165 10.124-10.683-1.823-18.654-18.506-29.927-17.089-.251-4.341-13.443-10.96-15.561-9.385-9.239-8.506-23.577-11.731-25.712-23.727 2.535-2.95 5.168 3.465 2.986 4.218zm44.491 92.597c-10.348 2.32-28.395-12.22-26.183-17.38-2.474 2.596-4.045.193-6.09.41-5.676-7.168-21.397-12.905-32.27-16.967 12.589 5.607 24.393 17.807 34.064 19.53 5.824 9.623 23.171 12.925 29.172 21.649 1.392-3.845-.147-4.325 1.307-7.242zm119.813 36.658c-.362-1.311-.131-2.517 1.388-3.494-1.207-3.077-3.523-.01-4.73-3.088-2.187 2.346 2.11 1.259 2.403 3.423-6.39-5.103-11.128-5.375-15.647-9.518-.622.146-.188 2.077.334 2.302-7.146-3.097-21.665-11.529-32.08-14.678 7.705 4.707 15.732 7.648 23.3 13.12-8.336-4.236-20.176-5.87-25.104-15.687-9.944-4.528-23.91-14.315-36.81-17.77 2.236.978 2.825-2.265.26-1.449-.49-1.507.82-.434 1.726-1.189-1.148-2.926-7.592-4.764-8.33-8.216 3.529.104 10.62 2.348 10.92 6.43 1.658.572 3.503.123 5.253.184 31.496 19.308 63.668 34.91 96.328 47.806 2.255 2.833 4.057 3.18 3.339 6.58-10.484-1.053-11.59-5.141-22.55-4.756zm-65.55 28.862c2.515 9.411 19.659 8.428 24.338 16.188-3.31.51-5.93-2.696-8.956-3.71-.786 1.06-.99 2.22.071 3.605-3.29-.92-6.654-1.455-9.545-4.532 3.043-1.744 4.85 3.187 7.776 2.07.292-3.17-9.454-7.455-10.396-3.963-3.07-4.967-11.854-2.482-17.066-7.995 1.901-.924 3.256 1.1 5.158.177-6.873-4.28-13.932-7.562-20.863-11.53-1.986 2.37 2.405 2.303 2.95 4.106-2.404 2.521-10.461-6.453-6.083-3.213 2.15-2.25-2.074-1.207-2.36-3.285 12.758-.1 22.513 6.34 32.108 14.921.285-1.1 1.202-2.092 2.62-2.992-7.954-4.91-16.09-9.38-22.612-11.677-1.045-.367-2.554-3.966-4.405-.77-.416-4.885-5.182-2.159-3.95-7.318-2.692 1.657-1.716-1.67-5.343-3.88-1.304 5.62-3.39 1.7-6.998.99 2.559 3.693 3.269 7.03 7.751 7.246.459 1.807-1.613 1.873-2.331.33-1.63.945-1.09 2.265-2.861 3.185-1.321-1.34-.418-2.282.264-1.427 1.887-2.818-3.011-2.263-3.614-5.052-.504.895-1.019 1.787-.525 2.853-6.76-2.486-13.3-13.155-22.765-12.074-1.91-3.344-3.979-5.829-6.812-4.135-.52-1.068.532-1.053.864-.584-5.357-8.268-25.05-12.523-32.325-21.848-1.266-1.342-2.861-.91-4.665.659-7.394-6.438-15.096-11.228-23.368-12.918-.441-1.55-.238-2.987-.68-4.54.708-.11 4.83-.158 3.464-2.342 29.441 11.501 55.007 35.586 81.993 48.194.086-4.46-10.51-4.303-10.42-9.185-1.63.947-1.09 2.266-2.86 3.186-2.043-4.995-4.548-10.068-8.957-8.927-6.014-10.867-12.583-11.378-19.381-18.118 5.526.142 10.446 3.592 15.353 7.097-3.504-5.679 3.723-.29 7.337 1.28-.532-4.768 6.474.733 9.144 3.806-7.315-3.19-.233-.492-5.53 1.247 1.94 3.165 4.805 1.323 6.81 4.133.18-1.195 2.012-2.105 1.393-3.44-1.304-1.268-2.224 3.13-4.403-.768 1.14-.004 2.273-.03 1.73-1.172 2.443-.93 4.2 1.877 6.209 3.292-.815.317-1.467-.259-2.333.332 1.672.507 3.069 2.528 4.741 3.037 1.021-1.24-1.11-.845-1.805-2.524 1.666-.828 3.009.112 4.139 2.194-2.647 3.393-3.848-1.034-6.134.403 6.449 3.357 12.518 8.787 19.229 10.723-2.559-3.686-3.629-6.893-11.89-9.44.397-4.52 5.248 1.381 7.073 2.704 1.233-.45 1.244-4.45-.94-3.11 3.91.519 12.47 7.887 19.568 12.992.916-.822-.369-2.03-.941-3.11 6.839 3.976 13.931 6.596 20.168 13.83-1.227 1.185-2.06.213-3.196.918 1.934 2.308 11.343 1.634 9.067.109 2.497 3.778 8.731 4.529 11.815 5.743 4.594 1.813 8.465 5.994 12.154 8.015 9.702 5.31 19.897 7.033 30.706 14.198 1.023-1.89-3.523-7.956-5.683-6.15 1.478-4.335-2.848-5.778-6.623-9.258 4.55-.033 8.506 3.159 12.418 6.588-.815.313-1.467-.26-2.334.328 3.252 4.268 7.736 1.856 10.687 7.756-1.566.71-.922 1.807-1.994 2.602 11.014 8.724 23.728 8.227 35.109 14.963-3.779 12.586-23.426 3.977-28.408-2.006-2.483 3.194-7.403-3.036-11.741-2.051-1.141 4.15-6.75 3.142-3.65 7.466-7.402-2.299-14.522-6.116-21.824-8.964 2.275-.004 4.377.918 6.736.44-3.337-11.405-19.5-10.403-27.054-21.664-2.533-1.978.1 2.83-2.861 3.185a363.965 363.965 0 0 0-11.458-7.42zm-92.112-7.03c4.727 7.614 15.92 14.263 23.895 17.676-2.544-1.126-.032-4.733-2.391-3.408-1.161-.252-13.93-11.612-21.504-14.268zm50.815-2.157c5.34 2.79 21.376 9.782 22.1 15.121 7.931-.596 21.89 9.225 28.534 17.013.375-.93.771-1.853 1.982-2.635 12.086 6.106 29.694 17.898 41.806 26.835 1.946-3.243-3.25-.854-3.851-3.672 9.912-.714 17.035 14.019 27.26 11.566-6.74 8.571-18.812-8.433-25.316-1.52-1.07-3.716-8.576-7.027-6.168-3.336-10-11.164-24.51-17.678-38.554-24.014-2.988 6.02 5.788 2.529 7.704 7.338-3.806 1.641.593 3.203-1.905 6.378 5.23 1.591 9.554 8.188 15.78 4.296-1.554 4.61 3.476 3.773 6.242 7.078 1.884-4.148 9.68-.596 9.949 3.262-15.816-1.333-30.047-11.412-44.575-19.863 3.793 1.226 7.517 2.823 11.142 4.965-.388-3.558-7.728-4.29-10.618-7.857-1.929.9-2.57 2.032-1.383 3.486-8.838-2.457-17.576-5.477-26.065-9.857 5.948 5.986 17.866 14.94 26.81 18.198 2.074 7.07-3.97 13.98-11.1 11.452-1.65 2.846 3.818.602 4.711 3.078-2.76-.467-2.227 1.397-4.3 2.967-2.172-1.866-4.401-3.406-6.77-4.188 2.94-3.613-4.99-4.526-.15-7.488-3.23-.735-7.34-4.997-5.983-8.523-3.523.864 1.279 3.207-2.244 4.074-24.731-16.882-51.254-23.01-73.255-44.362 2.457-2.548.036-5.964 4.484-8.155-7.943-9.613-13.456-10.67-22.435-17.42-.82.602.064 1.504.334 2.298-4.835-6.125-24.202-9.678-16.08-19.273 24.65 7.961 49.99 34.291 72.321 41.21 2.696 2.173 13.331 9.348 14.998 8.636 2.894-.097 2.773 1.177 3.851 3.672 1.833 1.591.614-1.963 3.178-.93l3.59 5.116c13.651 2.189 26.11 10.967 39.787 13.044 2.3-3.304-2.56-3.949-2.468-7.156-1.452-.422-1.886 1.382-4.638.67.256-1.2-1.127-2.688-.074-3.746-1.45-.423-1.887 1.382-4.638.672-11.752-13.055-23.254-21.217-40.01-24.279-1.57-2.155-.091-1.48 1.117-2.039-22.79-12.903-45.512-25.102-69.403-40.693-2.724 1.008-.425 2.91-.785 4.338-5.234-2.96-10.607-5.15-15.332-10.934-3.435 1.285-6.325-1.49-10.023-7.006 3.141-1.43 3.593-3.34 5.422-5.003 10.688 4.853 22.435 15.3 31.787 19.826 18.435 8.92 43.049 26.8 63.234 37.36zm-69.189 30.166c-2.73.497 9.252-1.23 3.47-2.376 6.798 1.348 19.87 13.666 31.17 20.448 5.37 3.219 11.723 7.705 17.527 12.056-12.704-11.949 3.003-1.252 10.89 2.67-5.449-7.607-18.301-10.56-26.159-18.81 7.336.98 14.949 4.83 22.465 9.94 12.036 8.188 26.476 17.332 35.128 27.866-7.546 1.182-13.458-6.614-20.388-8.829-2.2 2.341 2.116 1.256 2.413 3.414-5.502-1.955-7.42-9.178-13.306-6.083-2.116-3.196-6.274-5.066-11.91-9.574.575 4.87-11.824-1.24-11.837-5.825-2.393 1.762-8.337-1.064-12.098-4.378-1.05 3.37 5.04 2.595 6.558 5.639-11.834-7.202-24.164-15.618-33.923-26.158zm132.14-2.347c-1.601 4.837 5.285.356 7.22.476.86 1.221 1.72 2.442 2.582 3.662-4.639 1.718-8.48-.996-12.583-2.228.474-2.942 1.189-1.89-1.652-4.3 2.172.253 8.364 1.215 7.58 2.946-1.342 1.418-2.252.488-3.146-.556z" fill="#F1F2F8" fill-rule="evenodd"/></svg>